<svg xmlns="http://www.w3.org/2000/svg" width="162" height="50.536" viewBox="0 0 162 50.536">
  <g id="XMLID_1_" transform="translate(-67.696 -193)">
    <path id="XMLID_30_" d="M153.049,205.745a3.286,3.286,0,1,1-3.286-3.286A3.279,3.279,0,0,1,153.049,205.745Zm-13.589,6.617v.8a6.286,6.286,0,0,0-4.929-2.043,10.039,10.039,0,0,0,0,20.072,6.238,6.238,0,0,0,4.929-2.087v.844a.7.7,0,0,0,.711.711h4.085V211.651h-4.085A.73.73,0,0,0,139.46,212.362Zm0,12.212a5.015,5.015,0,0,1-4.085,2.087c-3.242,0-5.729-2.043-5.729-5.462,0-3.464,2.487-5.462,5.729-5.462a5.136,5.136,0,0,1,4.085,2.087Zm7.86-12.923h4.84V230.7h-4.84Zm72.606-.488A6.4,6.4,0,0,0,215,213.205V202.5h-4.84v28.2h4.085a.73.73,0,0,0,.711-.711v-.844a6.238,6.238,0,0,0,4.929,2.087,10.039,10.039,0,0,0,.044-20.072Zm-.8,15.409a4.951,4.951,0,0,1-4.085-2.087v-6.794a5.493,5.493,0,0,1,4.085-2.087c3.242,0,5.729,2.043,5.729,5.462C224.855,224.574,222.369,226.572,219.127,226.572Zm-11.5-7.15v11.324h-4.84V219.955c0-3.153-1.021-4.4-3.73-4.4a5.478,5.478,0,0,0-3.952,1.865V230.7h-4.84V211.651h3.863a.73.73,0,0,1,.711.711v.8a6.992,6.992,0,0,1,5.151-2.043,7.993,7.993,0,0,1,5.329,1.821C206.959,214.4,207.625,216.225,207.625,219.422Zm-29.22-8.26a6.4,6.4,0,0,0-4.929,2.043V202.5h-4.84v28.2h4.085a.73.73,0,0,0,.711-.711v-.844a6.238,6.238,0,0,0,4.929,2.087,10.039,10.039,0,0,0,.044-20.072Zm-.8,15.409a4.951,4.951,0,0,1-4.085-2.087v-6.794a5.493,5.493,0,0,1,4.085-2.087c3.242,0,5.729,2.043,5.729,5.462C183.334,224.574,180.848,226.572,177.606,226.572Zm-13.189-15.409a7.327,7.327,0,0,1,2.22.266v4.485s-4.041-1.377-6.572,1.51v13.322h-4.84v-19.1h4.085a.73.73,0,0,1,.711.711v.8A6.655,6.655,0,0,1,164.417,211.163ZM113.926,228.97c-.266-.622-.488-1.288-.755-1.821-.4-.933-.8-1.776-1.155-2.576l-.044-.044c-3.508-7.594-7.238-15.276-11.191-22.87l-.133-.311q-.6-1.132-1.2-2.4a14.283,14.283,0,0,0-1.821-2.8A8.117,8.117,0,0,0,91.189,193a8.561,8.561,0,0,0-6.483,3.02,16.656,16.656,0,0,0-1.821,2.8l-1.2,2.4-.133.311C77.645,209.12,73.87,216.8,70.362,224.4l-.044.089c-.355.8-.755,1.687-1.155,2.576-.266.577-.488,1.155-.755,1.821a11.641,11.641,0,0,0-.622,5.462,10.8,10.8,0,0,0,6.572,8.393,10.007,10.007,0,0,0,4.085.8c.4,0,.933-.044,1.332-.089a13.478,13.478,0,0,0,5.062-1.732A24.9,24.9,0,0,0,91.1,236.43a27.662,27.662,0,0,0,6.261,5.284,13.478,13.478,0,0,0,5.062,1.732c.4.044.933.089,1.332.089a10.472,10.472,0,0,0,4.085-.8,10.678,10.678,0,0,0,6.572-8.393A9.435,9.435,0,0,0,113.926,228.97ZM91.1,231.59a25.2,25.2,0,0,1-5.107-9.414,7.489,7.489,0,0,1-.133-3.109,4.952,4.952,0,0,1,.8-2.132,5.348,5.348,0,0,1,4.441-2.22,5.126,5.126,0,0,1,4.441,2.22,4.952,4.952,0,0,1,.8,2.132,9.376,9.376,0,0,1-.133,3.109C95.63,224.884,93.854,228.126,91.1,231.59Zm20.205,2.4a7.467,7.467,0,0,1-4.618,5.906,7.587,7.587,0,0,1-3.863.488,9.8,9.8,0,0,1-3.863-1.332,23.551,23.551,0,0,1-5.773-4.929c3.331-4.085,5.373-7.86,6.128-11.191a13.167,13.167,0,0,0,.266-4.308,8.486,8.486,0,0,0-1.377-3.464,8.575,8.575,0,0,0-7.15-3.6,8.75,8.75,0,0,0-7.15,3.6,8.486,8.486,0,0,0-1.377,3.464,10.286,10.286,0,0,0,.266,4.308c.755,3.331,2.842,7.15,6.128,11.235a23.724,23.724,0,0,1-5.773,4.929,10.559,10.559,0,0,1-3.863,1.332,8.6,8.6,0,0,1-3.863-.488,7.533,7.533,0,0,1-4.618-5.906,8.845,8.845,0,0,1,.444-3.952,11.238,11.238,0,0,1,.666-1.6c.355-.8.755-1.687,1.155-2.531l.044-.089c3.508-7.549,7.238-15.232,11.146-22.737l.133-.311c.4-.755.8-1.554,1.2-2.309a10.5,10.5,0,0,1,1.421-2.22,5.31,5.31,0,0,1,8.082,0,10.5,10.5,0,0,1,1.421,2.22c.4.755.8,1.554,1.2,2.309l.133.311c3.863,7.549,7.594,15.232,11.1,22.781v.044c.4.8.755,1.732,1.155,2.531.266.622.488,1.11.666,1.6A6.693,6.693,0,0,1,111.306,233.988Z" fill="#c1c2de"/>
  </g>
</svg>
