<svg xmlns="http://www.w3.org/2000/svg" width="155.5" height="46.85" viewBox="0 0 155.5 46.85">
  <g id="Amazon-02" transform="translate(-67.6 -195)">
    <path id="Path_360" data-name="Path 360" d="M193.4,271.918c-9.029,6.644-22.147,10.222-33.391,10.222a60.339,60.339,0,0,1-40.8-15.588c-.852-.767-.085-1.789.937-1.193a82.028,82.028,0,0,0,40.845,10.818,81.138,81.138,0,0,0,31.134-6.389c1.491-.639,2.811,1.022,1.278,2.13" transform="translate(-29.416 -40.29)" fill="#c1c2de"/>
    <path id="Path_361" data-name="Path 361" d="M287.549,265.4c-1.15-1.491-7.624-.681-10.563-.341-.894.128-1.022-.681-.213-1.235,5.154-3.62,13.629-2.6,14.609-1.363s-.256,9.711-5.111,13.757c-.724.639-1.448.3-1.107-.554,1.065-2.683,3.535-8.774,2.385-10.264" transform="translate(-119.775 -38.073)" fill="#c1c2de"/>
    <path id="Path_362" data-name="Path 362" d="M277.352,201.029v-3.535a.873.873,0,0,1,.894-.894h15.8a.873.873,0,0,1,.894.894v3.024c0,.511-.426,1.15-1.193,2.215l-8.177,11.713a17.663,17.663,0,0,1,9.029,1.917,1.549,1.549,0,0,1,.852,1.363v3.748c0,.511-.554,1.107-1.15.809a18.187,18.187,0,0,0-16.7.043c-.554.3-1.107-.3-1.107-.809v-3.578a4.065,4.065,0,0,1,.6-2.428l9.5-13.629h-8.263a.825.825,0,0,1-.98-.852" transform="translate(-119.927 -0.919)" fill="#c1c2de"/>
    <path id="Path_363" data-name="Path 363" d="M135.365,222.518h-4.813a.912.912,0,0,1-.852-.809v-24.7a.909.909,0,0,1,.937-.894h4.472a.847.847,0,0,1,.852.809v3.237h.085a6.331,6.331,0,0,1,6.346-4.557c3.024,0,4.9,1.448,6.261,4.557A6.79,6.79,0,0,1,155.3,195.6a6.986,6.986,0,0,1,5.579,2.683c1.533,2.087,1.193,5.111,1.193,7.752v15.588a.909.909,0,0,1-.937.894h-4.813a.922.922,0,0,1-.852-.894V208.548a33.814,33.814,0,0,0-.128-4.642,2.5,2.5,0,0,0-2.811-2.13,3.226,3.226,0,0,0-2.9,2.044,14.418,14.418,0,0,0-.426,4.728v13.075a.909.909,0,0,1-.937.894h-4.813a.922.922,0,0,1-.852-.894V208.548c0-2.768.469-6.815-2.981-6.815s-3.322,3.961-3.322,6.815v13.075a.938.938,0,0,1-.937.894" transform="translate(-35.651 -0.344)" fill="#c1c2de"/>
    <path id="Path_364" data-name="Path 364" d="M337.218,195.6c7.155,0,10.988,6.133,10.988,13.927,0,7.539-4.259,13.5-10.988,13.5-7.028,0-10.818-6.133-10.818-13.757,0-7.709,3.876-13.672,10.818-13.672m.043,5.026c-3.535,0-3.748,4.813-3.748,7.837s-.043,9.455,3.748,9.455c3.748,0,3.918-5.2,3.918-8.348a22.648,22.648,0,0,0-.724-6.559,3.107,3.107,0,0,0-3.194-2.385" transform="translate(-148.574 -0.344)" fill="#c1c2de"/>
    <path id="Path_365" data-name="Path 365" d="M391.822,222.518h-4.77a.922.922,0,0,1-.852-.894v-24.7a.9.9,0,0,1,.937-.809h4.472a.87.87,0,0,1,.852.681v3.791h.085c1.363-3.365,3.237-4.983,6.559-4.983a6.309,6.309,0,0,1,5.622,2.9C406,200.455,406,203.777,406,206.163v15.546a.927.927,0,0,1-.937.767h-4.9a.91.91,0,0,1-.852-.767V208.292c0-2.683.3-6.644-3.024-6.644a3.1,3.1,0,0,0-2.768,1.959,10.862,10.862,0,0,0-.767,4.685v13.288a.945.945,0,0,1-.937.937" transform="translate(-182.905 -0.344)" fill="#c1c2de"/>
    <path id="Path_366" data-name="Path 366" d="M238.344,217.616c-.894-1.235-1.831-2.215-1.831-4.472v-7.5c0-3.194.213-6.091-2.13-8.263-1.831-1.789-4.9-2.385-7.24-2.385-4.557,0-9.711,1.7-10.776,7.368a.865.865,0,0,0,.724,1.022l4.642.511a1,1,0,0,0,.852-.894,3.66,3.66,0,0,1,3.876-2.9,3.234,3.234,0,0,1,2.683,1.235,6.1,6.1,0,0,1,.6,3.492v.639c-2.768.3-6.431.511-9.029,1.661a8.172,8.172,0,0,0-5.111,7.879c0,4.983,3.152,7.5,7.2,7.5,3.407,0,5.281-.809,7.922-3.492a10.809,10.809,0,0,0,2.768,3.194,1.045,1.045,0,0,0,1.15-.128h0c.98-.852,2.726-2.385,3.705-3.194A.923.923,0,0,0,238.344,217.616Zm-9.455-2.172a3.9,3.9,0,0,1-3.322,2.172c-1.831,0-2.939-1.405-2.939-3.492,0-4.089,3.663-4.855,7.155-4.855v1.022h0C229.783,212.249,229.825,213.783,228.888,215.444Z" transform="translate(-84.965)" fill="#c1c2de"/>
    <path id="Path_367" data-name="Path 367" d="M90.3,217.616c-.894-1.235-1.831-2.215-1.831-4.472v-7.5c0-3.194.213-6.091-2.13-8.263C84.509,195.6,81.442,195,79.1,195c-4.557,0-9.668,1.7-10.776,7.368a.865.865,0,0,0,.724,1.022l4.685.511a1,1,0,0,0,.852-.894,3.66,3.66,0,0,1,3.876-2.9,3.234,3.234,0,0,1,2.683,1.235,6.1,6.1,0,0,1,.6,3.492v.639c-2.768.3-6.431.511-9.029,1.661a8.172,8.172,0,0,0-5.111,7.879c0,4.983,3.152,7.5,7.2,7.5,3.407,0,5.281-.809,7.922-3.492a11.476,11.476,0,0,0,2.768,3.194,1.045,1.045,0,0,0,1.15-.128h0c.98-.852,2.726-2.385,3.705-3.194A.973.973,0,0,0,90.3,217.616Zm-9.455-2.172a3.848,3.848,0,0,1-3.322,2.172c-1.831,0-2.939-1.405-2.939-3.492,0-4.089,3.663-4.855,7.155-4.855v1.022C81.74,212.249,81.783,213.783,80.846,215.444Z" fill="#c1c2de"/>
  </g>
</svg>
