<svg xmlns="http://www.w3.org/2000/svg" width="258.695" height="287.135" viewBox="0 0 258.695 287.135">
  <path id="Path_353" data-name="Path 353" d="M710.75-727.675c-14.738,1.863-30.821,10.989-42.447,24.147-6.768,7.664-10.612,13.064-24.171,34.075-7.122,10.989-9.527,14.432-12.9,18.3-5.99,6.933-11.673,10.352-17.144,10.352-6.2,0-11.838-4.127-19.431-14.267a219.794,219.794,0,0,1-12.545-18.983c-7.664-12.5-10.352-16.224-14.974-20.87-9.9-9.928-20.7-12.4-32.589-7.428-10.706,4.48-21.553,15.682-27.661,28.628a62.106,62.106,0,0,0-5.825,21.6c-.142,2.405-.118,2.523.448,3.16a2.119,2.119,0,0,0,1.745.778c1.91.189,2.24-.259,3.278-4.5,3.278-13.512,9.527-25,18.063-33.3a41.147,41.147,0,0,1,10.706-7.923c6.131-3.042,11.343-3.679,16.389-1.957,3.679,1.25,6.3,3.16,9.716,7.145,3.985,4.646,6.674,8.89,12.97,20.563a167.155,167.155,0,0,0,9.267,15.823c5.235,7.805,9.6,12.758,14.267,16.295,7.923,5.943,16.931,7.4,25.4,4.056,4.386-1.721,8.277-4.5,13.064-9.267,6.226-6.225,10.659-12.357,19.455-26.906,9.126-15.092,15.965-24.218,24.6-32.778,12.8-12.734,25.845-18.7,38.579-17.686,10.187.825,18.724,5.117,27.237,13.654,5.99,5.99,9.291,10.541,17.38,23.841,4.056,6.673,9.48,15.8,9.385,15.8-.071,0-1.25-.755-2.641-1.674-3.679-2.429-5-3.042-6.485-3.042a4.341,4.341,0,0,0-4.622,3.985,2.554,2.554,0,0,0,.472,2.075c.59.825,3.608,3.231,11.036,8.8,2.665,2,6.414,4.834,8.324,6.32a46.311,46.311,0,0,0,4.363,3.042,6.278,6.278,0,0,0,2.641.259,4.272,4.272,0,0,0,2.783-.731c2.429-1.6,2.853-3.584,1.839-8.7-.33-1.721-1.368-7.64-2.264-13.135-1.533-9.15-2.924-16.507-3.537-18.676-.66-2.335-2.358-3.514-5.046-3.514a4.559,4.559,0,0,0-2.9.707c-2.335,1.344-2.712,3.066-1.863,8.654.212,1.344.377,2.57.377,2.712a40.929,40.929,0,0,1-2.547-4.528c-10.305-19.549-18.276-29.547-29.642-37.141A46.711,46.711,0,0,0,710.75-727.675Z" transform="translate(-805.057 68.845) rotate(51)" fill="#1b2161"/>
</svg>
