<svg xmlns="http://www.w3.org/2000/svg" width="209.845" height="185.983" viewBox="0 0 209.845 185.983">
  <path id="Path_338" data-name="Path 338" d="M3397.078-2756.371a170.566,170.566,0,0,0-64.158,14.186,167.537,167.537,0,0,0-81.852,78.252,151.342,151.342,0,0,0-14.955,46.434,20.445,20.445,0,0,1-.461,2.739,14.825,14.825,0,0,1-2.339-2.092,25.027,25.027,0,0,0-6.462-4.954,8.723,8.723,0,0,1-2.4-2.092,5.542,5.542,0,0,0-1.754-1.631,2.532,2.532,0,0,0-3.108,1.477c-.277.554-.646,1.015-.862,1.015-.862,0-1.016,5.447-.246,9.17.739,3.631,8.216,25.756,12.739,37.726a8.339,8.339,0,0,0,7.785,5.723,6.183,6.183,0,0,0,4.708-1.907,53.39,53.39,0,0,0,3.354-5.632c4.677-8.431,9.939-17.016,16.555-26.895,3.231-4.861,3.723-5.908,3.477-7.446a3.085,3.085,0,0,1,.277-2c1.138-2.185-.031-5.877-2.308-7.385a6.94,6.94,0,0,0-6.339-.492,15.961,15.961,0,0,0-4.892,5.416,3.174,3.174,0,0,1-1.077,1.416,25.32,25.32,0,0,0-2.339,1.723,8.72,8.72,0,0,1-1.816,1.293c-.308-.369,3.662-15.324,6.062-22.709a166.911,166.911,0,0,1,70.5-89.76,178.3,178.3,0,0,1,65.482-24.217c9.416-1.508,13.355-1.815,25.2-1.908,10.309-.062,11.232-.123,11.6-.615.584-.8.492-1.508-.277-2.431-.83-.954-1.969-1.138-10.554-1.815C3410.587-2756.248,3402.71-2756.494,3397.078-2756.371Z" transform="translate(-3217.983 2756.403)" fill="#1b2161"/>
</svg>
