<svg xmlns="http://www.w3.org/2000/svg" width="492" height="491.968" viewBox="0 0 492 491.968">
  <g id="cancel" transform="translate(0 -0.016)">
    <g id="Group_115" data-name="Group 115">
      <path id="Path_406" data-name="Path 406" d="M300.188,246,484.14,62.04a26.957,26.957,0,0,0,0-38.052L468.02,7.872a26.977,26.977,0,0,0-38.06,0L246.008,191.82,62.048,7.872A26.962,26.962,0,0,0,24,7.872L7.872,23.988a26.928,26.928,0,0,0,0,38.052L191.828,246,7.872,429.952a26.986,26.986,0,0,0,0,38.06L24,484.128a26.962,26.962,0,0,0,38.048,0L246,300.176,429.956,484.128a26.7,26.7,0,0,0,19.024,7.856h.008a26.7,26.7,0,0,0,19.028-7.856l16.12-16.116a26.982,26.982,0,0,0,0-38.056Z" fill="rgba(12,15,53,0.8)"/>
    </g>
  </g>
</svg>
