<svg xmlns="http://www.w3.org/2000/svg" width="257.418" height="257.418" viewBox="0 0 257.418 257.418">
  <g id="diamond_shape" data-name="diamond shape" transform="translate(1283.309 35.182) rotate(74)">
    <rect id="Rectangle_8" data-name="Rectangle 8" width="41.75" height="41.75" transform="translate(-228.347 1001.757) rotate(45)" fill="rgba(121,135,195,0.23)"/>
    <rect id="Rectangle_12" data-name="Rectangle 12" width="41.75" height="41.75" transform="translate(-193.555 1036.549) rotate(45)" fill="rgba(121,135,195,0.23)"/>
    <rect id="Rectangle_13" data-name="Rectangle 13" width="41.75" height="41.75" transform="translate(-158.764 1071.34) rotate(45)" fill="rgba(121,135,195,0.23)"/>
    <rect id="Rectangle_14" data-name="Rectangle 14" width="41.75" height="41.75" transform="translate(-123.972 1106.132) rotate(45)" fill="rgba(121,135,195,0.23)"/>
    <rect id="Rectangle_9" data-name="Rectangle 9" width="41.75" height="41.75" transform="translate(-263.138 1036.549) rotate(45)" fill="rgba(121,135,195,0.23)"/>
    <rect id="Rectangle_10" data-name="Rectangle 10" width="41.75" height="41.75" transform="translate(-297.93 1071.34) rotate(45)" fill="rgba(121,135,195,0.23)"/>
    <rect id="Rectangle_11" data-name="Rectangle 11" width="41.75" height="41.75" transform="translate(-332.721 1106.132) rotate(45)" fill="rgba(121,135,195,0.23)"/>
    <rect id="Rectangle_15" data-name="Rectangle 15" width="41.75" height="41.75" transform="translate(-297.93 1140.924) rotate(45)" fill="rgba(121,135,195,0.23)"/>
    <rect id="Rectangle_16" data-name="Rectangle 16" width="41.75" height="41.75" transform="translate(-263.138 1175.715) rotate(45)" fill="rgba(121,135,195,0.23)"/>
    <rect id="Rectangle_17" data-name="Rectangle 17" width="41.75" height="41.75" transform="translate(-228.347 1210.505) rotate(45)" fill="rgba(121,135,195,0.23)"/>
    <rect id="Rectangle_18" data-name="Rectangle 18" width="41.75" height="41.75" transform="translate(-193.555 1175.715) rotate(45)" fill="rgba(121,135,195,0.23)"/>
    <rect id="Rectangle_19" data-name="Rectangle 19" width="41.75" height="41.75" transform="translate(-158.764 1140.923) rotate(45)" fill="rgba(121,135,195,0.23)"/>
  </g>
</svg>
