<svg xmlns="http://www.w3.org/2000/svg" width="31.402" height="31.402" viewBox="0 0 31.402 31.402">
  <g id="diamond_shape" data-name="diamond shape" transform="translate(362.243 -1001.757)">
    <rect id="Rectangle_8" data-name="Rectangle 8" width="4.896" height="4.896" transform="translate(-346.542 1001.757) rotate(45)" fill="rgba(139,153,209,0.37)"/>
    <rect id="Rectangle_12" data-name="Rectangle 12" width="4.896" height="4.896" transform="translate(-342.462 1005.837) rotate(45)" fill="rgba(139,153,209,0.37)"/>
    <rect id="Rectangle_13" data-name="Rectangle 13" width="4.896" height="4.896" transform="translate(-338.382 1009.917) rotate(45)" fill="rgba(139,153,209,0.37)"/>
    <rect id="Rectangle_14" data-name="Rectangle 14" width="4.896" height="4.896" transform="translate(-334.302 1013.997) rotate(45)" fill="rgba(139,153,209,0.37)"/>
    <rect id="Rectangle_9" data-name="Rectangle 9" width="4.896" height="4.896" transform="translate(-350.621 1005.837) rotate(45)" fill="rgba(139,153,209,0.37)"/>
    <rect id="Rectangle_10" data-name="Rectangle 10" width="4.896" height="4.896" transform="translate(-354.701 1009.917) rotate(45)" fill="rgba(139,153,209,0.37)"/>
    <rect id="Rectangle_11" data-name="Rectangle 11" width="4.896" height="4.896" transform="translate(-358.781 1013.997) rotate(45)" fill="rgba(139,153,209,0.37)"/>
    <rect id="Rectangle_15" data-name="Rectangle 15" width="4.896" height="4.896" transform="translate(-354.701 1018.077) rotate(45)" fill="rgba(139,153,209,0.37)"/>
    <rect id="Rectangle_16" data-name="Rectangle 16" width="4.896" height="4.896" transform="translate(-350.621 1022.156) rotate(45)" fill="rgba(139,153,209,0.37)"/>
    <rect id="Rectangle_17" data-name="Rectangle 17" width="4.896" height="4.896" transform="translate(-346.542 1026.236) rotate(45)" fill="rgba(139,153,209,0.37)"/>
    <rect id="Rectangle_18" data-name="Rectangle 18" width="4.896" height="4.896" transform="translate(-342.462 1022.156) rotate(45)" fill="rgba(139,153,209,0.37)"/>
    <rect id="Rectangle_19" data-name="Rectangle 19" width="4.896" height="4.896" transform="translate(-338.382 1018.076) rotate(45)" fill="rgba(139,153,209,0.37)"/>
  </g>
</svg>
