<svg xmlns="http://www.w3.org/2000/svg" width="285" height="73" viewBox="0 0 285 73">
  <g id="Group_112" data-name="Group 112" transform="translate(18 -191)">
    <g id="Group_2" data-name="Group 2" transform="translate(-1322.25 -56)">
      <circle id="Ellipse_4" data-name="Ellipse 4" cx="3" cy="3" r="3" transform="translate(1304.25 247)" fill="rgba(255,255,255,0.13)"/>
      <circle id="Ellipse_4-2" data-name="Ellipse 4" cx="3" cy="3" r="3" transform="translate(1325.25 247)" fill="rgba(255,255,255,0.13)"/>
      <circle id="Ellipse_4-3" data-name="Ellipse 4" cx="3" cy="3" r="3" transform="translate(1345.25 247)" fill="rgba(255,255,255,0.13)"/>
      <circle id="Ellipse_4-4" data-name="Ellipse 4" cx="3" cy="3" r="3" transform="translate(1364.25 247)" fill="rgba(255,255,255,0.13)"/>
      <ellipse id="Ellipse_4-5" data-name="Ellipse 4" cx="3.5" cy="3" rx="3.5" ry="3" transform="translate(1383.25 247)" fill="rgba(255,255,255,0.13)"/>
      <circle id="Ellipse_4-6" data-name="Ellipse 4" cx="3" cy="3" r="3" transform="translate(1404.25 247)" fill="rgba(255,255,255,0.13)"/>
      <ellipse id="Ellipse_4-7" data-name="Ellipse 4" cx="3.5" cy="3" rx="3.5" ry="3" transform="translate(1423.25 247)" fill="rgba(255,255,255,0.13)"/>
      <circle id="Ellipse_4-8" data-name="Ellipse 4" cx="3" cy="3" r="3" transform="translate(1443.25 247)" fill="rgba(255,255,255,0.13)"/>
      <ellipse id="Ellipse_4-9" data-name="Ellipse 4" cx="3.5" cy="3" rx="3.5" ry="3" transform="translate(1463.25 247)" fill="rgba(255,255,255,0.13)"/>
      <circle id="Ellipse_4-10" data-name="Ellipse 4" cx="3" cy="3" r="3" transform="translate(1483.25 247)" fill="rgba(255,255,255,0.13)"/>
      <ellipse id="Ellipse_4-11" data-name="Ellipse 4" cx="3.5" cy="3" rx="3.5" ry="3" transform="translate(1502.25 247)" fill="rgba(255,255,255,0.13)"/>
      <circle id="Ellipse_4-12" data-name="Ellipse 4" cx="3" cy="3" r="3" transform="translate(1523.25 247)" fill="rgba(255,255,255,0.13)"/>
      <circle id="Ellipse_4-13" data-name="Ellipse 4" cx="3" cy="3" r="3" transform="translate(1542.25 247)" fill="rgba(255,255,255,0.13)"/>
      <circle id="Ellipse_4-14" data-name="Ellipse 4" cx="3" cy="3" r="3" transform="translate(1562.25 247)" fill="rgba(255,255,255,0.13)"/>
      <circle id="Ellipse_4-15" data-name="Ellipse 4" cx="3" cy="3" r="3" transform="translate(1583.25 247)" fill="rgba(255,255,255,0.13)"/>
      <circle id="Ellipse_4-16" data-name="Ellipse 4" cx="3" cy="3" r="3" transform="translate(1304.25 264)" fill="rgba(255,255,255,0.13)"/>
      <circle id="Ellipse_4-17" data-name="Ellipse 4" cx="3" cy="3" r="3" transform="translate(1325.25 264)" fill="rgba(255,255,255,0.13)"/>
      <circle id="Ellipse_4-18" data-name="Ellipse 4" cx="3" cy="3" r="3" transform="translate(1345.25 264)" fill="rgba(255,255,255,0.13)"/>
      <circle id="Ellipse_4-19" data-name="Ellipse 4" cx="3" cy="3" r="3" transform="translate(1364.25 264)" fill="rgba(255,255,255,0.13)"/>
      <ellipse id="Ellipse_4-20" data-name="Ellipse 4" cx="3.5" cy="3" rx="3.5" ry="3" transform="translate(1383.25 264)" fill="rgba(255,255,255,0.13)"/>
      <circle id="Ellipse_4-21" data-name="Ellipse 4" cx="3" cy="3" r="3" transform="translate(1404.25 264)" fill="rgba(255,255,255,0.13)"/>
      <ellipse id="Ellipse_4-22" data-name="Ellipse 4" cx="3.5" cy="3" rx="3.5" ry="3" transform="translate(1423.25 264)" fill="rgba(255,255,255,0.13)"/>
      <circle id="Ellipse_4-23" data-name="Ellipse 4" cx="3" cy="3" r="3" transform="translate(1443.25 264)" fill="rgba(255,255,255,0.13)"/>
      <ellipse id="Ellipse_4-24" data-name="Ellipse 4" cx="3.5" cy="3" rx="3.5" ry="3" transform="translate(1463.25 264)" fill="rgba(255,255,255,0.13)"/>
      <circle id="Ellipse_4-25" data-name="Ellipse 4" cx="3" cy="3" r="3" transform="translate(1483.25 264)" fill="rgba(255,255,255,0.13)"/>
      <ellipse id="Ellipse_4-26" data-name="Ellipse 4" cx="3.5" cy="3" rx="3.5" ry="3" transform="translate(1502.25 264)" fill="rgba(255,255,255,0.13)"/>
      <circle id="Ellipse_4-27" data-name="Ellipse 4" cx="3" cy="3" r="3" transform="translate(1523.25 264)" fill="rgba(255,255,255,0.13)"/>
      <circle id="Ellipse_4-28" data-name="Ellipse 4" cx="3" cy="3" r="3" transform="translate(1542.25 264)" fill="rgba(255,255,255,0.13)"/>
      <circle id="Ellipse_4-29" data-name="Ellipse 4" cx="3" cy="3" r="3" transform="translate(1562.25 264)" fill="rgba(255,255,255,0.13)"/>
      <circle id="Ellipse_4-30" data-name="Ellipse 4" cx="3" cy="3" r="3" transform="translate(1583.25 264)" fill="rgba(255,255,255,0.13)"/>
      <circle id="Ellipse_4-31" data-name="Ellipse 4" cx="3" cy="3" r="3" transform="translate(1304.25 280)" fill="rgba(255,255,255,0.13)"/>
      <circle id="Ellipse_4-32" data-name="Ellipse 4" cx="3" cy="3" r="3" transform="translate(1325.25 280)" fill="rgba(255,255,255,0.13)"/>
      <circle id="Ellipse_4-33" data-name="Ellipse 4" cx="3" cy="3" r="3" transform="translate(1345.25 280)" fill="rgba(255,255,255,0.13)"/>
      <circle id="Ellipse_4-34" data-name="Ellipse 4" cx="3" cy="3" r="3" transform="translate(1364.25 280)" fill="rgba(255,255,255,0.13)"/>
      <ellipse id="Ellipse_4-35" data-name="Ellipse 4" cx="3.5" cy="3" rx="3.5" ry="3" transform="translate(1383.25 280)" fill="rgba(255,255,255,0.13)"/>
      <circle id="Ellipse_4-36" data-name="Ellipse 4" cx="3" cy="3" r="3" transform="translate(1404.25 280)" fill="rgba(255,255,255,0.13)"/>
      <ellipse id="Ellipse_4-37" data-name="Ellipse 4" cx="3.5" cy="3" rx="3.5" ry="3" transform="translate(1423.25 280)" fill="rgba(255,255,255,0.13)"/>
      <circle id="Ellipse_4-38" data-name="Ellipse 4" cx="3" cy="3" r="3" transform="translate(1443.25 280)" fill="rgba(255,255,255,0.13)"/>
      <ellipse id="Ellipse_4-39" data-name="Ellipse 4" cx="3.5" cy="3" rx="3.5" ry="3" transform="translate(1463.25 280)" fill="rgba(255,255,255,0.13)"/>
      <circle id="Ellipse_4-40" data-name="Ellipse 4" cx="3" cy="3" r="3" transform="translate(1483.25 280)" fill="rgba(255,255,255,0.13)"/>
      <ellipse id="Ellipse_4-41" data-name="Ellipse 4" cx="3.5" cy="3" rx="3.5" ry="3" transform="translate(1502.25 280)" fill="rgba(255,255,255,0.13)"/>
      <circle id="Ellipse_4-42" data-name="Ellipse 4" cx="3" cy="3" r="3" transform="translate(1523.25 280)" fill="rgba(255,255,255,0.13)"/>
      <circle id="Ellipse_4-43" data-name="Ellipse 4" cx="3" cy="3" r="3" transform="translate(1542.25 280)" fill="rgba(255,255,255,0.13)"/>
      <circle id="Ellipse_4-44" data-name="Ellipse 4" cx="3" cy="3" r="3" transform="translate(1562.25 280)" fill="rgba(255,255,255,0.13)"/>
      <circle id="Ellipse_4-45" data-name="Ellipse 4" cx="3" cy="3" r="3" transform="translate(1583.25 280)" fill="rgba(255,255,255,0.13)"/>
      <circle id="Ellipse_4-46" data-name="Ellipse 4" cx="3" cy="3" r="3" transform="translate(1304.25 297)" fill="rgba(255,255,255,0.13)"/>
      <circle id="Ellipse_4-47" data-name="Ellipse 4" cx="3" cy="3" r="3" transform="translate(1325.25 297)" fill="rgba(255,255,255,0.13)"/>
      <circle id="Ellipse_4-48" data-name="Ellipse 4" cx="3" cy="3" r="3" transform="translate(1345.25 297)" fill="rgba(255,255,255,0.13)"/>
      <circle id="Ellipse_4-49" data-name="Ellipse 4" cx="3" cy="3" r="3" transform="translate(1364.25 297)" fill="rgba(255,255,255,0.13)"/>
      <ellipse id="Ellipse_4-50" data-name="Ellipse 4" cx="3.5" cy="3" rx="3.5" ry="3" transform="translate(1383.25 297)" fill="rgba(255,255,255,0.13)"/>
      <circle id="Ellipse_4-51" data-name="Ellipse 4" cx="3" cy="3" r="3" transform="translate(1404.25 297)" fill="rgba(255,255,255,0.13)"/>
      <ellipse id="Ellipse_4-52" data-name="Ellipse 4" cx="3.5" cy="3" rx="3.5" ry="3" transform="translate(1423.25 297)" fill="rgba(255,255,255,0.13)"/>
      <circle id="Ellipse_4-53" data-name="Ellipse 4" cx="3" cy="3" r="3" transform="translate(1443.25 297)" fill="rgba(255,255,255,0.13)"/>
      <ellipse id="Ellipse_4-54" data-name="Ellipse 4" cx="3.5" cy="3" rx="3.5" ry="3" transform="translate(1463.25 297)" fill="rgba(255,255,255,0.13)"/>
      <circle id="Ellipse_4-55" data-name="Ellipse 4" cx="3" cy="3" r="3" transform="translate(1483.25 297)" fill="rgba(255,255,255,0.13)"/>
      <ellipse id="Ellipse_4-56" data-name="Ellipse 4" cx="3.5" cy="3" rx="3.5" ry="3" transform="translate(1502.25 297)" fill="rgba(255,255,255,0.13)"/>
      <circle id="Ellipse_4-57" data-name="Ellipse 4" cx="3" cy="3" r="3" transform="translate(1523.25 297)" fill="rgba(255,255,255,0.13)"/>
      <circle id="Ellipse_4-58" data-name="Ellipse 4" cx="3" cy="3" r="3" transform="translate(1542.25 297)" fill="rgba(255,255,255,0.13)"/>
      <circle id="Ellipse_4-59" data-name="Ellipse 4" cx="3" cy="3" r="3" transform="translate(1562.25 297)" fill="rgba(255,255,255,0.13)"/>
      <circle id="Ellipse_4-60" data-name="Ellipse 4" cx="3" cy="3" r="3" transform="translate(1583.25 297)" fill="rgba(255,255,255,0.13)"/>
      <ellipse id="Ellipse_4-61" data-name="Ellipse 4" cx="3" cy="3.5" rx="3" ry="3.5" transform="translate(1304.25 313)" fill="rgba(255,255,255,0.13)"/>
      <ellipse id="Ellipse_4-62" data-name="Ellipse 4" cx="3" cy="3.5" rx="3" ry="3.5" transform="translate(1325.25 313)" fill="rgba(255,255,255,0.13)"/>
      <ellipse id="Ellipse_4-63" data-name="Ellipse 4" cx="3" cy="3.5" rx="3" ry="3.5" transform="translate(1345.25 313)" fill="rgba(255,255,255,0.13)"/>
      <ellipse id="Ellipse_4-64" data-name="Ellipse 4" cx="3" cy="3.5" rx="3" ry="3.5" transform="translate(1364.25 313)" fill="rgba(255,255,255,0.13)"/>
      <circle id="Ellipse_4-65" data-name="Ellipse 4" cx="3.5" cy="3.5" r="3.5" transform="translate(1383.25 313)" fill="rgba(255,255,255,0.13)"/>
      <ellipse id="Ellipse_4-66" data-name="Ellipse 4" cx="3" cy="3.5" rx="3" ry="3.5" transform="translate(1404.25 313)" fill="rgba(255,255,255,0.13)"/>
      <circle id="Ellipse_4-67" data-name="Ellipse 4" cx="3.5" cy="3.5" r="3.5" transform="translate(1423.25 313)" fill="rgba(255,255,255,0.13)"/>
      <ellipse id="Ellipse_4-68" data-name="Ellipse 4" cx="3" cy="3.5" rx="3" ry="3.5" transform="translate(1443.25 313)" fill="rgba(255,255,255,0.13)"/>
      <circle id="Ellipse_4-69" data-name="Ellipse 4" cx="3.5" cy="3.5" r="3.5" transform="translate(1463.25 313)" fill="rgba(255,255,255,0.13)"/>
      <ellipse id="Ellipse_4-70" data-name="Ellipse 4" cx="3" cy="3.5" rx="3" ry="3.5" transform="translate(1483.25 313)" fill="rgba(255,255,255,0.13)"/>
      <circle id="Ellipse_4-71" data-name="Ellipse 4" cx="3.5" cy="3.5" r="3.5" transform="translate(1502.25 313)" fill="rgba(255,255,255,0.13)"/>
      <ellipse id="Ellipse_4-72" data-name="Ellipse 4" cx="3" cy="3.5" rx="3" ry="3.5" transform="translate(1523.25 313)" fill="rgba(255,255,255,0.13)"/>
      <ellipse id="Ellipse_4-73" data-name="Ellipse 4" cx="3" cy="3.5" rx="3" ry="3.5" transform="translate(1542.25 313)" fill="rgba(255,255,255,0.13)"/>
      <ellipse id="Ellipse_4-74" data-name="Ellipse 4" cx="3" cy="3.5" rx="3" ry="3.5" transform="translate(1562.25 313)" fill="rgba(255,255,255,0.13)"/>
      <ellipse id="Ellipse_4-75" data-name="Ellipse 4" cx="3" cy="3.5" rx="3" ry="3.5" transform="translate(1583.25 313)" fill="rgba(255,255,255,0.13)"/>
    </g>
  </g>
</svg>
