<svg xmlns="http://www.w3.org/2000/svg" width="215" height="55" viewBox="0 0 215 55">
  <g id="Group_11" data-name="Group 11" transform="translate(-1304.25 -247.091)">
    <ellipse id="Ellipse_4" data-name="Ellipse 4" cx="2.5" cy="2" rx="2.5" ry="2" transform="translate(1304.25 247.091)" fill="rgba(58,62,144,0.39)"/>
    <circle id="Ellipse_4-2" data-name="Ellipse 4" cx="2" cy="2" r="2" transform="translate(1320.25 247.091)" fill="rgba(58,62,144,0.39)"/>
    <circle id="Ellipse_4-3" data-name="Ellipse 4" cx="2" cy="2" r="2" transform="translate(1335.25 247.091)" fill="rgba(58,62,144,0.39)"/>
    <ellipse id="Ellipse_4-4" data-name="Ellipse 4" cx="2.5" cy="2" rx="2.5" ry="2" transform="translate(1349.25 247.091)" fill="rgba(58,62,144,0.39)"/>
    <ellipse id="Ellipse_4-5" data-name="Ellipse 4" cx="2.5" cy="2" rx="2.5" ry="2" transform="translate(1364.25 247.091)" fill="rgba(58,62,144,0.39)"/>
    <ellipse id="Ellipse_4-6" data-name="Ellipse 4" cx="2.5" cy="2" rx="2.5" ry="2" transform="translate(1379.25 247.091)" fill="rgba(58,62,144,0.39)"/>
    <ellipse id="Ellipse_4-7" data-name="Ellipse 4" cx="2.5" cy="2" rx="2.5" ry="2" transform="translate(1394.25 247.091)" fill="rgba(58,62,144,0.39)"/>
    <circle id="Ellipse_4-8" data-name="Ellipse 4" cx="2" cy="2" r="2" transform="translate(1409.25 247.091)" fill="rgba(58,62,144,0.39)"/>
    <ellipse id="Ellipse_4-9" data-name="Ellipse 4" cx="2.5" cy="2" rx="2.5" ry="2" transform="translate(1424.25 247.091)" fill="rgba(58,62,144,0.39)"/>
    <ellipse id="Ellipse_4-10" data-name="Ellipse 4" cx="2.5" cy="2" rx="2.5" ry="2" transform="translate(1439.25 247.091)" fill="rgba(58,62,144,0.39)"/>
    <ellipse id="Ellipse_4-11" data-name="Ellipse 4" cx="3" cy="2" rx="3" ry="2" transform="translate(1453.25 247.091)" fill="rgba(58,62,144,0.39)"/>
    <ellipse id="Ellipse_4-12" data-name="Ellipse 4" cx="2.5" cy="2" rx="2.5" ry="2" transform="translate(1469.25 247.091)" fill="rgba(58,62,144,0.39)"/>
    <circle id="Ellipse_4-13" data-name="Ellipse 4" cx="2" cy="2" r="2" transform="translate(1484.25 247.091)" fill="rgba(58,62,144,0.39)"/>
    <circle id="Ellipse_4-14" data-name="Ellipse 4" cx="2" cy="2" r="2" transform="translate(1499.25 247.091)" fill="rgba(58,62,144,0.39)"/>
    <circle id="Ellipse_4-15" data-name="Ellipse 4" cx="2" cy="2" r="2" transform="translate(1515.25 247.091)" fill="rgba(58,62,144,0.39)"/>
    <ellipse id="Ellipse_4-16" data-name="Ellipse 4" cx="2.5" cy="2" rx="2.5" ry="2" transform="translate(1304.25 260.091)" fill="rgba(58,62,144,0.39)"/>
    <circle id="Ellipse_4-17" data-name="Ellipse 4" cx="2" cy="2" r="2" transform="translate(1320.25 260.091)" fill="rgba(58,62,144,0.39)"/>
    <circle id="Ellipse_4-18" data-name="Ellipse 4" cx="2" cy="2" r="2" transform="translate(1335.25 260.091)" fill="rgba(58,62,144,0.39)"/>
    <ellipse id="Ellipse_4-19" data-name="Ellipse 4" cx="2.5" cy="2" rx="2.5" ry="2" transform="translate(1349.25 260.091)" fill="rgba(58,62,144,0.39)"/>
    <ellipse id="Ellipse_4-20" data-name="Ellipse 4" cx="2.5" cy="2" rx="2.5" ry="2" transform="translate(1364.25 260.091)" fill="rgba(58,62,144,0.39)"/>
    <ellipse id="Ellipse_4-21" data-name="Ellipse 4" cx="2.5" cy="2" rx="2.5" ry="2" transform="translate(1379.25 260.091)" fill="rgba(58,62,144,0.39)"/>
    <ellipse id="Ellipse_4-22" data-name="Ellipse 4" cx="2.5" cy="2" rx="2.5" ry="2" transform="translate(1394.25 260.091)" fill="rgba(58,62,144,0.39)"/>
    <circle id="Ellipse_4-23" data-name="Ellipse 4" cx="2" cy="2" r="2" transform="translate(1409.25 260.091)" fill="rgba(58,62,144,0.39)"/>
    <ellipse id="Ellipse_4-24" data-name="Ellipse 4" cx="2.5" cy="2" rx="2.5" ry="2" transform="translate(1424.25 260.091)" fill="rgba(58,62,144,0.39)"/>
    <ellipse id="Ellipse_4-25" data-name="Ellipse 4" cx="2.5" cy="2" rx="2.5" ry="2" transform="translate(1439.25 260.091)" fill="rgba(58,62,144,0.39)"/>
    <ellipse id="Ellipse_4-26" data-name="Ellipse 4" cx="3" cy="2" rx="3" ry="2" transform="translate(1453.25 260.091)" fill="rgba(58,62,144,0.39)"/>
    <ellipse id="Ellipse_4-27" data-name="Ellipse 4" cx="2.5" cy="2" rx="2.5" ry="2" transform="translate(1469.25 260.091)" fill="rgba(58,62,144,0.39)"/>
    <circle id="Ellipse_4-28" data-name="Ellipse 4" cx="2" cy="2" r="2" transform="translate(1484.25 260.091)" fill="rgba(58,62,144,0.39)"/>
    <circle id="Ellipse_4-29" data-name="Ellipse 4" cx="2" cy="2" r="2" transform="translate(1499.25 260.091)" fill="rgba(58,62,144,0.39)"/>
    <circle id="Ellipse_4-30" data-name="Ellipse 4" cx="2" cy="2" r="2" transform="translate(1515.25 260.091)" fill="rgba(58,62,144,0.39)"/>
    <ellipse id="Ellipse_4-31" data-name="Ellipse 4" cx="2.5" cy="2" rx="2.5" ry="2" transform="translate(1304.25 272.091)" fill="rgba(58,62,144,0.39)"/>
    <circle id="Ellipse_4-32" data-name="Ellipse 4" cx="2" cy="2" r="2" transform="translate(1320.25 272.091)" fill="rgba(58,62,144,0.39)"/>
    <circle id="Ellipse_4-33" data-name="Ellipse 4" cx="2" cy="2" r="2" transform="translate(1335.25 272.091)" fill="rgba(58,62,144,0.39)"/>
    <ellipse id="Ellipse_4-34" data-name="Ellipse 4" cx="2.5" cy="2" rx="2.5" ry="2" transform="translate(1349.25 272.091)" fill="rgba(58,62,144,0.39)"/>
    <ellipse id="Ellipse_4-35" data-name="Ellipse 4" cx="2.5" cy="2" rx="2.5" ry="2" transform="translate(1364.25 272.091)" fill="rgba(58,62,144,0.39)"/>
    <ellipse id="Ellipse_4-36" data-name="Ellipse 4" cx="2.5" cy="2" rx="2.5" ry="2" transform="translate(1379.25 272.091)" fill="rgba(58,62,144,0.39)"/>
    <ellipse id="Ellipse_4-37" data-name="Ellipse 4" cx="2.5" cy="2" rx="2.5" ry="2" transform="translate(1394.25 272.091)" fill="rgba(58,62,144,0.39)"/>
    <circle id="Ellipse_4-38" data-name="Ellipse 4" cx="2" cy="2" r="2" transform="translate(1409.25 272.091)" fill="rgba(58,62,144,0.39)"/>
    <ellipse id="Ellipse_4-39" data-name="Ellipse 4" cx="2.5" cy="2" rx="2.5" ry="2" transform="translate(1424.25 272.091)" fill="rgba(58,62,144,0.39)"/>
    <ellipse id="Ellipse_4-40" data-name="Ellipse 4" cx="2.5" cy="2" rx="2.5" ry="2" transform="translate(1439.25 272.091)" fill="rgba(58,62,144,0.39)"/>
    <ellipse id="Ellipse_4-41" data-name="Ellipse 4" cx="3" cy="2" rx="3" ry="2" transform="translate(1453.25 272.091)" fill="rgba(58,62,144,0.39)"/>
    <ellipse id="Ellipse_4-42" data-name="Ellipse 4" cx="2.5" cy="2" rx="2.5" ry="2" transform="translate(1469.25 272.091)" fill="rgba(58,62,144,0.39)"/>
    <circle id="Ellipse_4-43" data-name="Ellipse 4" cx="2" cy="2" r="2" transform="translate(1484.25 272.091)" fill="rgba(58,62,144,0.39)"/>
    <circle id="Ellipse_4-44" data-name="Ellipse 4" cx="2" cy="2" r="2" transform="translate(1499.25 272.091)" fill="rgba(58,62,144,0.39)"/>
    <circle id="Ellipse_4-45" data-name="Ellipse 4" cx="2" cy="2" r="2" transform="translate(1515.25 272.091)" fill="rgba(58,62,144,0.39)"/>
    <ellipse id="Ellipse_4-46" data-name="Ellipse 4" cx="2.5" cy="2" rx="2.5" ry="2" transform="translate(1304.25 285.091)" fill="rgba(58,62,144,0.39)"/>
    <circle id="Ellipse_4-47" data-name="Ellipse 4" cx="2" cy="2" r="2" transform="translate(1320.25 285.091)" fill="rgba(58,62,144,0.39)"/>
    <circle id="Ellipse_4-48" data-name="Ellipse 4" cx="2" cy="2" r="2" transform="translate(1335.25 285.091)" fill="rgba(58,62,144,0.39)"/>
    <ellipse id="Ellipse_4-49" data-name="Ellipse 4" cx="2.5" cy="2" rx="2.5" ry="2" transform="translate(1349.25 285.091)" fill="rgba(58,62,144,0.39)"/>
    <ellipse id="Ellipse_4-50" data-name="Ellipse 4" cx="2.5" cy="2" rx="2.5" ry="2" transform="translate(1364.25 285.091)" fill="rgba(58,62,144,0.39)"/>
    <ellipse id="Ellipse_4-51" data-name="Ellipse 4" cx="2.5" cy="2" rx="2.5" ry="2" transform="translate(1379.25 285.091)" fill="rgba(58,62,144,0.39)"/>
    <ellipse id="Ellipse_4-52" data-name="Ellipse 4" cx="2.5" cy="2" rx="2.5" ry="2" transform="translate(1394.25 285.091)" fill="rgba(58,62,144,0.39)"/>
    <circle id="Ellipse_4-53" data-name="Ellipse 4" cx="2" cy="2" r="2" transform="translate(1409.25 285.091)" fill="rgba(58,62,144,0.39)"/>
    <ellipse id="Ellipse_4-54" data-name="Ellipse 4" cx="2.5" cy="2" rx="2.5" ry="2" transform="translate(1424.25 285.091)" fill="rgba(58,62,144,0.39)"/>
    <ellipse id="Ellipse_4-55" data-name="Ellipse 4" cx="2.5" cy="2" rx="2.5" ry="2" transform="translate(1439.25 285.091)" fill="rgba(58,62,144,0.39)"/>
    <ellipse id="Ellipse_4-56" data-name="Ellipse 4" cx="3" cy="2" rx="3" ry="2" transform="translate(1453.25 285.091)" fill="rgba(58,62,144,0.39)"/>
    <ellipse id="Ellipse_4-57" data-name="Ellipse 4" cx="2.5" cy="2" rx="2.5" ry="2" transform="translate(1469.25 285.091)" fill="rgba(58,62,144,0.39)"/>
    <circle id="Ellipse_4-58" data-name="Ellipse 4" cx="2" cy="2" r="2" transform="translate(1484.25 285.091)" fill="rgba(58,62,144,0.39)"/>
    <circle id="Ellipse_4-59" data-name="Ellipse 4" cx="2" cy="2" r="2" transform="translate(1499.25 285.091)" fill="rgba(58,62,144,0.39)"/>
    <circle id="Ellipse_4-60" data-name="Ellipse 4" cx="2" cy="2" r="2" transform="translate(1515.25 285.091)" fill="rgba(58,62,144,0.39)"/>
    <circle id="Ellipse_4-61" data-name="Ellipse 4" cx="2.5" cy="2.5" r="2.5" transform="translate(1304.25 297.091)" fill="rgba(58,62,144,0.39)"/>
    <ellipse id="Ellipse_4-62" data-name="Ellipse 4" cx="2" cy="2.5" rx="2" ry="2.5" transform="translate(1320.25 297.091)" fill="rgba(58,62,144,0.39)"/>
    <ellipse id="Ellipse_4-63" data-name="Ellipse 4" cx="2" cy="2.5" rx="2" ry="2.5" transform="translate(1335.25 297.091)" fill="rgba(58,62,144,0.39)"/>
    <circle id="Ellipse_4-64" data-name="Ellipse 4" cx="2.5" cy="2.5" r="2.5" transform="translate(1349.25 297.091)" fill="rgba(58,62,144,0.39)"/>
    <circle id="Ellipse_4-65" data-name="Ellipse 4" cx="2.5" cy="2.5" r="2.5" transform="translate(1364.25 297.091)" fill="rgba(58,62,144,0.39)"/>
    <circle id="Ellipse_4-66" data-name="Ellipse 4" cx="2.5" cy="2.5" r="2.5" transform="translate(1379.25 297.091)" fill="rgba(58,62,144,0.39)"/>
    <circle id="Ellipse_4-67" data-name="Ellipse 4" cx="2.5" cy="2.5" r="2.5" transform="translate(1394.25 297.091)" fill="rgba(58,62,144,0.39)"/>
    <ellipse id="Ellipse_4-68" data-name="Ellipse 4" cx="2" cy="2.5" rx="2" ry="2.5" transform="translate(1409.25 297.091)" fill="rgba(58,62,144,0.39)"/>
    <circle id="Ellipse_4-69" data-name="Ellipse 4" cx="2.5" cy="2.5" r="2.5" transform="translate(1424.25 297.091)" fill="rgba(58,62,144,0.39)"/>
    <circle id="Ellipse_4-70" data-name="Ellipse 4" cx="2.5" cy="2.5" r="2.5" transform="translate(1439.25 297.091)" fill="rgba(58,62,144,0.39)"/>
    <ellipse id="Ellipse_4-71" data-name="Ellipse 4" cx="3" cy="2.5" rx="3" ry="2.5" transform="translate(1453.25 297.091)" fill="rgba(58,62,144,0.39)"/>
    <circle id="Ellipse_4-72" data-name="Ellipse 4" cx="2.5" cy="2.5" r="2.5" transform="translate(1469.25 297.091)" fill="rgba(58,62,144,0.39)"/>
    <ellipse id="Ellipse_4-73" data-name="Ellipse 4" cx="2" cy="2.5" rx="2" ry="2.5" transform="translate(1484.25 297.091)" fill="rgba(58,62,144,0.39)"/>
    <ellipse id="Ellipse_4-74" data-name="Ellipse 4" cx="2" cy="2.5" rx="2" ry="2.5" transform="translate(1499.25 297.091)" fill="rgba(58,62,144,0.39)"/>
    <ellipse id="Ellipse_4-75" data-name="Ellipse 4" cx="2" cy="2.5" rx="2" ry="2.5" transform="translate(1515.25 297.091)" fill="rgba(58,62,144,0.39)"/>
  </g>
</svg>
