<svg xmlns="http://www.w3.org/2000/svg" width="59.364" height="64.229" viewBox="0 0 59.364 64.229">
  <g id="Group_7" data-name="Group 7" transform="matrix(0.998, 0.07, -0.07, 0.998, -1072.036, -196.555)">
    <circle id="Ellipse_6" data-name="Ellipse 6" cx="3.667" cy="3.667" r="3.667" transform="translate(1098.213 129.464) rotate(-31)" fill="rgba(255,255,255,0.16)"/>
    <circle id="Ellipse_8" data-name="Ellipse 8" cx="3.667" cy="3.667" r="3.667" transform="translate(1106.235 134.805) rotate(-31)" fill="rgba(255,255,255,0.16)"/>
    <circle id="Ellipse_9" data-name="Ellipse 9" cx="3.667" cy="3.667" r="3.667" transform="translate(1115.908 140.224) rotate(-31)" fill="rgba(255,255,255,0.16)"/>
    <circle id="Ellipse_10" data-name="Ellipse 10" cx="3.667" cy="3.667" r="3.667" transform="translate(1126.131 144.777) rotate(-31)" fill="rgba(255,255,255,0.16)"/>
    <circle id="Ellipse_11" data-name="Ellipse 11" cx="3.667" cy="3.667" r="3.667" transform="translate(1134.783 150.274) rotate(-31)" fill="rgba(255,255,255,0.16)"/>
    <circle id="Ellipse_12" data-name="Ellipse 12" cx="3.667" cy="3.667" r="3.667" transform="translate(1125.352 155.941) rotate(-31)" fill="rgba(255,255,255,0.16)"/>
    <circle id="Ellipse_13" data-name="Ellipse 13" cx="3.667" cy="3.667" r="3.667" transform="translate(1115.529 161.843) rotate(-31)" fill="rgba(255,255,255,0.16)"/>
    <circle id="Ellipse_14" data-name="Ellipse 14" cx="3.667" cy="3.667" r="3.667" transform="translate(1106.099 167.51) rotate(-31)" fill="rgba(255,255,255,0.16)"/>
    <circle id="Ellipse_15" data-name="Ellipse 15" cx="3.667" cy="3.667" r="3.667" transform="translate(1087.211 136.075) rotate(-31)" fill="rgba(255,255,255,0.16)"/>
    <circle id="Ellipse_20" data-name="Ellipse 20" cx="3.667" cy="3.667" r="3.667" transform="translate(1086.589 146.61) rotate(-31)" fill="rgba(255,255,255,0.16)"/>
    <circle id="Ellipse_19" data-name="Ellipse 19" cx="3.667" cy="3.667" r="3.667" transform="translate(1086.281 158.56) rotate(-31)" fill="rgba(255,255,255,0.16)"/>
    <path id="Path_218" data-name="Path 218" d="M3.667,0A3.667,3.667,0,1,1,0,3.667,3.667,3.667,0,0,1,3.667,0Z" transform="translate(1086.445 168.623) rotate(-31)" fill="rgba(255,255,255,0.16)"/>
    <path id="Path_219" data-name="Path 219" d="M3.667,0A3.667,3.667,0,1,1,0,3.667,3.667,3.667,0,0,1,3.667,0Z" transform="translate(1087.238 178.842) rotate(-31)" fill="rgba(255,255,255,0.16)"/>
    <circle id="Ellipse_16" data-name="Ellipse 16" cx="3.667" cy="3.667" r="3.667" transform="translate(1097.275 173.412) rotate(-31)" fill="rgba(255,255,255,0.16)"/>
    <circle id="Ellipse_7" data-name="Ellipse 7" cx="3.667" cy="3.667" r="3.667" transform="translate(1088.147 124.282) rotate(-31)" fill="rgba(255,255,255,0.16)"/>
  </g>
</svg>
