<svg xmlns="http://www.w3.org/2000/svg" width="27.739" height="29.769" viewBox="0 0 27.739 29.769">
  <g id="Group_6" data-name="Group 6" transform="matrix(0.848, 0.53, -0.53, 0.848, -492.389, -1094.371)">
    <circle id="Ellipse_6" data-name="Ellipse 6" cx="1.72" cy="1.72" r="1.72" transform="translate(1021.343 658.516)" fill="rgba(255,255,255,0.16)"/>
    <circle id="Ellipse_8" data-name="Ellipse 8" cx="1.72" cy="1.72" r="1.72" transform="translate(1023.278 662.602)" fill="rgba(255,255,255,0.16)"/>
    <circle id="Ellipse_9" data-name="Ellipse 9" cx="1.72" cy="1.72" r="1.72" transform="translate(1025.859 667.117)" fill="rgba(255,255,255,0.16)"/>
    <circle id="Ellipse_10" data-name="Ellipse 10" cx="1.72" cy="1.72" r="1.72" transform="translate(1028.869 671.418)" fill="rgba(255,255,255,0.16)"/>
    <circle id="Ellipse_11" data-name="Ellipse 11" cx="1.72" cy="1.72" r="1.72" transform="translate(1031.02 675.719)" fill="rgba(255,255,255,0.16)"/>
    <circle id="Ellipse_12" data-name="Ellipse 12" cx="1.72" cy="1.72" r="1.72" transform="translate(1025.859 675.719)" fill="rgba(255,255,255,0.16)"/>
    <circle id="Ellipse_13" data-name="Ellipse 13" cx="1.72" cy="1.72" r="1.72" transform="translate(1020.483 675.719)" fill="rgba(255,255,255,0.16)"/>
    <circle id="Ellipse_14" data-name="Ellipse 14" cx="1.72" cy="1.72" r="1.72" transform="translate(1015.322 675.719)" fill="rgba(255,255,255,0.16)"/>
    <circle id="Ellipse_15" data-name="Ellipse 15" cx="1.72" cy="1.72" r="1.72" transform="translate(1015.322 658.516)" fill="rgba(255,255,255,0.16)"/>
    <circle id="Ellipse_20" data-name="Ellipse 20" cx="1.72" cy="1.72" r="1.72" transform="translate(1012.526 662.602)" fill="rgba(255,255,255,0.16)"/>
    <circle id="Ellipse_19" data-name="Ellipse 19" cx="1.72" cy="1.72" r="1.72" transform="translate(1009.516 667.332)" fill="rgba(255,255,255,0.16)"/>
    <circle id="Ellipse_18" data-name="Ellipse 18" cx="1.72" cy="1.72" r="1.72" transform="translate(1007.15 671.418)" fill="rgba(255,255,255,0.16)"/>
    <circle id="Ellipse_17" data-name="Ellipse 17" cx="1.72" cy="1.72" r="1.72" transform="translate(1005 675.719)" fill="rgba(255,255,255,0.16)"/>
    <circle id="Ellipse_16" data-name="Ellipse 16" cx="1.72" cy="1.72" r="1.72" transform="translate(1009.946 675.719)" fill="rgba(255,255,255,0.16)"/>
    <circle id="Ellipse_7" data-name="Ellipse 7" cx="1.72" cy="1.72" r="1.72" transform="translate(1018.547 654)" fill="rgba(255,255,255,0.16)"/>
  </g>
</svg>
