<svg xmlns="http://www.w3.org/2000/svg" width="29" height="29" viewBox="0 0 29 29">
  <g id="iconfinder_social-facebook-circle_771367" transform="translate(0 0.445)">
    <g id="Group_105" data-name="Group 105" transform="translate(0 -0.445)">
      <path id="Path_403" data-name="Path 403" d="M14.5,0A14.5,14.5,0,1,1,0,14.5,14.5,14.5,0,0,1,14.5,0Z" transform="translate(0 0)" fill="#8184af"/>
    </g>
    <path id="Path_400" data-name="Path 400" d="M46.241,41.895V33.809H43.355V30.926h2.886V28.265c0-2.684,1.585-4.265,3.979-4.265a18.126,18.126,0,0,1,2.371.161v3.015H50.663c-1.3,0-1.546.646-1.546,1.553v2.2h3.336l-.471,2.883H49.118v8.085Z" transform="translate(-33.657 -18.708)" fill="#141760"/>
  </g>
</svg>
