<svg xmlns="http://www.w3.org/2000/svg" width="138.5" height="45.208" viewBox="0 0 138.5 45.208">
  <g id="google-2015" transform="translate(0.003)">
    <path id="Path_370" data-name="Path 370" d="M17.055,0h1.232a16.806,16.806,0,0,1,11.5,4.857C28.674,6,27.535,7.088,26.443,8.226A12.569,12.569,0,0,0,5.343,15.8a12.936,12.936,0,0,0,2.812,9.992,12.438,12.438,0,0,0,9.063,4.462,12.064,12.064,0,0,0,9.016-3.091,9.842,9.842,0,0,0,3-6.414c-3.858,0-7.715.023-11.573,0V15.965H33.9c.837,5.136-.372,10.922-4.276,14.594A15.882,15.882,0,0,1,19.75,35,18.138,18.138,0,0,1,9.363,32.952a17.884,17.884,0,0,1-8.3-9.458A17.134,17.134,0,0,1,.951,11.9a17.692,17.692,0,0,1,6.39-8.482A18.244,18.244,0,0,1,17.055,0Z" transform="translate(0)" fill="rgba(176,177,214,0.75)"/>
    <path id="Path_371" data-name="Path 371" d="M474.4,5.2h4.973V38.384c-1.65,0-3.323.023-4.973-.023.023-11.038,0-22.1,0-33.161Z" transform="translate(-364.16 -3.992)" fill="rgba(176,177,214,0.75)"/>
    <path id="Path_372" data-name="Path 372" d="M163.4,54.019a11.677,11.677,0,0,1,8.923,1.906,10.915,10.915,0,0,1,4.392,6.971,11.237,11.237,0,0,1-11.8,13.478,11.309,11.309,0,0,1-8.459-4.531,11.616,11.616,0,0,1-1.534-10.55,11.028,11.028,0,0,1,8.482-7.274m.7,4.415A6.248,6.248,0,0,0,160.84,60.5a7.371,7.371,0,0,0,.372,9.6,6.188,6.188,0,0,0,5.531,1.72,6.258,6.258,0,0,0,4.322-3.184A7.35,7.35,0,0,0,169.81,59.9a6.27,6.27,0,0,0-5.717-1.464Z" transform="translate(-118.433 -41.308)" fill="rgba(176,177,214,0.75)"/>
    <path id="Path_373" data-name="Path 373" d="M269.421,54.013a11.3,11.3,0,0,1,11.061,18.2,11.494,11.494,0,0,1-18.01-.372,11.728,11.728,0,0,1-1.464-10.782,11.037,11.037,0,0,1,8.412-7.041m.7,4.415a6.354,6.354,0,0,0-3.253,2.045,7.381,7.381,0,0,0,.256,9.5,6.218,6.218,0,0,0,5.67,1.836,6.375,6.375,0,0,0,4.322-3.184,7.389,7.389,0,0,0-1.3-8.761,6.229,6.229,0,0,0-5.693-1.441Z" transform="translate(-199.825 -41.302)" fill="rgba(176,177,214,0.75)"/>
    <path id="Path_374" data-name="Path 374" d="M371.408,55.359a9.5,9.5,0,0,1,9.109-.7,8.681,8.681,0,0,1,2.37,1.743c.023-.627,0-1.278.023-1.929,1.557.023,3.114,0,4.694.023V75c-.023,3.091-.813,6.367-3.044,8.621-2.44,2.486-6.181,3.253-9.551,2.742a10.806,10.806,0,0,1-8.133-6.483c1.394-.674,2.858-1.208,4.3-1.836a6.391,6.391,0,0,0,4.531,3.9,6.023,6.023,0,0,0,5.81-1.859c1.441-1.766,1.441-4.183,1.371-6.344a8.25,8.25,0,0,1-3.788,2.324,10.213,10.213,0,0,1-9.272-2.394,11.439,11.439,0,0,1,1.58-18.312m4.81,2.974a6.114,6.114,0,0,0-3.648,2.115,7.414,7.414,0,0,0,.023,9.318,6.08,6.08,0,0,0,5.229,2.138,5.9,5.9,0,0,0,4.438-2.951,7.843,7.843,0,0,0-.79-8.784,5.719,5.719,0,0,0-5.252-1.836Z" transform="translate(-280.921 -41.3)" fill="rgba(176,177,214,0.75)"/>
    <path id="Path_375" data-name="Path 375" d="M509.861,56.5a10.488,10.488,0,0,1,10.666-2.115c3.393,1.278,5.554,4.508,6.646,7.831-5.043,2.091-10.062,4.16-15.1,6.251a5.992,5.992,0,0,0,3.207,3.021,6.509,6.509,0,0,0,6.135-.883,9.894,9.894,0,0,0,1.72-1.836c1.278.86,2.556,1.7,3.834,2.556A11.378,11.378,0,0,1,509,72.461a11.912,11.912,0,0,1,.86-15.965m2.487,4.3a6.635,6.635,0,0,0-1.092,3.9q5.054-2.091,10.109-4.206a4.18,4.18,0,0,0-3.277-2.3A5.938,5.938,0,0,0,512.348,60.8Z" transform="translate(-388.677 -41.252)" fill="rgba(176,177,214,0.75)"/>
  </g>
</svg>
