<svg xmlns="http://www.w3.org/2000/svg" xmlns:xlink="http://www.w3.org/1999/xlink" width="858.331" height="852.753" viewBox="0 0 858.331 852.753">
  <defs>
    <filter id="Path_1" x="352.432" y="18.795" width="440.934" height="578.702" filterUnits="userSpaceOnUse">
      <feOffset dy="3" input="SourceAlpha"/>
      <feGaussianBlur stdDeviation="9" result="blur"/>
      <feFlood flood-opacity="0.161"/>
      <feComposite operator="in" in2="blur"/>
      <feComposite in="SourceGraphic"/>
    </filter>
    <linearGradient id="linear-gradient" x1="-1.604" y1="6.792" x2="-1.604" y2="6.3" gradientUnits="objectBoundingBox">
      <stop offset="0.21" stop-color="#fff" stop-opacity="0"/>
      <stop offset="1" stop-color="#fff" stop-opacity="0.2"/>
    </linearGradient>
    <filter id="Path_8" x="0" y="268.18" width="856.606" height="584.573" filterUnits="userSpaceOnUse">
      <feOffset dx="3" dy="10" input="SourceAlpha"/>
      <feGaussianBlur stdDeviation="35.5" result="blur-2"/>
      <feFlood/>
      <feComposite operator="in" in2="blur-2"/>
      <feComposite in="SourceGraphic"/>
    </filter>
    <filter id="Path_9" x="77.01" y="328.425" width="712.617" height="440.498" filterUnits="userSpaceOnUse">
      <feOffset dy="3" input="SourceAlpha"/>
      <feGaussianBlur stdDeviation="11.5" result="blur-3"/>
      <feFlood flood-opacity="0.161"/>
      <feComposite operator="in" in2="blur-3"/>
      <feComposite in="SourceGraphic"/>
    </filter>
    <filter id="Path_166" x="560.383" y="84.203" width="297.948" height="452.154" filterUnits="userSpaceOnUse">
      <feOffset dy="3" input="SourceAlpha"/>
      <feGaussianBlur stdDeviation="24.5" result="blur-4"/>
      <feFlood flood-opacity="0.82"/>
      <feComposite operator="in" in2="blur-4"/>
      <feComposite in="SourceGraphic"/>
    </filter>
    <filter id="Path_204" x="50.053" y="120.362" width="292.765" height="259.291" filterUnits="userSpaceOnUse">
      <feOffset dy="3" input="SourceAlpha"/>
      <feGaussianBlur stdDeviation="17" result="blur-5"/>
      <feFlood flood-opacity="0.553"/>
      <feComposite operator="in" in2="blur-5"/>
      <feComposite in="SourceGraphic"/>
    </filter>
  </defs>
  <g id="Laptopsvg" transform="translate(94.401 -0.003)">
    <g id="Слой_1" data-name="Слой 1" transform="translate(0.04 0.003)">
      <g id="Laptop" transform="translate(9.059 42.795)">
        <g transform="matrix(1, 0, 0, 1, -103.5, -42.79)" filter="url(#Path_1)">
          <path id="Path_1-2" data-name="Path 1" d="M571.163,552.64,202.93,340.009c-5.169-2.945-9.35-10.985-9.35-17.862V37.26c0-6.891,4.182-10.057,9.35-7.068L571.163,242.823c5.169,2.945,9.351,10.985,9.351,17.862V545.572C580.572,552.464,576.39,555.63,571.163,552.64Z" transform="translate(185.85 13.73)" fill="#b1b4c4"/>
        </g>
        <path id="Path_2" data-name="Path 2" d="M451.33,391.265l4.079-2.356-1.767-12.089Z" transform="translate(204.143 135.255)" fill="#b1b4c4"/>
        <path id="Path_3" data-name="Path 3" d="M193.13,31.747l4.02-2.327,5.772,3.3s-6.155.928-6.3.9S193.13,31.747,193.13,31.747Z" transform="translate(82.14 -28.897)" fill="#b1b4c4"/>
        <path id="Path_4" data-name="Path 4" d="M568.936,554.01,200.645,341.32c-5.169-2.945-9.365-10.985-9.365-17.876V38.63c0-6.891,4.2-10.057,9.365-7.068L568.936,244.193c5.169,2.945,9.351,10.985,9.351,17.876V546.883C578.287,553.76,574.105,556.956,568.936,554.01Z" transform="translate(81.265 -28.418)" fill="#e4e7f2"/>
        <path id="Path_5" data-name="Path 5" d="M568.5,554.223,200.205,341.591c-5.169-2.945-9.365-10.985-9.365-17.876V38.827c0-6.877,4.2-10.043,9.365-7.068L568.5,244.39c5.154,2.945,9.351,10.985,9.351,17.876V547.154C577.847,554.046,573.65,557.212,568.5,554.223Z" transform="translate(81.058 -28.321)" fill="#d6d8e5"/>
        <path id="Path_6" data-name="Path 6" d="M571.288,534.914,194,317.114l.221-279.086c0-2.857,2-4.02,4.418-2.592L566.93,248.067a9.9,9.9,0,0,1,4.417,7.76Z" transform="translate(82.551 -26.343)" fill="#fff"/>
        <path id="Path_7" data-name="Path 7" d="M571.171,534.928,194,317.128l.118-279.1c0-2.857,2-4.02,4.418-2.592L566.827,248.067a9.91,9.91,0,0,1,4.417,7.76Z" transform="translate(82.551 -26.343)" opacity="0.5" fill="url(#linear-gradient)"/>
        <g transform="matrix(1, 0, 0, 1, -103.5, -42.79)" filter="url(#Path_8)">
          <path id="Path_8-2" data-name="Path 8" d="M377.97,617.217,9.679,404.586c-5.169-2.945-4.521-8.187,1.473-11.633L257.872,250.5c5.89-3.431,14.99-3.814,20.144-.825L646.322,462.309c5.154,2.945,4.506,8.187-1.472,11.633L398.114,616.393C392.151,619.824,383.124,620.206,377.97,617.217Z" transform="translate(97.31 117.02)" fill="#d6d8e5" opacity="0.4"/>
        </g>
        <g transform="matrix(1, 0, 0, 1, -103.5, -42.79)" filter="url(#Path_9)">
          <path id="Path_9-2" data-name="Path 9" d="M383.44,613.913,15.119,401.355c-5.169-2.945-4.521-8.187,1.473-11.633l246.72-142.437c5.89-3.446,14.99-3.829,20.159-.839L651.762,459.078c5.169,2.945,4.521,8.187-1.473,11.633l-74.518,43.008L403.6,613.089C397.635,616.52,388.608,616.9,383.44,613.913Z" transform="translate(99.88 115.49)" fill="#b1b4c4"/>
        </g>
        <path id="Path_10" data-name="Path 10" d="M11.65,349.92v-6.95l7.8,3.269Z" transform="translate(-3.613 119.26)" fill="#b1b4c4"/>
        <path id="Path_11" data-name="Path 11" d="M450.572,395.858V389.07l-5.772,1.988,3.829,5.625Z" transform="translate(201.058 141.043)" fill="#b1b4c4"/>
        <path id="Path_12" data-name="Path 12" d="M383.44,609.959,15.119,397.357c-5.169-2.945-4.521-8.187,1.473-11.633l246.72-142.451c5.89-3.446,14.99-3.814,20.159-.825L651.762,455.08c5.169,2.945,4.521,8.187-1.473,11.633L403.6,609.12C397.635,612.566,388.608,612.949,383.44,609.959Z" transform="translate(-3.621 70.807)" fill="#e4e7f2"/>
        <path id="Path_13" data-name="Path 13" d="M383.44,609.36,15.119,396.728c-5.169-2.945-4.521-8.2,1.473-11.633l246.72-142.451c5.89-3.446,14.99-3.814,20.159-.839L651.762,454.451c5.169,2.945,4.521,8.187-1.473,11.633L403.6,608.52C397.635,611.966,388.608,612.334,383.44,609.36Z" transform="translate(-3.621 70.509)" fill="#d6d8e5"/>
        <path id="Path_14" data-name="Path 14" d="M183.723,281.825l-17.14-9.9c-1.473-.81-1.222-2.224.383-3.151l16.374-9.454a6.052,6.052,0,0,1,5.448-.221l17.155,9.9c1.4.81,1.222,2.224-.4,3.151l-16.36,9.454a6.082,6.082,0,0,1-5.463.221Z" transform="translate(69.135 79.376)" fill="rgba(44,44,54,0.84)"/>
        <path id="Path_15" data-name="Path 15" d="M200.208,291.345l-17.155-9.91c-1.4-.8-1.222-2.209.4-3.151l16.36-9.439a6.081,6.081,0,0,1,5.463-.221l17.14,9.9c1.473.81,1.222,2.224-.383,3.151l-16.374,9.439a6.008,6.008,0,0,1-5.448.236Z" transform="translate(76.932 83.874)" fill="rgba(44,44,54,0.84)"/>
        <path id="Path_16" data-name="Path 16" d="M216.883,300.98l-17.14-9.91c-1.473-.81-1.222-2.223.383-3.151l16.374-9.439a6.008,6.008,0,0,1,5.448-.236l17.155,9.91c1.473.8,1.222,2.209-.4,3.151l-16.36,9.439A6.141,6.141,0,0,1,216.883,300.98Z" transform="translate(84.804 88.42)" fill="rgba(44,44,54,0.84)"/>
        <path id="Path_17" data-name="Path 17" d="M233.178,310.375l-17.155-9.9c-1.4-.81-1.222-2.224.4-3.151l16.36-9.454a6.082,6.082,0,0,1,5.463-.221l17.155,9.9c1.4.81,1.222,2.223-.4,3.151l-16.36,9.454a6.081,6.081,0,0,1-5.463.221Z" transform="translate(92.511 92.866)" fill="rgba(44,44,54,0.84)"/>
        <path id="Path_18" data-name="Path 18" d="M249.677,319.9,232.522,310c-1.472-.81-1.222-2.223.4-3.151l16.36-9.454a6.082,6.082,0,0,1,5.463-.221l17.14,9.9c1.4.81,1.222,2.224-.4,3.151l-16.36,9.454A6.052,6.052,0,0,1,249.677,319.9Z" transform="translate(100.293 97.364)" fill="rgba(44,44,54,0.84)"/>
        <path id="Path_19" data-name="Path 19" d="M266.145,329.465,249,319.57c-1.4-.81-1.237-2.224.383-3.151l16.36-9.454a6.082,6.082,0,0,1,5.463-.221l17.155,9.9c1.4.81,1.222,2.224-.4,3.151l-16.36,9.454A6.081,6.081,0,0,1,266.145,329.465Z" transform="translate(108.093 101.886)" fill="rgba(44,44,54,0.84)"/>
        <path id="Path_20" data-name="Path 20" d="M282.638,338.935l-17.155-9.9c-1.4-.81-1.222-2.224.4-3.151l16.36-9.454a6.081,6.081,0,0,1,5.463-.221l17.14,9.9c1.4.81,1.222,2.224-.383,3.151L288.086,338.7a6.008,6.008,0,0,1-5.448.236Z" transform="translate(115.882 106.361)" fill="rgba(44,44,54,0.84)"/>
        <path id="Path_21" data-name="Path 21" d="M299.113,348.469l-17.14-9.91c-1.4-.81-1.222-2.209.383-3.151l16.374-9.439a6.008,6.008,0,0,1,5.448-.236l17.155,9.91c1.473.81,1.222,2.209-.4,3.151l-16.389,9.424a6.037,6.037,0,0,1-5.434.25Z" transform="translate(123.673 110.86)" fill="rgba(44,44,54,0.84)"/>
        <path id="Path_22" data-name="Path 22" d="M315.608,357.965l-17.155-9.9c-1.4-.81-1.222-2.223.4-3.151l16.36-9.439a6.037,6.037,0,0,1,5.463-.236l17.14,9.91c1.4.8,1.222,2.209-.383,3.151l-16.36,9.439a6.082,6.082,0,0,1-5.463.221Z" transform="translate(131.461 115.354)" fill="rgba(44,44,54,0.84)"/>
        <path id="Path_23" data-name="Path 23" d="M332.083,367.456l-17.14-9.9c-1.4-.81-1.222-2.224.383-3.151l16.345-9.424a6.052,6.052,0,0,1,5.448-.221l17.155,9.9c1.4.81,1.222,2.224-.4,3.151l-16.316,9.454A6.081,6.081,0,0,1,332.083,367.456Z" transform="translate(139.252 119.852)" fill="rgba(44,44,54,0.84)"/>
        <path id="Path_24" data-name="Path 24" d="M348.578,377.005l-17.155-9.9c-1.4-.81-1.222-2.224.4-3.151l16.36-9.454a6.082,6.082,0,0,1,5.463-.221l17.155,9.9c1.4.81,1.222,2.224-.4,3.151l-16.36,9.454a6.081,6.081,0,0,1-5.463.221Z" transform="translate(147.039 124.35)" fill="rgba(44,44,54,0.84)"/>
        <path id="Path_25" data-name="Path 25" d="M365.068,386.525l-17.155-9.9c-1.4-.81-1.222-2.224.4-3.151l16.374-9.454a6.082,6.082,0,0,1,5.463-.221l17.14,9.9c1.473.81,1.222,2.224-.4,3.151L370.575,386.3A6.052,6.052,0,0,1,365.068,386.525Z" transform="translate(154.831 128.848)" fill="rgba(44,44,54,0.84)"/>
        <path id="Path_26" data-name="Path 26" d="M381.554,396.048l-17.14-9.91c-1.473-.81-1.237-2.209.383-3.151l16.36-9.439a6.081,6.081,0,0,1,5.463-.236l17.155,9.91c1.4.81,1.222,2.209-.4,3.151l-16.36,9.439a6.038,6.038,0,0,1-5.463.236Z" transform="translate(162.611 133.344)" fill="rgba(44,44,54,0.84)"/>
        <path id="Path_27" data-name="Path 27" d="M409.729,412.314l-28.847-16.654c-1.4-.81-1.222-2.224.4-3.151l16.419-9.439a6.037,6.037,0,0,1,5.463-.236l28.773,16.7c1.4.81,1.222,2.224-.383,3.151l-16.374,9.454A6.052,6.052,0,0,1,409.729,412.314Z" transform="translate(170.41 137.841)" fill="rgba(44,44,54,0.84)"/>
        <path id="Path_28" data-name="Path 28" d="M192.207,305.156l-17.155-9.866c-1.473-.81-1.222-2.224.4-3.151l16.36-9.454a6.081,6.081,0,0,1,5.463-.221l17.14,9.881c1.4.81,1.222,2.224-.383,3.151l-16.374,9.454a6.052,6.052,0,0,1-5.448.206Z" transform="translate(73.138 90.414)" fill="rgba(44,44,54,0.84)"/>
        <path id="Path_29" data-name="Path 29" d="M208.7,314.686l-17.14-9.9c-1.4-.81-1.222-2.224.383-3.151l16.374-9.395a6.052,6.052,0,0,1,5.448-.221l17.17,9.836c1.4.81,1.222,2.224-.4,3.151l-16.36,9.454a6.082,6.082,0,0,1-5.478.221Z" transform="translate(80.953 94.931)" fill="rgba(44,44,54,0.84)"/>
        <path id="Path_30" data-name="Path 30" d="M225.237,324.235l-17.155-9.9c-1.473-.81-1.222-2.223.4-3.151l16.36-9.454a6.081,6.081,0,0,1,5.463-.221l17.14,9.9c1.4.81,1.222,2.223-.383,3.151l-16.374,9.454a6.052,6.052,0,0,1-5.448.221Z" transform="translate(88.745 99.415)" fill="rgba(44,44,54,0.84)"/>
        <path id="Path_31" data-name="Path 31" d="M241.738,333.792l-17.155-9.91c-1.4-.8-1.222-2.209.4-3.151l16.36-9.483a6.081,6.081,0,0,1,5.463-.236l17.125,9.954c1.4.81,1.222,2.209-.4,3.151l-16.36,9.439A6.037,6.037,0,0,1,241.738,333.792Z" transform="translate(96.556 103.906)" fill="rgba(44,44,54,0.84)"/>
        <path id="Path_32" data-name="Path 32" d="M258.113,343.258l-17.14-9.969c-1.4-.81-1.222-2.209.383-3.151L257.73,320.7a6.008,6.008,0,0,1,5.448-.236l17.155,9.91c1.473.8,1.222,2.209-.4,3.151l-16.389,9.5a6.082,6.082,0,0,1-5.434.236Z" transform="translate(104.3 108.37)" fill="rgba(44,44,54,0.84)"/>
        <path id="Path_33" data-name="Path 33" d="M274.637,352.775l-17.155-9.9c-1.4-.81-1.222-2.224.4-3.151l16.36-9.483a6.082,6.082,0,0,1,5.463-.221l17.14,9.9c1.4.81,1.222,2.224-.383,3.151l-16.374,9.454A6.052,6.052,0,0,1,274.637,352.775Z" transform="translate(112.102 112.887)" fill="rgba(44,44,54,0.84)"/>
        <path id="Path_34" data-name="Path 34" d="M291.148,362.295l-17.155-9.9c-1.4-.81-1.222-2.224.4-3.151l16.36-9.439a6.037,6.037,0,0,1,5.463-.236l17.155,9.91c1.4.8,1.222,2.209-.4,3.151l-16.36,9.439A6.081,6.081,0,0,1,291.148,362.295Z" transform="translate(119.903 117.4)" fill="rgba(44,44,54,0.84)"/>
        <path id="Path_35" data-name="Path 35" d="M307.653,371.835l-17.14-9.9c-1.4-.81-1.222-2.224.4-3.151l16.36-9.454a6.052,6.052,0,0,1,5.448-.221l17.155,9.9c1.4.81,1.222,2.224-.4,3.151l-16.36,9.454A6.082,6.082,0,0,1,307.653,371.835Z" transform="translate(127.709 121.907)" fill="rgba(44,44,54,0.84)"/>
        <path id="Path_36" data-name="Path 36" d="M324.187,381.365l-17.155-9.9c-1.473-.81-1.222-2.224.4-3.151l16.36-9.454a6.081,6.081,0,0,1,5.463-.221l17.14,9.9c1.4.81,1.237,2.223-.383,3.151l-16.36,9.454a6.081,6.081,0,0,1-5.463.221Z" transform="translate(135.5 126.41)" fill="rgba(44,44,54,0.84)"/>
        <path id="Path_37" data-name="Path 37" d="M340.683,390.906,323.543,381c-1.4-.8-1.222-2.209.383-3.151l7.7-4.436,8.679-5a6.1,6.1,0,0,1,5.448-.236l17.2,9.91c1.4.81,1.222,2.224-.4,3.151l-16.36,9.439A6.037,6.037,0,0,1,340.683,390.906Z" transform="translate(143.316 130.917)" fill="rgba(44,44,54,0.84)"/>
        <path id="Path_38" data-name="Path 38" d="M357.207,400.465l-17.155-9.9c-1.4-.81-1.222-2.223.4-3.151l16.36-9.454a6.081,6.081,0,0,1,5.463-.221l17.14,9.9c1.4.81,1.222,2.224-.383,3.151l-16.374,9.454a6.052,6.052,0,0,1-5.448.221Z" transform="translate(151.117 135.435)" fill="rgba(44,44,54,0.84)"/>
        <path id="Path_39" data-name="Path 39" d="M373.715,409.978l-17.14-9.91c-1.4-.81-1.237-2.209.383-3.151l16.36-9.439a6.081,6.081,0,0,1,5.463-.236l17.155,9.91c1.4.81,1.222,2.209-.4,3.151l-16.36,9.439a6.037,6.037,0,0,1-5.463.236Z" transform="translate(158.921 139.926)" fill="rgba(44,44,54,0.84)"/>
        <path id="Path_40" data-name="Path 40" d="M179.425,297.8l-28.832-16.654c-1.4-.81-1.222-2.209.383-3.151l16.374-9.439a6.008,6.008,0,0,1,5.448-.236L201.7,284.978c1.4.81,1.222,2.224-.4,3.151l-16.419,9.424A6.082,6.082,0,0,1,179.425,297.8Z" transform="translate(61.594 83.733)" fill="rgba(44,44,54,0.84)"/>
        <path id="Path_41" data-name="Path 41" d="M417.855,406.662l-17.14-9.9a5.6,5.6,0,0,0-5.095,0l-17.287,9.984c-1.473.81-1.473,2.12,0,2.945l1.369.8c1.3.736,1.281,1.958,0,2.709l-18.348,10.543c-1.473.825-1.473,2.135,0,2.945l10.911,6.3a5.61,5.61,0,0,0,5.08,0l17.111-9.866,3.534-2.047,2.547-1.473,2.562-1.473,14.725-8.5C419.254,408.783,419.254,407.472,417.855,406.662Z" transform="translate(161.107 144.39)" fill="rgba(44,44,54,0.84)"/>
        <path id="Path_42" data-name="Path 42" d="M119.873,318.775l-17.14-9.9c-1.473-.81-1.222-2.224.383-3.151l16.374-9.483a6.052,6.052,0,0,1,5.448-.221l17.155,9.9c1.4.81,1.222,2.224-.4,3.151l-16.36,9.454A6.082,6.082,0,0,1,119.873,318.775Z" transform="translate(38.965 96.821)" fill="rgba(44,44,54,0.84)"/>
        <path id="Path_43" data-name="Path 43" d="M136.313,328.255l-17.14-9.9c-1.473-.81-1.222-2.223.383-3.151l16.374-9.454a6.052,6.052,0,0,1,5.448-.221l17.155,9.9c1.4.81,1.222,2.224-.4,3.151l-16.36,9.454A6.081,6.081,0,0,1,136.313,328.255Z" transform="translate(46.733 101.315)" fill="rgba(44,44,54,0.84)"/>
        <path id="Path_44" data-name="Path 44" d="M152.754,337.745l-17.14-9.9c-1.473-.81-1.237-2.223.383-3.151l16.36-9.454a6.082,6.082,0,0,1,5.463-.221l17.111,9.9c1.4.81,1.222,2.224-.4,3.151l-16.36,9.454a6.081,6.081,0,0,1-5.419.221Z" transform="translate(54.5 105.799)" fill="rgba(44,44,54,0.84)"/>
        <path id="Path_45" data-name="Path 45" d="M292.757,418.578l-17.155-9.91c-1.473-.8-1.222-2.209.4-3.151l16.36-9.439a6.082,6.082,0,0,1,5.463-.236l17.111,9.91c1.473.81,1.222,2.209-.4,3.151l-16.33,9.512A6.008,6.008,0,0,1,292.757,418.578Z" transform="translate(120.649 143.99)" fill="rgba(44,44,54,0.84)"/>
        <path id="Path_46" data-name="Path 46" d="M309.183,428.065l-17.14-9.9c-1.473-.81-1.222-2.223.383-3.151l16.374-9.454a6.052,6.052,0,0,1,5.448-.221l17.155,9.9c1.472.81,1.222,2.224-.4,3.151l-16.36,9.454a6.082,6.082,0,0,1-5.463.221Z" transform="translate(128.417 148.477)" fill="rgba(44,44,54,0.84)"/>
        <path id="Path_47" data-name="Path 47" d="M325.613,437.555l-17.14-9.9c-1.4-.81-1.222-2.224.383-3.151l16.374-9.454a6.052,6.052,0,0,1,5.448-.221l17.155,9.9c1.473.81,1.222,2.223-.4,3.151l-16.36,9.454a6.081,6.081,0,0,1-5.463.221Z" transform="translate(136.195 152.961)" fill="rgba(44,44,54,0.84)"/>
        <path id="Path_48" data-name="Path 48" d="M342.053,447.045l-17.14-9.9c-1.4-.81-1.222-2.223.383-3.151l16.389-9.453a6.052,6.052,0,0,1,5.448-.221l17.155,9.9c1.472.81,1.222,2.224-.4,3.151l-16.316,9.454A6.082,6.082,0,0,1,342.053,447.045Z" transform="translate(143.963 157.445)" fill="rgba(44,44,54,0.84)"/>
        <path id="Path_49" data-name="Path 49" d="M175.416,350.843l-23.384-13.5c-1.4-.81-1.222-2.224.4-3.151l16.36-9.454a6.081,6.081,0,0,1,5.463-.221l23.384,13.5c1.473.81,1.222,2.209-.4,3.151l-16.36,9.439a6.037,6.037,0,0,1-5.463.236Z" transform="translate(62.275 110.283)" fill="rgba(44,44,54,0.84)"/>
        <path id="Path_50" data-name="Path 50" d="M278.316,410.243l-23.384-13.5c-1.473-.81-1.222-2.224.383-3.151l16.374-9.453a6.052,6.052,0,0,1,5.448-.221l23.384,13.5c1.4.81,1.222,2.209-.383,3.151l-16.374,9.439a6.008,6.008,0,0,1-5.448.236Z" transform="translate(110.882 138.351)" fill="rgba(44,44,54,0.84)"/>
        <path id="Path_51" data-name="Path 51" d="M286.7,415.082,172.713,349.29c-1.4-.81-1.222-2.224.383-3.151l16.374-9.454a6.052,6.052,0,0,1,5.448-.221l114,65.836c1.4.81,1.222,2.224-.4,3.151l-16.36,9.454a6.082,6.082,0,0,1-5.463.177Z" transform="translate(72.046 115.93)" fill="rgba(44,44,54,0.84)"/>
        <path id="Path_52" data-name="Path 52" d="M180.693,316.985l-17.14-9.9c-1.4-.81-1.222-2.224.4-3.151l16.36-9.454a6.052,6.052,0,0,1,5.448-.221l17.184,9.9c1.473.81,1.222,2.224-.4,3.151l-16.36,9.454A6.081,6.081,0,0,1,180.693,316.985Z" transform="translate(67.718 95.99)" fill="rgba(44,44,54,0.84)"/>
        <path id="Path_53" data-name="Path 53" d="M197.163,326.468l-17.14-9.91c-1.4-.81-1.222-2.209.383-3.151l16.374-9.439a6.052,6.052,0,0,1,5.448-.236l17.155,9.91c1.473.81,1.222,2.209-.4,3.151l-16.36,9.439a6.037,6.037,0,0,1-5.463.236Z" transform="translate(75.5 100.466)" fill="rgba(44,44,54,0.84)"/>
        <path id="Path_54" data-name="Path 54" d="M213.647,336l-17.155-9.9c-1.473-.81-1.222-2.224.4-3.151l16.36-9.454a6.082,6.082,0,0,1,5.463-.221l17.14,9.9c1.473.81,1.237,2.224-.383,3.151l-16.36,9.454A6.082,6.082,0,0,1,213.647,336Z" transform="translate(83.268 104.972)" fill="rgba(44,44,54,0.84)"/>
        <path id="Path_55" data-name="Path 55" d="M230.117,345.446l-17.155-9.9c-1.473-.81-1.222-2.224.4-3.151l16.315-9.395a6.082,6.082,0,0,1,5.463-.221l17.14,9.9c1.473.81,1.222,2.224-.383,3.151l-16.33,9.454A6.052,6.052,0,0,1,230.117,345.446Z" transform="translate(91.051 109.466)" fill="rgba(44,44,54,0.84)"/>
        <path id="Path_56" data-name="Path 56" d="M246.573,355.015l-17.14-9.9c-1.473-.81-1.222-2.224.383-3.151l16.374-9.454a6.052,6.052,0,0,1,5.448-.221l17.155,9.9c1.473.81,1.222,2.224-.4,3.151l-16.36,9.454A6.081,6.081,0,0,1,246.573,355.015Z" transform="translate(98.833 113.959)" fill="rgba(44,44,54,0.84)"/>
        <path id="Path_57" data-name="Path 57" d="M263.044,364.53l-17.14-9.91c-1.473-.81-1.237-2.209.383-3.151l16.419-9.439a6.037,6.037,0,0,1,5.463-.236l17.155,9.91c1.4.81,1.222,2.209-.4,3.151l-16.36,9.439a6.038,6.038,0,0,1-5.522.235Z" transform="translate(106.613 118.449)" fill="rgba(44,44,54,0.84)"/>
        <path id="Path_58" data-name="Path 58" d="M279.508,374.025l-17.155-9.9c-1.4-.81-1.222-2.224.4-3.151l16.36-9.454s3.71-1.016,5.463-.221l17.14,9.9c1.473.81,1.222,2.223-.383,3.151L284.956,373.8a6.052,6.052,0,0,1-5.448.221Z" transform="translate(114.403 122.942)" fill="rgba(44,44,54,0.84)"/>
        <path id="Path_59" data-name="Path 59" d="M295.978,383.535l-17.155-9.9c-1.4-.81-1.222-2.224.4-3.151l16.36-9.454a6.082,6.082,0,0,1,5.463-.221l17.14,9.9c1.4.81,1.222,2.223-.4,3.151l-16.36,9.454a6.052,6.052,0,0,1-5.448.221Z" transform="translate(122.185 127.435)" fill="rgba(44,44,54,0.84)"/>
        <path id="Path_60" data-name="Path 60" d="M312.429,393.045l-17.125-9.9c-1.4-.81-1.222-2.224.383-3.151l16.374-9.454a6.052,6.052,0,0,1,5.448-.221l17.155,9.9c1.4.81,1.222,2.224-.4,3.151l-16.36,9.454a6.082,6.082,0,0,1-5.478.221Z" transform="translate(129.972 131.929)" fill="rgba(44,44,54,0.84)"/>
        <path id="Path_61" data-name="Path 61" d="M328.908,402.559l-17.155-9.91c-1.4-.81-1.222-2.209.4-3.151l16.36-9.439a6.037,6.037,0,0,1,5.463-.236l17.155,9.91c1.4.8,1.222,2.209-.4,3.151l-16.36,9.439A6.081,6.081,0,0,1,328.908,402.559Z" transform="translate(137.745 136.418)" fill="rgba(44,44,54,0.84)"/>
        <path id="Path_62" data-name="Path 62" d="M345.378,412.055l-17.155-9.9c-1.4-.81-1.222-2.224.4-3.151l16.36-9.454a6.081,6.081,0,0,1,5.463-.221l17.14,9.9c1.473.81,1.222,2.224-.383,3.151l-16.374,9.454a6.052,6.052,0,0,1-5.448.221Z" transform="translate(145.527 140.912)" fill="rgba(44,44,54,0.84)"/>
        <path id="Path_63" data-name="Path 63" d="M361.8,421.565l-13.049-7.534-4.091-2.362c-1.4-.81-1.222-2.223.4-3.151l16.36-9.454a6.052,6.052,0,0,1,5.448-.221l17.155,9.9c1.4.81,1.222,2.224-.4,3.151l-16.315,9.527a6.082,6.082,0,0,1-5.507.147Z" transform="translate(153.296 145.405)" fill="rgba(44,44,54,0.84)"/>
        <path id="Path_64" data-name="Path 64" d="M170.125,310.858,134.652,290.39c-1.473-.81-1.222-2.223.4-3.151l16.36-9.454a6.081,6.081,0,0,1,5.463-.221l35.458,20.468c1.473.81,1.222,2.224-.383,3.151l-16.374,9.454a6.052,6.052,0,0,1-5.448.221Z" transform="translate(54.048 88.098)" fill="rgba(44,44,54,0.84)"/>
        <path id="Path_65" data-name="Path 65" d="M156.545,321.455l-17.14-9.866c-1.4-.81-1.237-2.209.383-3.151L156.147,299a6.037,6.037,0,0,1,5.463-.236l17.155,9.91c1.4.8,1.222,2.209-.4,3.151l-16.36,9.439A6.082,6.082,0,0,1,156.545,321.455Z" transform="translate(56.305 98.116)" fill="rgba(44,44,54,0.84)"/>
        <path id="Path_66" data-name="Path 66" d="M173.018,331l-17.155-9.9c-1.4-.81-1.222-2.224.4-3.151l16.36-9.454a6.081,6.081,0,0,1,5.463-.221l17.14,9.9c1.473.81,1.222,2.224-.383,3.151l-16.374,9.454a6.052,6.052,0,0,1-5.448.221Z" transform="translate(64.084 102.609)" fill="rgba(44,44,54,0.84)"/>
        <path id="Path_67" data-name="Path 67" d="M189.5,340.449,172.312,330.6c-1.473-.81-1.222-2.209.4-3.151l16.36-9.439a6.081,6.081,0,0,1,5.463-.236l17.155,9.91c1.473.81,1.222,2.209-.4,3.151l-16.36,9.439a6.038,6.038,0,0,1-5.434.177Z" transform="translate(71.843 107.1)" fill="rgba(44,44,54,0.84)"/>
        <path id="Path_68" data-name="Path 68" d="M205.943,350.005l-17.14-9.9c-1.473-.81-1.222-2.224.4-3.151l16.36-9.454a6.052,6.052,0,0,1,5.448-.221l17.155,9.9c1.4.81,1.222,2.224-.4,3.151l-16.36,9.454a6.081,6.081,0,0,1-5.463.221Z" transform="translate(79.635 111.592)" fill="rgba(44,44,54,0.84)"/>
        <path id="Path_69" data-name="Path 69" d="M222.384,359.515l-17.081-9.9c-1.4-.81-1.222-2.224.4-3.151l16.36-9.454a6.081,6.081,0,0,1,5.463-.221l17.14,9.9c1.4.81,1.237,2.224-.383,3.151l-16.36,9.439a6.037,6.037,0,0,1-5.537.236Z" transform="translate(87.446 116.086)" fill="rgba(44,44,54,0.84)"/>
        <path id="Path_70" data-name="Path 70" d="M238.863,369.015l-17.14-9.9c-1.4-.81-1.222-2.223.383-3.151l16.374-9.454a6.052,6.052,0,0,1,5.448-.221l17.155,9.9c1.4.81,1.222,2.224-.4,3.151l-16.36,9.454A6.081,6.081,0,0,1,238.863,369.015Z" transform="translate(95.204 120.575)" fill="rgba(44,44,54,0.84)"/>
        <path id="Path_71" data-name="Path 71" d="M255.338,378.525l-17.155-9.9c-1.4-.81-1.222-2.223.4-3.151l16.36-9.454a6.081,6.081,0,0,1,5.463-.221l17.14,9.9c1.4.81,1.222,2.223-.383,3.151L260.8,378.3A6.081,6.081,0,0,1,255.338,378.525Z" transform="translate(102.982 125.068)" fill="rgba(44,44,54,0.84)"/>
        <path id="Path_72" data-name="Path 72" d="M271.8,388.04l-17.14-9.91c-1.4-.81-1.222-2.209.383-3.151l16.374-9.439a6.008,6.008,0,0,1,5.448-.236l17.155,9.91c1.4.8,1.222,2.209-.4,3.151l-16.36,9.439A6.082,6.082,0,0,1,271.8,388.04Z" transform="translate(110.769 129.557)" fill="rgba(44,44,54,0.84)"/>
        <path id="Path_73" data-name="Path 73" d="M288.267,397.535l-17.155-9.9c-1.4-.81-1.222-2.224.4-3.151l16.36-9.454a6.082,6.082,0,0,1,5.463-.221l17.14,9.9c1.4.81,1.222,2.224-.383,3.151l-16.374,9.454a6.052,6.052,0,0,1-5.448.221Z" transform="translate(118.542 134.051)" fill="rgba(44,44,54,0.84)"/>
        <path id="Path_74" data-name="Path 74" d="M304.723,407.048l-17.14-9.91c-1.4-.8-1.222-2.209.383-3.151l16.374-9.439a6.052,6.052,0,0,1,5.448-.236l17.14,9.91c1.4.81,1.222,2.209-.4,3.151l-16.36,9.439a6.037,6.037,0,0,1-5.448.236Z" transform="translate(126.324 138.542)" fill="rgba(44,44,54,0.84)"/>
        <path id="Path_75" data-name="Path 75" d="M321.2,416.545l-17.155-9.9c-1.4-.81-1.222-2.224.4-3.151l16.36-9.454a6.082,6.082,0,0,1,5.463-.221l17.14,9.9c1.4.81,1.222,2.224-.383,3.151l-16.374,9.454a6.052,6.052,0,0,1-5.448.221Z" transform="translate(134.102 143.033)" fill="rgba(44,44,54,0.84)"/>
        <path id="Path_76" data-name="Path 76" d="M367.655,443.387,320.535,416.16c-1.4-.81-1.237-2.224.383-3.151l16.36-9.454a6.081,6.081,0,0,1,5.463-.221l47.121,27.227c1.4.8,1.222,2.209-.4,3.151l-16.36,9.439a6.081,6.081,0,0,1-5.448.236Z" transform="translate(141.892 147.527)" fill="rgba(44,44,54,0.84)"/>
        <path id="Path_77" data-name="Path 77" d="M142.1,313.142l-23.384-13.5c-1.473-.81-1.222-2.224.383-3.151l16.374-9.439a6.008,6.008,0,0,1,5.448-.236l23.384,13.5c1.4.81,1.222,2.224-.383,3.151l-16.345,9.454A6.052,6.052,0,0,1,142.1,313.142Z" transform="translate(46.516 92.47)" fill="rgba(44,44,54,0.84)"/>
        <path id="Path_78" data-name="Path 78" d="M527.516,459.691,183.182,260.9c-1.473-.8-1.222-2.209.4-3.151l8.187-4.712a6.052,6.052,0,0,1,5.448-.236l344.333,198.79c1.4.81,1.222,2.209-.4,3.151l-8.172,4.756A6.082,6.082,0,0,1,527.516,459.691Z" transform="translate(76.979 76.401)" fill="rgba(44,44,54,0.84)"/>
        <path id="Path_79" data-name="Path 79" d="M358.933,439.944a5.2,5.2,0,0,1-2.385,2.474l-94.742,54.7a11.677,11.677,0,0,1-10.5.427L89.33,404.059a3.622,3.622,0,0,1-1.59-1.635c-.589-1.473.236-3.107,2.385-4.344l94.756-54.719a11.677,11.677,0,0,1,10.5-.427l161.977,93.49A2.857,2.857,0,0,1,358.933,439.944Z" transform="translate(32.253 118.751)" fill="#b1b4c4"/>
        <path id="Path_80" data-name="Path 80" d="M358.873,439.337a5.2,5.2,0,0,1-2.385,2.474l-94.742,54.7a11.677,11.677,0,0,1-10.5.427L89.27,403.452a3.622,3.622,0,0,1-1.59-1.635,5.316,5.316,0,0,1,2.385-2.459l94.756-54.7a11.692,11.692,0,0,1,10.5-.442l161.977,93.5A3.55,3.55,0,0,1,358.873,439.337Z" transform="translate(32.313 119.358)" fill="#c3c6d1"/>
        <path id="Path_81" data-name="Path 81" d="M545.793,450.246,201.459,251.456A6.067,6.067,0,0,1,199,246.612v-4.049c0-1.87,1.134-2.724,2.533-1.914l344.333,198.79a6.037,6.037,0,0,1,2.533,4.83v4.049C548.325,450.2,547.191,451.056,545.793,450.246Z" transform="translate(84.913 70.767)" fill="rgba(44,44,54,0.84)"/>
        <path id="Path_82" data-name="Path 82" d="M249.391,259.455l-34.015-19.6c-4.256-2.459-7.716-9.071-7.716-14.725V188.656c0-5.684,3.46-8.29,7.716-5.89l34.015,19.658c4.27,2.459,7.716,9.071,7.716,14.725v36.474C257.048,259.308,253.6,261.914,249.391,259.455Z" transform="translate(89.005 43.14)" fill="#e9eaf2"/>
        <path id="Path_83" data-name="Path 83" d="M249.282,205.555l-33.956-19.6c-4.256-2.459-7.716-12.516-7.716-17.435V125.936c0-5.684,3.46-8.29,7.716-5.89l33.956,19.6c4.27,2.459,7.716,9.071,7.716,14.725v42.585C257,201.962,253.553,208.014,249.282,205.555Z" transform="translate(88.982 13.504)" fill="#e9eaf2"/>
        <path id="Path_84" data-name="Path 84" d="M228.531,168.352C221.625,164.361,216,154.613,216,146.632s5.625-11.235,12.531-7.245,12.546,13.739,12.546,21.72S235.452,172.342,228.531,168.352Zm0-25.254c-5.139-2.945-9.321-.545-9.321,5.389a20.615,20.615,0,0,0,9.321,16.2c5.154,2.945,9.336.56,9.336-5.375A20.615,20.615,0,0,0,228.531,143.1Z" transform="translate(92.946 22.258)" fill="rgba(16,20,83,0.49)"/>
        <path id="Path_85" data-name="Path 85" d="M228.674,159.816l-5.684-9.041V143.25l3.21,1.855v5.846l4.594,7.289Z" transform="translate(96.249 24.889)" fill="#7d80a4"/>
        <path id="Path_86" data-name="Path 86" d="M249.252,143.222l-33.956-19.6c-4.256-2.474-7.716-13.547-7.716-18.48v-39.2c0-4.918,3.46-6.921,7.716-4.418L249.252,81.14A17.022,17.022,0,0,1,256.968,94.5v39.213C256.968,138.583,253.523,145.681,249.252,143.222Z" transform="translate(88.967 -14.237)" fill="#e9eaf2"/>
        <path id="Path_87" data-name="Path 87" d="M228.3,88.3c-2.047-1.178-3.7-.221-3.7,2.15a8.158,8.158,0,0,0,3.7,6.405c2.047,1.178,3.711.221,3.711-2.135A8.231,8.231,0,0,0,228.3,88.3Zm9.881,1.473-2.945-1.708a2.415,2.415,0,0,1-.972-1.369l-.766-3.107a2.5,2.5,0,0,0-.987-1.369l-8.393-4.845c-.412-.236-.839-.133-.972.25l-.766,2.209a.633.633,0,0,1-.972.25l-2.945-1.708c-1.355-.8-2.459-.147-2.459,1.473v12.84a5.463,5.463,0,0,0,2.459,4.27l19.761,11.412c1.355.78,2.474.147,2.474-1.473V94.01a5.493,5.493,0,0,0-2.518-4.285ZM228.3,99.753a13.68,13.68,0,0,1-6.17-10.69c0-3.946,2.768-5.537,6.17-3.563a13.606,13.606,0,0,1,6.17,10.69c0,3.887-2.754,5.492-6.17,3.519Zm9.012-5.64a1.885,1.885,0,0,1-.854-1.473c0-.56.383-.78.854-.5a1.885,1.885,0,0,1,.869,1.473c0,.515-.383.736-.869.456Z" transform="translate(92.946 -6.299)" fill="#7d80a4"/>
        <path id="Path_88" data-name="Path 88" d="M238.316,216.6c0,6.641-10.411,15.27-10.411,15.27s-10.425-20.615-10.425-27.3,4.668-9.336,10.425-6.023A23.045,23.045,0,0,1,238.316,216.6Z" transform="translate(93.645 50.345)" fill="#7d80a4"/>
        <ellipse id="Ellipse_1" data-name="Ellipse 1" cx="5.566" cy="9.63" rx="5.566" ry="9.63" transform="translate(311.916 254.922) rotate(-30)" fill="#e9eaf2"/>
        <path id="Path_89" data-name="Path 89" d="M467.111,359.026l-205.578-118.7c-3.475-1.988-6.273-7.363-6.273-11.972V90.189c0-4.609,2.8-6.729,6.273-4.727L467.111,204.147c3.46,2,6.258,7.363,6.258,11.986V354.285C473.369,358.909,470.571,361.029,467.111,359.026Z" transform="translate(111.497 -2.773)" fill="#e9eaf2"/>
        <path id="Path_90" data-name="Path 90" d="M436.375,241.9,277.035,149.911c-3.858-2.238-6.994-8.217-6.994-13.356V126.145c0-5.154,3.136-7.51,6.994-5.286l159.341,91.988c3.858,2.223,6.98,8.2,6.98,13.356v10.411C443.355,241.767,440.233,244.123,436.375,241.9Z" transform="translate(118.481 13.913)" fill="#fff"/>
        <path id="Path_91" data-name="Path 91" d="M349.718,223.639l-72.683-41.967c-3.858-2.223-6.994-8.2-6.994-13.356V157.965c0-5.154,3.137-7.51,6.994-5.286l72.683,41.967c3.858,2.224,6.98,8.2,6.98,13.356v10.337C356.7,223.492,353.576,225.863,349.718,223.639Z" transform="translate(118.481 28.949)" fill="#7987c3"/>
        <path id="Path_92" data-name="Path 92" d="M509.341,328.077s-77.5,17.081-140.154-52.51S255.42,214.9,255.42,214.9v43.439L509.341,404.928Z" transform="translate(111.573 58.569)" fill="#7987c3"/>
        <path id="Path_93" data-name="Path 93" d="M509.341,328.077s-77.5,17.081-140.154-52.51S255.42,214.9,255.42,214.9" transform="translate(111.573 58.569)" fill="#46b5d1" stroke="#cccedd" stroke-miterlimit="10" stroke-width="1.06"/>
      </g>
      <g id="Men_12" transform="translate(342.242)">
        <path id="_Контур_" data-name="&lt;Контур&gt;" d="M259.9,56.887a56.751,56.751,0,0,1-8.2,11.191c-.884,1.031-7.7-1.576-6.273-2.312s5.89-6.95,8.128-11.1a141.63,141.63,0,0,0,4.771-15.152c1.4-5.08,2.606-12.531,3.637-16.036a6.847,6.847,0,0,1,5.213-5.316c2.459-.574,4.049.1,3.593,3.078C269.926,26.421,265.906,46.653,259.9,56.887Z" transform="translate(-226.427 8.488)" fill="#79604d"/>
        <path id="Path_94" data-name="Path 94" d="M263.033,98.25c-2.106,1.723-5.227.147-5.389.309a96.792,96.792,0,0,1-7.79,6.494c-1.325,1.031-3.372,2.415-2.945,4.418.663,3.549,6.361,2.459,8.511,1.369s3.917-2.945,5.89-4.153c1.473-.913,2.945-1.369,3.107-3.21C264.549,102.373,263.415,98.206,263.033,98.25Z" transform="translate(-225.66 46.42)" fill="#151965"/>
        <path id="Path_95" data-name="Path 95" d="M264.378,101.3c-.28,1.752-1.693,2.238-3.136,3.136-2.062,1.281-3.887,3.136-6.037,4.226s-6.936,2-8.334-.545c.751,3.431,6.361,2.356,8.482,1.281s3.917-2.945,5.89-4.152c1.473-.913,2.945-1.369,3.107-3.21a4.528,4.528,0,0,0,.029-.736Z" transform="translate(-225.651 47.862)" fill="#32407b"/>
        <path id="Path_96" data-name="Path 96" d="M248.392,89.863c-2.106,1.723-5.8-.147-5.964,0a78.041,78.041,0,0,1-6.965,6.288c-1.325,1.045-3.372,2.43-2.945,4.418.663,3.563,6.361,2.474,8.526,1.384s3.9-2.945,5.89-4.167c1.473-.9,2.945-1.369,3.107-3.2C250.159,93.485,248.775,89.819,248.392,89.863Z" transform="translate(-232.46 42.453)" fill="#151965"/>
        <path id="Path_97" data-name="Path 97" d="M249.968,92.74c-.28,1.752-1.693,2.238-3.137,3.136-2.062,1.281-3.887,3.136-6.037,4.226s-6.95,2-8.334-.545c.751,3.431,6.347,2.356,8.482,1.281s3.9-2.945,5.89-4.167c1.473-.9,2.945-1.355,3.107-3.2a4.538,4.538,0,0,0,.029-.736Z" transform="translate(-232.46 43.817)" fill="#32407b"/>
        <path id="_Контур_2" data-name="&lt;Контур&gt;" d="M296.644,53.885c2.341,14.637-4.153,20.1-12.6,23.207-6.067,2.238-14.725,5.684-14.725,5.684s.118,3.21.177,10.411c0,6.347-.766,29.45-.766,29.45a7.083,7.083,0,0,1-6.479,0s-3.4-17.744-4.123-25.754c-.987-10.852-2.651-17.965-2.091-20.306.486-2.062,12.354-7.893,16.124-11.014L247.286,73.9a43.921,43.921,0,0,1,.722,8.172c-.221,8.614-.707,27.271-.707,27.271s-3.4,2.459-6.317,0c0,0-6.258-36.916-5.492-41.8.722-4.638,22.633-14.121,26.505-17.39a6.185,6.185,0,0,1,4.859-1.311Z" transform="translate(-231.059 23.035)" fill="#46b5d1"/>
        <g id="_Группа_" data-name="&lt;Группа&gt;" transform="translate(1.717 62.519)">
          <g id="_Группа_2" data-name="&lt;Группа&gt;">
            <path id="_Контур_3" data-name="&lt;Контур&gt;" d="M236.54,59.518l16.713-9.645a.928.928,0,0,1,.957,0l29.3,16.919-17.184,9.925Z" transform="translate(-232.25 -39.02)" fill="#f4f4f4"/>
            <path id="Path_98" data-name="Path 98" d="M257.843,65.664l1.281.736c.1,0,.088.162,0,.236l-1.222.707a.471.471,0,0,1-.4,0l-1.281-.736c-.1,0-.088-.162,0-.236l1.222-.707a.471.471,0,0,1,.4,0Z" transform="translate(-222.983 -31.516)" fill="#2b303f"/>
            <path id="Path_99" data-name="Path 99" d="M256.623,65.018l1.266.722c.1,0,.088.177,0,.236l-1.207.707a.457.457,0,0,1-.412,0L255,65.945c-.1,0-.088-.162,0-.236l1.207-.692A.412.412,0,0,1,256.623,65.018Z" transform="translate(-223.559 -31.827)" fill="#2b303f"/>
            <path id="Path_100" data-name="Path 100" d="M255.383,64.248l1.266.736c.1,0,.1.162,0,.236l-1.207.692a.457.457,0,0,1-.412,0l-1.266-.736c-.1,0-.088-.162,0-.236l1.207-.707a.456.456,0,0,1,.412.015Z" transform="translate(-224.145 -32.192)" fill="#3a2c6d"/>
            <path id="Path_101" data-name="Path 101" d="M254.173,63.544l1.266.736c.1,0,.1.162,0,.236l-1.207.707a.5.5,0,0,1-.412,0l-1.266-.736c-.1,0-.088-.162,0-.236l1.207-.707a.5.5,0,0,1,.412,0Z" transform="translate(-224.717 -32.518)" fill="#3a2c6d"/>
            <path id="Path_102" data-name="Path 102" d="M252.943,62.833l1.281.736c.1,0,.088.177,0,.236L253,64.512a.427.427,0,0,1-.4,0l-1.281-.736c-.1,0-.088-.162,0-.236l1.222-.692a.427.427,0,0,1,.4-.015Z" transform="translate(-225.298 -32.853)" fill="#3a2c6d"/>
            <path id="Path_103" data-name="Path 103" d="M251.723,62.136l1.281.736c.1,0,.088.162,0,.236l-1.222.692a.427.427,0,0,1-.4,0l-1.281-.736c-.1,0-.088-.162,0-.221l1.222-.707A.427.427,0,0,1,251.723,62.136Z" transform="translate(-225.875 -33.186)" fill="#3a2c6d"/>
            <path id="Path_104" data-name="Path 104" d="M250.545,61.424l1.266.736c.1,0,.088.162,0,.236L250.6,63.1a.5.5,0,0,1-.412,0l-1.266-.736c-.1,0-.1-.162,0-.236l1.207-.707A.5.5,0,0,1,250.545,61.424Z" transform="translate(-226.434 -33.52)" fill="#3a2c6d"/>
            <path id="Path_105" data-name="Path 105" d="M249.273,60.713l1.281.736c.1,0,.088.177,0,.236l-1.222.707a.427.427,0,0,1-.4,0l-1.281-.736c-.1,0-.088-.162,0-.236l1.222-.692a.427.427,0,0,1,.4-.015Z" transform="translate(-227.032 -33.855)" fill="#3a2c6d"/>
            <path id="Path_106" data-name="Path 106" d="M248.053,60.016l1.266.736c.1,0,.088.162,0,.236l-1.207.692a.456.456,0,0,1-.412,0l-1.266-.736c-.1,0-.088-.162,0-.221l1.208-.707a.457.457,0,0,1,.412,0Z" transform="translate(-227.609 -34.188)" fill="#3a2c6d"/>
            <path id="Path_107" data-name="Path 107" d="M246.823,59.306l1.281.736c.1,0,.088.162,0,.236l-1.222.707a.471.471,0,0,1-.4,0l-1.281-.736c-.1,0-.088-.162,0-.236l1.222-.707a.427.427,0,0,1,.4,0Z" transform="translate(-228.19 -34.523)" fill="#3a2c6d"/>
            <path id="Path_108" data-name="Path 108" d="M245.6,58.594l1.266.736c.1,0,.1.162,0,.236l-1.207.707a.456.456,0,0,1-.412,0l-1.266-.736c-.1,0-.088-.162,0-.236l1.207-.692A.457.457,0,0,1,245.6,58.594Z" transform="translate(-228.767 -34.857)" fill="#3a2c6d"/>
            <path id="Path_109" data-name="Path 109" d="M244.388,57.9l1.266.736c.1,0,.088.162,0,.236l-1.222.692a.427.427,0,0,1-.4,0l-1.281-.736c-.1,0-.088-.162,0-.236l1.222-.692A.457.457,0,0,1,244.388,57.9Z" transform="translate(-229.348 -35.19)" fill="#3a2c6d"/>
            <path id="Path_110" data-name="Path 110" d="M243.153,57.188l1.281.736c.1,0,.088.162,0,.236l-1.222.692a.427.427,0,0,1-.4,0l-1.281-.736c-.1,0-.088-.177,0-.236l1.222-.707A.427.427,0,0,1,243.153,57.188Z" transform="translate(-229.924 -35.527)" fill="#3a2c6d"/>
            <path id="Path_111" data-name="Path 111" d="M241.345,56.134l2.135,1.237c.1,0,.088.162,0,.236l-1.207.707a.5.5,0,0,1-.412,0l-2.135-1.237c-.1,0-.1-.162,0-.236l1.207-.707a.5.5,0,0,1,.412,0Z" transform="translate(-230.781 -36.02)" fill="#3a2c6d"/>
            <path id="Path_112" data-name="Path 112" d="M257.213,63.936l1.281.736c.1,0,.088.162,0,.236l-1.222.692a.383.383,0,0,1-.4,0l-1.281-.722c-.1,0-.088-.177,0-.236l1.222-.707a.427.427,0,0,1,.4,0Z" transform="translate(-223.281 -32.336)" fill="#2b303f"/>
            <path id="Path_113" data-name="Path 113" d="M255.995,63.226l1.266.736c.1,0,.088.162,0,.236l-1.207.707a.5.5,0,0,1-.412,0l-1.266-.736c-.1,0-.1-.162,0-.236l1.207-.707A.456.456,0,0,1,255.995,63.226Z" transform="translate(-223.859 -32.671)" fill="#2b303f"/>
            <path id="Path_114" data-name="Path 114" d="M254.763,62.514l1.266.736c.118,0,.1.162,0,.236l-1.208.707a.5.5,0,0,1-.412,0l-1.266-.736c-.1,0-.088-.162,0-.236l1.207-.707a.5.5,0,0,1,.412,0Z" transform="translate(-224.438 -33.005)" fill="#3a2c6d"/>
            <path id="Path_115" data-name="Path 115" d="M253.543,61.8l1.281.736c.1,0,.088.177,0,.236l-1.222.707a.427.427,0,0,1-.4,0l-1.281-.736c-.1,0-.088-.162,0-.236l1.222-.692A.427.427,0,0,1,253.543,61.8Z" transform="translate(-225.015 -33.34)" fill="#3a2c6d"/>
            <path id="Path_116" data-name="Path 116" d="M252.325,61.1l1.266.736c.1,0,.088.162,0,.236l-1.207.707a.5.5,0,0,1-.412,0l-1.266-.736c-.1,0-.1-.162,0-.236l1.207-.707a.5.5,0,0,1,.412,0Z" transform="translate(-225.593 -33.671)" fill="#3a2c6d"/>
            <path id="Path_117" data-name="Path 117" d="M251.093,60.393l1.281.736c.1,0,.088.177,0,.236l-1.222.707a.427.427,0,0,1-.4,0l-1.281-.736c-.1,0-.088-.162,0-.236l1.222-.692a.427.427,0,0,1,.4-.015Z" transform="translate(-226.172 -34.006)" fill="#3a2c6d"/>
            <path id="Path_118" data-name="Path 118" d="M249.863,59.7l1.281.736c.1,0,.088.162,0,.221l-1.222.707a.427.427,0,0,1-.4,0l-1.281-.736c-.1,0-.088-.162,0-.236l1.222-.692a.427.427,0,0,1,.4,0Z" transform="translate(-226.754 -34.339)" fill="#3a2c6d"/>
            <path id="Path_119" data-name="Path 119" d="M248.643,59.016l1.266.736c.1,0,.088.162,0,.236l-1.207.692a.456.456,0,0,1-.412,0l-1.266-.736c-.1,0-.088-.162,0-.221l1.207-.707a.457.457,0,0,1,.412,0Z" transform="translate(-227.33 -34.66)" fill="#3a2c6d"/>
            <path id="Path_120" data-name="Path 120" d="M247.413,58.278l1.281.736c.1,0,.088.162,0,.236l-1.222.692a.427.427,0,0,1-.4,0l-1.281-.736c-.1,0-.088-.177,0-.236l1.222-.707A.427.427,0,0,1,247.413,58.278Z" transform="translate(-227.911 -35.012)" fill="#3a2c6d"/>
            <path id="Path_121" data-name="Path 121" d="M246.2,57.564l1.266.736c.1,0,.088.162,0,.236l-1.222.707a.471.471,0,0,1-.4,0l-1.281-.736c-.1,0-.088-.162,0-.236l1.222-.707A.5.5,0,0,1,246.2,57.564Z" transform="translate(-228.492 -35.344)" fill="#3a2c6d"/>
            <path id="Path_122" data-name="Path 122" d="M244.963,56.854l1.266.736c.1,0,.1.162,0,.236l-1.207.707a.456.456,0,0,1-.412,0l-1.266-.736c-.1,0-.088-.162,0-.236l1.207-.707A.5.5,0,0,1,244.963,56.854Z" transform="translate(-229.069 -35.679)" fill="#3a2c6d"/>
            <path id="Path_123" data-name="Path 123" d="M243.733,56.158l1.281.722c.1,0,.088.177,0,.236l-1.222.707a.427.427,0,0,1-.4,0l-1.281-.736c-.1,0-.088-.162,0-.236l1.222-.692a.383.383,0,0,1,.4,0Z" transform="translate(-229.65 -36.014)" fill="#3a2c6d"/>
            <path id="Path_124" data-name="Path 124" d="M258.443,64.646l2.135,1.237c.1,0,.1.162,0,.236l-1.208.692a.456.456,0,0,1-.412,0l-2.135-1.237c-.1,0-.088-.162,0-.236l1.208-.692A.456.456,0,0,1,258.443,64.646Z" transform="translate(-222.699 -32)" fill="#2b303f"/>
            <path id="Path_125" data-name="Path 125" d="M240.873,56.7l1.266.736a.442.442,0,0,0,.383,0l1.281-.751a.118.118,0,0,0,0-.221h-.1c-.088,0-.088-.133,0-.191l1.355-.78c.118,0,.118-.162,0-.221l-.81-.471a.442.442,0,0,0-.383,0l-1.266.736-.265.147-.191.118-.191.1-1.09.633a.118.118,0,0,0,.015.162Z" transform="translate(-230.221 -36.648)" fill="#3a2c6d"/>
            <path id="Path_126" data-name="Path 126" d="M262.543,62.926l1.281.736c.1,0,.088.162,0,.236l-1.222.692a.383.383,0,0,1-.4,0l-1.281-.722a.132.132,0,0,1,0-.236l1.222-.707a.427.427,0,0,1,.4,0Z" transform="translate(-220.762 -32.813)" fill="#2b303f"/>
            <path id="Path_127" data-name="Path 127" d="M261.363,62.214l1.281.736c.1,0,.088.177,0,.236l-1.222.707a.427.427,0,0,1-.4,0l-1.281-.736c-.1,0-.088-.162,0-.236l1.222-.692a.427.427,0,0,1,.4-.015Z" transform="translate(-221.32 -33.146)" fill="#2b303f"/>
            <path id="Path_128" data-name="Path 128" d="M260.143,61.518l1.281.736c.1,0,.088.162,0,.236l-1.222.692a.427.427,0,0,1-.4,0l-1.281-.736c-.1,0-.088-.177,0-.236l1.222-.707a.427.427,0,0,1,.4.015Z" transform="translate(-221.896 -33.481)" fill="#2b303f"/>
            <path id="Path_129" data-name="Path 129" d="M249.756,55.516l1.266.736c.1,0,.088.162,0,.236l-1.207.692a.456.456,0,0,1-.412,0l-1.266-.736c-.118,0-.1-.162,0-.236l1.207-.692a.457.457,0,0,1,.412,0Z" transform="translate(-226.809 -36.314)" fill="#3a2c6d"/>
            <path id="Path_130" data-name="Path 130" d="M248.543,54.8l1.281.736c.1,0,.088.162,0,.236l-1.222.707a.471.471,0,0,1-.4,0l-1.281-.736c-.1,0-.088-.162,0-.236l1.222-.707a.471.471,0,0,1,.4,0Z" transform="translate(-227.377 -36.648)" fill="#3a2c6d"/>
            <path id="Path_131" data-name="Path 131" d="M247.3,54.106l1.281.736c.1,0,.088.162,0,.236l-1.222.692a.427.427,0,0,1-.4,0l-1.281-.736c-.1,0-.088-.162,0-.221l1.222-.707a.427.427,0,0,1,.4,0Z" transform="translate(-227.963 -36.98)" fill="#3a2c6d"/>
            <path id="Path_132" data-name="Path 132" d="M246.083,53.394l1.281.736c.1,0,.088.162,0,.236l-1.222.707a.471.471,0,0,1-.4,0l-1.281-.736c-.1,0-.088-.162,0-.236l1.222-.707a.471.471,0,0,1,.4,0Z" transform="translate(-228.54 -37.314)" fill="#3a2c6d"/>
            <path id="Path_133" data-name="Path 133" d="M258.6,60.619l1.738,1c.1,0,.088.177,0,.236l-1.222.707a.427.427,0,0,1-.4,0l-1.693-.987c-.1,0-.1-.162,0-.236l1.207-.707a.5.5,0,0,1,.368-.015Z" transform="translate(-222.607 -33.893)" fill="#2b303f"/>
            <path id="Path_134" data-name="Path 134" d="M250.975,56.214l1.738,1c.1,0,.088.162,0,.236l-1.222.707a.471.471,0,0,1-.4,0l-1.738-1c-.1,0-.1-.162,0-.236l1.207-.707A.5.5,0,0,1,250.975,56.214Z" transform="translate(-226.231 -35.982)" fill="#3a2c6d"/>
            <path id="Path_135" data-name="Path 135" d="M252.543,57.106l8.467,4.889c.1,0,.088.162,0,.236l-1.208.692a.456.456,0,0,1-.412,0l-8.467-4.889c-.1,0-.088-.162,0-.221l1.222-.707a.427.427,0,0,1,.4,0Z" transform="translate(-225.487 -35.563)" fill="#2b303f"/>
            <path id="Path_136" data-name="Path 136" d="M258.075,63.014l1.266.736c.1,0,.088.162,0,.236l-1.207.707a.5.5,0,0,1-.412,0l-1.266-.736c-.1,0-.1-.162,0-.236l1.208-.707A.5.5,0,0,1,258.075,63.014Z" transform="translate(-222.876 -32.769)" fill="#2b303f"/>
            <path id="Path_137" data-name="Path 137" d="M256.843,62.343l1.281.736c.1,0,.088.177,0,.236l-1.222.707a.427.427,0,0,1-.4,0l-1.281-.736c-.1,0-.088-.162,0-.236l1.222-.692A.427.427,0,0,1,256.843,62.343Z" transform="translate(-223.455 -33.085)" fill="#2b303f"/>
            <path id="Path_138" data-name="Path 138" d="M255.623,61.648l1.281.736c.1,0,.088.162,0,.236l-1.222.692a.456.456,0,0,1-.412,0L254,62.576a.132.132,0,0,1,0-.236l1.222-.707a.427.427,0,0,1,.4.015Z" transform="translate(-224.032 -33.42)" fill="#2b303f"/>
            <path id="Path_139" data-name="Path 139" d="M254.4,60.934l1.266.736c.1,0,.088.162,0,.236l-1.207.707a.5.5,0,0,1-.412,0l-1.266-.736c-.1,0-.088-.162,0-.236l1.207-.707a.5.5,0,0,1,.412,0Z" transform="translate(-224.608 -33.752)" fill="#3a2c6d"/>
            <path id="Path_140" data-name="Path 140" d="M253.173,60.236l1.281.736c.1,0,.088.162,0,.236l-1.222.692a.427.427,0,0,1-.4,0l-1.281-.736c-.1,0-.088-.162,0-.236l1.222-.692A.427.427,0,0,1,253.173,60.236Z" transform="translate(-225.19 -34.084)" fill="#3a2c6d"/>
            <path id="Path_141" data-name="Path 141" d="M251.953,59.524l1.281.736c.1,0,.088.162,0,.236l-1.222.707a.471.471,0,0,1-.4,0l-1.281-.736c-.1,0-.088-.162,0-.236l1.222-.707a.471.471,0,0,1,.4,0Z" transform="translate(-225.766 -34.418)" fill="#3a2c6d"/>
            <path id="Path_142" data-name="Path 142" d="M250.733,58.814,252,59.55c.1,0,.1.177,0,.236l-1.207.707a.456.456,0,0,1-.412,0l-1.266-.736c-.1,0-.088-.162,0-.236l1.207-.692A.456.456,0,0,1,250.733,58.814Z" transform="translate(-226.343 -34.753)" fill="#3a2c6d"/>
            <path id="Path_143" data-name="Path 143" d="M249.545,58.116l1.266.736c.1,0,.088.162,0,.236l-1.207.692a.412.412,0,0,1-.412,0l-1.266-.722c-.1,0-.1-.177,0-.236l1.207-.707a.457.457,0,0,1,.412,0Z" transform="translate(-226.907 -35.086)" fill="#3a2c6d"/>
            <path id="Path_144" data-name="Path 144" d="M248.283,57.4l1.281.736c.1,0,.088.162,0,.236l-1.222.707a.471.471,0,0,1-.4,0l-1.281-.736c-.1,0-.088-.162,0-.236l1.222-.707A.471.471,0,0,1,248.283,57.4Z" transform="translate(-227.5 -35.419)" fill="#3a2c6d"/>
            <path id="Path_145" data-name="Path 145" d="M247.068,56.707l1.266.736c.118,0,.1.162,0,.221l-1.222.707a.456.456,0,0,1-.412,0l-1.266-.736c-.1,0-.088-.162,0-.236l1.207-.692a.456.456,0,0,1,.427,0Z" transform="translate(-228.081 -35.753)" fill="#3a2c6d"/>
            <path id="Path_146" data-name="Path 146" d="M245.843,56.018l1.266.736c.1,0,.088.162,0,.236L245.9,57.7a.5.5,0,0,1-.412,0l-1.266-.736c-.1,0-.088-.162,0-.236l1.178-.707a.457.457,0,0,1,.442,0Z" transform="translate(-228.653 -36.08)" fill="#3a2c6d"/>
            <path id="Path_147" data-name="Path 147" d="M244.613,55.283l1.281.736c.1,0,.088.177,0,.236l-1.222.707a.427.427,0,0,1-.4,0l-1.281-.736c-.1,0-.088-.162,0-.236l1.222-.692a.427.427,0,0,1,.4-.015Z" transform="translate(-229.234 -36.421)" fill="#3a2c6d"/>
            <path id="Path_148" data-name="Path 148" d="M259.293,63.764l2.636,1.473c.1,0,.088.162,0,.236l-1.222.707a.471.471,0,0,1-.4,0l-2.636-1.473c-.1,0-.088-.162,0-.236l1.208-.692A.456.456,0,0,1,259.293,63.764Z" transform="translate(-222.298 -32.414)" fill="#2b303f"/>
            <path id="Path_149" data-name="Path 149" d="M259.863,62.726l1.266.736c.118,0,.1.162,0,.221l-1.207.707a.457.457,0,0,1-.412,0l-1.266-.736c-.1,0-.088-.162,0-.236l1.207-.692a.457.457,0,0,1,.412,0Z" transform="translate(-222.028 -32.907)" fill="#2b303f"/>
            <path id="Path_150" data-name="Path 150" d="M258.643,62.016l1.266.736c.1,0,.088.162,0,.236l-1.208.707a.5.5,0,0,1-.412,0l-1.266-.736c-.1,0-.088-.162,0-.236l1.208-.707a.456.456,0,0,1,.412,0Z" transform="translate(-222.605 -33.243)" fill="#2b303f"/>
            <path id="Path_151" data-name="Path 151" d="M257.413,61.3l1.281.736c.1,0,.088.177,0,.236l-1.222.707a.427.427,0,0,1-.4,0l-1.281-.736c-.1,0-.088-.162,0-.236l1.222-.692a.427.427,0,0,1,.4-.015Z" transform="translate(-223.186 -33.576)" fill="#2b303f"/>
            <path id="Path_152" data-name="Path 152" d="M256.193,60.606l1.281.736c.1,0,.088.162,0,.236l-1.222.692a.383.383,0,0,1-.4,0l-1.281-.722a.132.132,0,0,1,0-.236l1.222-.707a.427.427,0,0,1,.4,0Z" transform="translate(-223.763 -33.909)" fill="#2b303f"/>
            <path id="Path_153" data-name="Path 153" d="M254.973,59.894l1.266.736c.1,0,.1.162,0,.236l-1.208.707a.5.5,0,0,1-.412,0l-1.266-.736c-.1,0-.088-.162,0-.236l1.207-.707a.5.5,0,0,1,.412,0Z" transform="translate(-224.339 -34.243)" fill="#3a2c6d"/>
            <path id="Path_154" data-name="Path 154" d="M253.755,59.2l1.266.736c.1,0,.088.162,0,.221l-1.207.707a.457.457,0,0,1-.412,0l-1.266-.736c-.1,0-.1-.162,0-.236l1.207-.692A.457.457,0,0,1,253.755,59.2Z" transform="translate(-224.917 -34.575)" fill="#3a2c6d"/>
            <path id="Path_155" data-name="Path 155" d="M252.543,58.484l1.281.736c.1,0,.088.162,0,.236l-1.222.707a.471.471,0,0,1-.4,0l-1.281-.736c-.1,0-.088-.162,0-.236l1.222-.707a.471.471,0,0,1,.4,0Z" transform="translate(-225.487 -34.909)" fill="#3a2c6d"/>
            <path id="Path_156" data-name="Path 156" d="M251.3,57.773l1.281.736c.1,0,.088.177,0,.236l-1.222.707a.427.427,0,0,1-.4,0l-1.281-.736c-.1,0-.088-.162,0-.236l1.222-.692a.427.427,0,0,1,.4-.015Z" transform="translate(-226.073 -35.244)" fill="#3a2c6d"/>
            <path id="Path_157" data-name="Path 157" d="M250.083,57.078l1.266.736c.1,0,.088.162,0,.236l-1.207.692a.456.456,0,0,1-.412,0l-1.266-.736c-.1,0-.088-.177,0-.236l1.207-.707A.456.456,0,0,1,250.083,57.078Z" transform="translate(-226.65 -35.579)" fill="#3a2c6d"/>
            <path id="Path_158" data-name="Path 158" d="M248.866,56.364l1.266.736c.1,0,.088.162,0,.236l-1.207.707a.5.5,0,0,1-.412,0l-1.266-.736c-.118,0-.1-.162,0-.236l1.207-.707A.5.5,0,0,1,248.866,56.364Z" transform="translate(-227.23 -35.911)" fill="#3a2c6d"/>
            <path id="Path_159" data-name="Path 159" d="M247.633,55.666l1.281.736c.1,0,.088.162,0,.236l-1.222.692a.427.427,0,0,1-.4,0l-1.281-.736c-.1,0-.088-.162,0-.221l1.222-.707a.427.427,0,0,1,.4,0Z" transform="translate(-227.807 -36.243)" fill="#3a2c6d"/>
            <path id="Path_160" data-name="Path 160" d="M244.9,54.086l3.5,2.017c.1,0,.088.162,0,.236l-1.222.707a.5.5,0,0,1-.412,0l-3.49-2.032c-.1,0-.1-.162,0-.221l1.207-.707a.457.457,0,0,1,.412,0Z" transform="translate(-229.099 -36.99)" fill="#3a2c6d"/>
            <path id="Path_161" data-name="Path 161" d="M261.083,63.424l1.738,1c.1,0,.088.177,0,.236l-1.207.707a.457.457,0,0,1-.412,0l-1.738-1c-.1,0-.088-.162,0-.236l1.222-.707A.471.471,0,0,1,261.083,63.424Z" transform="translate(-221.452 -32.575)" fill="#2b303f"/>
            <path id="Path_162" data-name="Path 162" d="M239.919,56.847l25.563,14.725c.1,0,.1.162,0,.236l-.6.339a.427.427,0,0,1-.4,0L238.9,57.421c-.1,0-.088-.162,0-.236l.6-.353a.5.5,0,0,1,.412.015Z" transform="translate(-231.167 -35.687)" fill="#2b303f"/>
            <path id="_Контур_4" data-name="&lt;Контур&gt;" d="M263.935,58.764l-.177.088-4.418,2.562-7.848-4.535-.162-.1,4.58-2.636Z" transform="translate(-225.261 -36.941)" fill="#bfbfbf"/>
            <path id="_Контур_5" data-name="&lt;Контур&gt;" d="M263.706,58.791l-4.418,2.562-7.848-4.535,4.418-2.547Z" transform="translate(-225.209 -36.88)" fill="#e5e5e5"/>
            <path id="_Контур_6" data-name="&lt;Контур&gt;" d="M283.514,63.659v.4a1.605,1.605,0,0,1-.8,1.4l-15.579,8.982a1.576,1.576,0,0,1-1.605,0L237.35,58.24a1.62,1.62,0,0,1-.81-1.473v-.4l29.789,17.2Z" transform="translate(-232.25 -35.887)" fill="#e5e5e5"/>
            <path id="_Контур_7" data-name="&lt;Контур&gt;" d="M267.264,80.3a1.914,1.914,0,0,1-1.649-.118l-27.978-16.2a1.9,1.9,0,0,1-.928-1.34l-3.078-18.318a2.192,2.192,0,0,1,0-.309,1.87,1.87,0,0,1,.574-1.355l29.156,16.831a1.473,1.473,0,0,1,.677.987Z" transform="translate(-233.626 -42.365)" fill="#f4f4f4"/>
            <path id="_Контур_8" data-name="&lt;Контур&gt;" d="M267.529,80.156l-.191.118-.25.118-3.328-19.82a1.473,1.473,0,0,0-.677-.987L234,42.755a1.266,1.266,0,0,1,.383-.295L263.6,59.32a1.472,1.472,0,0,1,.692.987Z" transform="translate(-233.45 -42.46)" fill="#e5e5e5"/>
          </g>
        </g>
        <path id="_Контур_9" data-name="&lt;Контур&gt;" d="M276.136,14.83s-.368,6.965-.206,7.583,3.2,2.665,4.079,3.4-4.815,6.361-7.583,7.628-11.574-2.076-11.78-6.405,1.473-7.937,2.857-8.128S276.136,14.83,276.136,14.83Z" transform="translate(-219.15 7.003)" fill="#79604d"/>
        <path id="_Контур_10" data-name="&lt;Контур&gt;" d="M279.109,22.771s-5.051,7.539-12.1,8.246c-2.224-2.194-2.43-10,.648-12.487,0,0-2.827-2.3-4.771-1.841a9.94,9.94,0,0,0-4.418,5.551,45.354,45.354,0,0,0-2.488,16.2c.118,7.363,0,26.078,0,26.078a15.918,15.918,0,0,0,7.436,10.705,22.956,22.956,0,0,0,16.8,2.327c3.578-.839,4.9-2.827,6.14-5.434-.324-5.169-2.371-15.844-1.472-22.368s2.238-11.383,2.592-16.639-.692-5.169-3.343-7.053a41.4,41.4,0,0,0-5.021-3.284Z" transform="translate(-221.357 7.853)" fill="#f4f4f4"/>
        <path id="_Контур_11" data-name="&lt;Контур&gt;" d="M266.755,79.566a33.865,33.865,0,0,1,3.961-2.268,8.408,8.408,0,0,0,3.387-2.062c1.237-1.207,3.269-5.8,4.727-10.308a45.944,45.944,0,0,0,1.693-15.565c-.6-6.288-2.871-15.079-3.446-18.686s.589-5.065,2.282-6.391c1.973-1.561,4.7-.869,6.155,4.2a97.188,97.188,0,0,1,3.24,21.455A48.859,48.859,0,0,1,286.3,65.8a57.248,57.248,0,0,1-6.037,12.457c-.692,1.163-.928,2.209-1.988,4.594A16.021,16.021,0,0,1,273.647,89c-1.767,1.266-2.606,1.473-3.033,1.207s-.412-.869.339-1.473a13.369,13.369,0,0,0,3.151-3.549s-1.546,1.561-2.562,2.415A13.253,13.253,0,0,1,268.6,89.49c-1.031.456-2.474-.427-1.738-1.119s1.473-1.045,2.945-2.327a12.739,12.739,0,0,0,2.106-2.282,24.61,24.61,0,0,1-3.284,2.135,5.61,5.61,0,0,1-2.945.81c-.545,0-1.208-.8-.177-1.473a20.187,20.187,0,0,0,3.932-2.783c1.134-1.119,1.767-2.076,1.472-2.091s-.942.677-2.268,1.1-2.754,0-2.945-.692S265.518,80.169,266.755,79.566Z" transform="translate(-217.102 11.122)" fill="#79604d"/>
        <path id="_Контур_12" data-name="&lt;Контур&gt;" d="M260.587,10.724h0c.839-5.4,4.742-9.5,10.308-9.189a10.72,10.72,0,0,1,5.463,19.584,10.97,10.97,0,0,1-.869,2.371c-1.958,2.3-7.922,3.77-9.66,3.475a5.08,5.08,0,0,1-4.418-3.637C259.556,19.088,260.13,13.4,260.587,10.724Z" transform="translate(-219.386 0.713)" fill="#79604d"/>
        <path id="Path_163" data-name="Path 163" d="M276.113,21.836h0l-.515-4.727s3.858-9.984-5.257-8.069c-6.008,1.266-7.525,1.826-9.35-2.209S265.57-.841,273.272.175a10.573,10.573,0,0,1,9.483,10.735C282.563,13.884,281.768,19.892,276.113,21.836Z" transform="translate(-219.127 -0.003)" fill="#0d0f40"/>
        <path id="Path_164" data-name="Path 164" d="M286.154,38s-4.977,4.948-10.852,3.519c-.839-.574-2.871-12.134-2.871-12.134s0-6.405,4.918-6.243S286.154,38,286.154,38Z" transform="translate(-213.573 10.929)" fill="#ededed"/>
        <path id="Path_165" data-name="Path 165" d="M257.431,31.454a5.4,5.4,0,0,1-3.681-1.634c.206-2.592,3.519-12.428,10.175-13.15a12.3,12.3,0,0,0-4.153,5.021,63.77,63.77,0,0,0-2.341,9.763Z" transform="translate(-222.4 7.873)" fill="#ededed"/>
      </g>
      <g transform="matrix(1, 0, 0, 1, -94.44, 0)" filter="url(#Path_166)">
        <path id="Path_166-2" data-name="Path 166" d="M503.354,408.53l-122.985-71c-7.731-4.418-13.989-16.419-13.989-26.711V117.31c0-10.308,6.258-15.02,13.989-10.573l122.985,71.019c7.716,4.418,13.974,16.419,13.974,26.711V398C517.328,408.309,511.07,412.991,503.354,408.53Z" transform="translate(267.5 49.64)" fill="rgba(209,213,242,0.5)"/>
      </g>
      <path id="Path_167" data-name="Path 167" d="M462.74,315.527l4.211-2.076-2.842-5.581Z" transform="translate(218.594 145.47)" fill="#211b49"/>
      <path id="Path_168" data-name="Path 168" d="M367.94,107.17a24.606,24.606,0,0,1,3.888-1.87l3.122,6.17Z" transform="translate(173.799 49.752)" fill="#211b49"/>
      <path id="Path_169" data-name="Path 169" d="M501.163,409.632l-123-71.049c-7.716-4.418-13.974-16.419-13.974-26.711V118.412c0-10.308,6.258-15.034,13.974-10.573l123,71.019c7.716,4.418,13.974,16.4,13.974,26.7v193.5C515.138,409.352,508.879,414.093,501.163,409.632Z" transform="translate(172.027 50.157)" fill="#101354"/>
      <path id="Path_170" data-name="Path 170" d="M396.048,141.433,373.68,128.519V120.45l22.367,12.914Z" transform="translate(176.511 56.91)" fill="#151965"/>
      <path id="Path_171" data-name="Path 171" d="M486.756,193.805,391.72,138.925V130.87l95.036,54.866Z" transform="translate(185.036 61.834)" fill="#3a3e90"/>
      <path id="Path_172" data-name="Path 172" d="M396.048,158.973,373.68,146.059V137.99L396.048,150.9Z" transform="translate(176.511 65.198)" fill="#151965"/>
      <path id="Path_173" data-name="Path 173" d="M454.611,192.782,391.72,156.469V148.4l62.891,36.312Z" transform="translate(185.036 70.117)" fill="#859cfd"/>
      <path id="Path_174" data-name="Path 174" d="M396.048,167.729l-22.367-12.9V146.76l22.367,12.9Z" transform="translate(176.511 69.342)" fill="#151965"/>
      <path id="Path_175" data-name="Path 175" d="M469.984,210.431,391.72,165.239V157.17l78.264,45.192Z" transform="translate(185.036 74.261)" fill="#32407b"/>
      <path id="Path_176" data-name="Path 176" d="M396.048,176.5,373.68,163.589V155.52l22.367,12.914Z" transform="translate(176.511 73.482)" fill="#151965"/>
      <path id="Path_177" data-name="Path 177" d="M446.233,205.477,391.72,174.009V165.94l54.513,31.468Z" transform="translate(185.036 78.405)" fill="#46b5d1"/>
      <path id="Path_178" data-name="Path 178" d="M396.048,150.2,373.68,137.289V129.22l22.367,12.914Z" transform="translate(176.511 61.054)" fill="#151965"/>
      <path id="Path_179" data-name="Path 179" d="M439.238,175.147,391.72,147.7V139.63l47.518,27.433Z" transform="translate(185.036 65.973)" fill="#77bdcf"/>
      <path id="Path_180" data-name="Path 180" d="M396.048,185.273,373.68,172.359V164.29L396.048,177.2Z" transform="translate(176.511 77.626)" fill="#151965"/>
      <path id="Path_181" data-name="Path 181" d="M419.668,198.908,391.72,182.769V174.7l27.948,16.139Z" transform="translate(185.036 82.544)" fill="#7987c3"/>
      <path id="Path_182" data-name="Path 182" d="M396.048,202.8,373.68,189.9V181.83l22.367,12.914Z" transform="translate(176.511 85.913)" fill="#151965"/>
      <path id="Path_183" data-name="Path 183" d="M479.776,251.141,391.72,200.309V192.24l88.057,50.831Z" transform="translate(185.036 90.832)" fill="#32407b"/>
      <path id="Path_184" data-name="Path 184" d="M396.048,211.573,373.68,198.659V190.59L396.048,203.5Z" transform="translate(176.511 90.053)" fill="#151965"/>
      <path id="Path_185" data-name="Path 185" d="M418.269,224.408,391.72,209.079V201.01l26.549,15.329Z" transform="translate(185.036 94.976)" fill="#7cc6d8"/>
      <path id="Path_186" data-name="Path 186" d="M396.048,220.343,373.68,207.429V199.36l22.367,12.914Z" transform="translate(176.511 94.197)" fill="#151965"/>
      <path id="Path_187" data-name="Path 187" d="M469.984,263.026,391.72,217.835V209.78l78.264,45.177Z" transform="translate(185.036 99.12)" fill="#7987c3"/>
      <path id="Path_188" data-name="Path 188" d="M396.048,194.043,373.68,181.129V173.06l22.367,12.914Z" transform="translate(176.511 81.77)" fill="#151965"/>
      <path id="Path_189" data-name="Path 189" d="M465.788,234.316,391.72,191.539V183.47l74.068,42.777Z" transform="translate(185.036 86.688)" fill="#151965"/>
      <path id="Path_190" data-name="Path 190" d="M396.048,229.113,373.68,216.2V208.13l22.367,12.914Z" transform="translate(176.511 98.341)" fill="#151965"/>
      <path id="Path_191" data-name="Path 191" d="M401.5,232.264l-9.777-5.654V218.54l9.777,5.655Z" transform="translate(185.036 103.26)" fill="#46b5d1"/>
      <path id="Path_192" data-name="Path 192" d="M396.048,246.639l-22.367-12.9V225.67l22.367,12.914Z" transform="translate(176.511 106.629)" fill="#151965"/>
      <path id="Path_193" data-name="Path 193" d="M409.891,254.634,391.72,244.149V236.08l18.171,10.484Z" transform="translate(185.036 111.548)" fill="#151965"/>
      <path id="Path_194" data-name="Path 194" d="M396.048,255.413,373.68,242.5V234.43l22.367,12.914Z" transform="translate(176.511 110.768)" fill="#151965"/>
      <path id="Path_195" data-name="Path 195" d="M439.238,280.352,391.72,252.919V244.85l47.518,27.433Z" transform="translate(185.036 115.692)" fill="#32407b"/>
      <path id="Path_196" data-name="Path 196" d="M396.048,264.183,373.68,251.269V243.2l22.367,12.914Z" transform="translate(176.511 114.912)" fill="#151965"/>
      <path id="Path_197" data-name="Path 197" d="M467.186,305.266,444,291.872,391.72,261.679V253.61L467.186,297.2Z" transform="translate(185.036 119.831)" fill="#7987c3"/>
      <path id="Path_198" data-name="Path 198" d="M396.048,237.883,373.68,224.969V216.9l22.367,12.914Z" transform="translate(176.511 102.485)" fill="#151965"/>
      <path id="Path_199" data-name="Path 199" d="M486.756,290.26,391.72,235.379V227.31l95.036,54.866Z" transform="translate(185.036 107.404)" fill="#46b5d1"/>
      <path id="Path_200" data-name="Path 200" d="M53.168,258.922l-13.429-6.891-28.14,16.2C5.223,271.91.04,268.936.04,261.558V230.9A25.563,25.563,0,0,1,11.6,210.874l167.587-96.789c6.376-3.681,11.559-.692,11.559,6.67v30.761a25.563,25.563,0,0,1-11.559,20.026l-112.677,65" transform="translate(-0.04 53.159)" fill="#8b99d1"/>
      <path id="Path_201" data-name="Path 201" d="M127.607,112.77l6.332,2.562-5.36,5.507-3.8-6.081Z" transform="translate(58.902 53.281)" fill="#b1b4c4"/>
      <path id="Path_202" data-name="Path 202" d="M36.12,213.3l6.671,2.68.015-5.743-5.9-1.178Z" transform="translate(17.008 98.78)" fill="#b1b4c4"/>
      <path id="Path_203" data-name="Path 203" d="M10.017,223.835c.25.53-7.23-2.533-7.5-2.945S11.592,215,11.592,215Z" transform="translate(1.13 101.587)" fill="#b1b4c4"/>
      <g transform="matrix(1, 0, 0, 1, -94.44, 0)" filter="url(#Path_204)">
        <path id="Path_204-2" data-name="Path 204" d="M71.058,238.341,183.735,173.3a25.607,25.607,0,0,0,11.559-20.026v-30.7c0-7.363-5.183-10.308-11.559-6.685L16.089,212.675A25.592,25.592,0,0,0,4.53,232.7v30.7c0,7.363,5.183,10.308,11.559,6.671l28.14-16.2,13.488,6.906Z" transform="translate(96.52 54.02)" fill="#e9eaf2"/>
      </g>
      <path id="Path_205" data-name="Path 205" d="M175.436,136.96,14.74,229.729V219.053l160.7-92.783Z" transform="translate(6.906 59.66)" fill="#7987c3"/>
      <path id="Path_206" data-name="Path 206" d="M119.951,171.41,14.74,232.152v-10.69L119.951,160.72Z" transform="translate(6.906 75.939)" fill="rgba(70,165,199,0.84)"/>
    </g>
  </g>
</svg>
