<svg xmlns="http://www.w3.org/2000/svg" width="29" height="29" viewBox="0 0 29 29">
  <path id="iconfinder_linkedin_circle_color_107178" d="M26.638,25.333V19.672c0-3.033-1.619-4.444-3.778-4.444A3.257,3.257,0,0,0,19.9,16.859v-1.4H16.621c.043.927,0,9.873,0,9.873H19.9V19.819a2.238,2.238,0,0,1,.108-.8,1.8,1.8,0,0,1,1.683-1.2c1.188,0,1.663.905,1.663,2.232v5.282h3.281ZM13.163,14.112a1.711,1.711,0,1,0,.022-3.412,1.711,1.711,0,1,0-.043,3.412ZM18.5,33A14.5,14.5,0,1,1,33,18.5,14.5,14.5,0,0,1,18.5,33Zm-3.7-7.667V15.46H11.523v9.873Z" transform="translate(-4 -4)" fill="#8184af" fill-rule="evenodd"/>
</svg>
