<svg xmlns="http://www.w3.org/2000/svg" xmlns:xlink="http://www.w3.org/1999/xlink" width="64.72" height="59.315" viewBox="0 0 64.72 59.315">
  <defs>
    <filter id="Path_210" x="13.914" y="8.477" width="50.807" height="50.838" filterUnits="userSpaceOnUse">
      <feOffset dy="3" input="SourceAlpha"/>
      <feGaussianBlur stdDeviation="3" result="blur"/>
      <feFlood flood-opacity="0.161"/>
      <feComposite operator="in" in2="blur"/>
      <feComposite in="SourceGraphic"/>
    </filter>
  </defs>
  <g id="Fake_Logo" data-name="Fake Logo" transform="translate(-100.584 -53.05)">
    <g transform="matrix(1, 0, 0, 1, 100.58, 53.05)" filter="url(#Path_210)">
      <path id="Path_210-2" data-name="Path 210" d="M7.871,2.317A3.746,3.746,0,0,1,14.789,2.3l7.258,14.587c1.527,3.068-.4,6.911-3.475,6.92l-14.585.039C.915,23.852-1,20.02.545,16.943Z" transform="translate(39.16 47.32) rotate(-136)" fill="rgba(121,135,195,0.94)"/>
    </g>
    <path id="Path_208" data-name="Path 208" d="M10.287,2.176A3.531,3.531,0,0,1,16.8,2.159l9.678,19.353c1.447,2.893-.372,6.525-3.272,6.533L3.76,28.1c-2.9.008-4.7-3.614-3.242-6.515Z" transform="translate(133.577 100.356) rotate(-136)" fill="rgba(70,181,209,0.65)"/>
    <path id="Path_209" data-name="Path 209" d="M12.867,2.722A4.417,4.417,0,0,1,21.015,2.7L33.121,26.908c1.81,3.619-.466,8.162-4.093,8.171L4.7,35.145C1.075,35.155-1.179,30.624.648,27Z" transform="translate(124.866 101.78) rotate(-136)" fill="rgba(21,25,101,0.49)"/>
  </g>
</svg>
