<svg xmlns="http://www.w3.org/2000/svg" width="66" height="66.02" viewBox="0 0 66 66.02">
  <g id="Netlify-02" transform="translate(0 0.075)">
    <path id="Path_359" data-name="Path 359" d="M47.837,22.841l-.026-.013-.039-.026a.225.225,0,0,1-.052-.155l1.328-8.134L55.3,20.753l-6.5,2.759-.052.013h-.026l-.039-.026A3.014,3.014,0,0,0,47.837,22.841Zm9.062-.5,6.677,6.677c1.392,1.392,2.075,2.075,2.333,2.887a2.953,2.953,0,0,1,.09.361L50.041,25.51l-.026-.013c-.064-.026-.142-.052-.142-.116s.077-.09.142-.116l.026-.013Zm8.83,12.053a13.135,13.135,0,0,1-2.153,2.462l-7.528,7.515L46.3,42.345l-.052-.013c-.09-.013-.18-.026-.18-.1a2.927,2.927,0,0,0-1.134-2.05c-.039-.039-.026-.1-.013-.155V40l1.83-11.228.013-.039c.013-.09.026-.18.1-.18a3,3,0,0,0,2-1.147l.052-.052a.233.233,0,0,1,.18.026l16.629,7.013ZM54.308,46.109,41.92,58.484l2.114-13.007v-.013l.013-.052c.013-.039.064-.064.1-.077l.026-.013a3.143,3.143,0,0,0,1.2-.889.257.257,0,0,1,.155-.1h.052l8.727,1.779Zm-15,14.979L37.911,62.48,22.481,40.2l-.013-.026c-.026-.039-.052-.064-.039-.1A.111.111,0,0,1,22.468,40l.013-.026a1.806,1.806,0,0,0,.129-.206l.039-.064h0a.347.347,0,0,1,.09-.1.22.22,0,0,1,.129,0l17.093,3.519a.386.386,0,0,1,.129.052c.026.026.026.052.039.077a3.051,3.051,0,0,0,1.766,2.024c.052.026.026.077,0,.129a.183.183,0,0,0-.026.077C41.65,46.8,39.806,58.058,39.3,61.088ZM36.39,64a6.572,6.572,0,0,1-2.32,1.779,3.358,3.358,0,0,1-2.075,0c-.8-.258-1.5-.941-2.888-2.333L13.612,47.965,17.66,41.7a.189.189,0,0,1,.064-.077.213.213,0,0,1,.155,0,4.172,4.172,0,0,0,2.823-.142c.052-.013.09-.026.129,0l.052.052L36.39,64ZM12.117,46.47,8.559,42.925l7.025-2.991.052-.013c.064,0,.09.064.129.116.064.1.142.219.219.322l.026.026a.064.064,0,0,1-.013.09l-3.88,5.994Zm-5.13-5.13-4.5-4.5c-.761-.761-1.315-1.315-1.7-1.792l13.677,2.836.052.013c.09.013.18.026.18.1s-.1.129-.193.155l-.039.013ZM0,32.754A3.194,3.194,0,0,1,.155,31.9c.258-.8.954-1.5,2.333-2.887L8.25,23.267q3.983,5.762,7.966,11.511c.052.064.1.129.039.18a4.7,4.7,0,0,0-.683.915.229.229,0,0,1-.09.1.082.082,0,0,1-.077,0h0L0,32.754ZM9.784,21.733,17.518,14c.722.322,3.377,1.431,5.736,2.436,1.792.761,3.429,1.444,3.945,1.676.052.026.1.039.116.09a.141.141,0,0,1,0,.1,3.447,3.447,0,0,0,.9,3.145c.052.052,0,.129-.039.193l-.026.039L20.29,33.837a.262.262,0,0,1-.077.09.181.181,0,0,1-.142,0,3.851,3.851,0,0,0-.941-.129,5.7,5.7,0,0,0-.9.1h0c-.039,0-.064.013-.09-.013a.561.561,0,0,1-.077-.09Zm9.307-9.294,10.016-10C30.5,1.043,31.2.347,31.995.089a3.358,3.358,0,0,1,2.075,0c.8.258,1.5.941,2.888,2.333l2.166,2.166L31.995,15.61a.189.189,0,0,1-.064.077.213.213,0,0,1-.155,0,3.646,3.646,0,0,0-3.313.632c-.052.052-.116.026-.168,0C27.367,15.932,20.122,12.877,19.091,12.439ZM40.644,6.109l6.574,6.574-1.586,9.81v.026l-.013.064c-.013.039-.052.039-.09.052a3.2,3.2,0,0,0-.941.464l-.039.026a.071.071,0,0,1-.064.039.163.163,0,0,1-.077-.013L34.379,18.9l-.013-.013c-.064-.026-.142-.052-.142-.116A3.992,3.992,0,0,0,33.7,17.2c-.052-.077-.1-.168-.064-.245Zm-6.78,14.811,9.4,3.97a.257.257,0,0,1,.129.1.141.141,0,0,1,0,.1,2.543,2.543,0,0,0-.052.451v.258c0,.064-.064.09-.129.116l-.013.013c-1.482.632-20.909,8.907-20.934,8.907a.123.123,0,0,1-.09-.026c-.052-.052,0-.129.052-.193l.026-.039,7.721-11.95.013-.026c.039-.077.09-.155.18-.155l.077.013a3.523,3.523,0,0,0,.49.052,3.483,3.483,0,0,0,2.913-1.547.155.155,0,0,1,.064-.064A.168.168,0,0,1,33.864,20.921ZM23.1,36.737l21.166-9.011a.13.13,0,0,1,.064.026c.116.116.219.193.309.271l.052.026c.039.026.09.052.09.09v.039L42.964,39.3l-.013.039c-.013.09-.026.18-.1.18a2.981,2.981,0,0,0-2.372,1.457l-.013.013a.347.347,0,0,1-.09.1.179.179,0,0,1-.116,0l-16.874-3.48Z" transform="translate(0 0)" fill="#c1c2de"/>
  </g>
</svg>
