<svg xmlns="http://www.w3.org/2000/svg" width="111" height="39.563" viewBox="0 0 111 39.563">
  <path id="XMLID_1_" d="M72.206,221.846a13.341,13.341,0,0,1-8.12-2.716,15.463,15.463,0,0,1-1.694-1.694,11.262,11.262,0,0,1-1.84-3.3c-1.2-3.592-.584-8.295,1.752-13.464,2.015-4.41,5.111-8.791,10.515-14.866.789-.905,3.154-3.5,3.184-3.5a5.18,5.18,0,0,1-.292.5,32.572,32.572,0,0,0-3.271,7.535c-1.051,3.855-.935,7.156.38,9.726a9.639,9.639,0,0,0,4.147,4.147c3.008,1.49,7.448,1.606,12.822.35.38-.088,18.78-4.965,40.89-10.865l40.277-10.719-78.1,33.413c-4.235,1.811-5.345,2.249-7.331,2.95A37.429,37.429,0,0,1,72.206,221.846Z" transform="translate(-59.956 -182.3)" fill="#c1c2de"/>
</svg>
