<svg xmlns="http://www.w3.org/2000/svg" xmlns:xlink="http://www.w3.org/1999/xlink" width="679.544" height="570.289" viewBox="0 0 679.544 570.289">
  <defs>
    <filter id="Path_380" x="0" y="165.047" width="679.544" height="405.242" filterUnits="userSpaceOnUse">
      <feOffset dy="3" input="SourceAlpha"/>
      <feGaussianBlur stdDeviation="6.5" result="blur"/>
      <feFlood flood-opacity="0.475"/>
      <feComposite operator="in" in2="blur"/>
      <feComposite in="SourceGraphic"/>
    </filter>
  </defs>
  <g id="send_us_a_message_" data-name="send us a message " transform="translate(-343.572 -6088.157)">
    <g id="paper-plane-svgrepo-com" transform="translate(664.453 6078.125)">
      <path id="Path_377" data-name="Path 377" d="M34.832,52.9l83.691-42.866L49.12,61.063,89.945,87.6l28.577-77.567L0,34.527Z" transform="translate(0 0)" fill="rgba(70,181,209,0.6)"/>
      <path id="Path_378" data-name="Path 378" d="M31.353,61.063,23.316,87.6,17.064,52.9l83.691-42.866Z" transform="translate(17.768 0)" fill="#46b5d1"/>
      <path id="Path_379" data-name="Path 379" d="M28.229,35.032,20.064,61.568,44.249,45.444Z" transform="translate(20.891 26.031)" fill="#378498"/>
    </g>
    <rect id="Rectangle_43" data-name="Rectangle 43" width="15" height="4" rx="2" transform="matrix(0.848, -0.53, 0.53, 0.848, 685.08, 6174.278)" fill="rgba(144,156,209,0.7)"/>
    <rect id="Rectangle_44" data-name="Rectangle 44" width="15" height="4" rx="2" transform="matrix(0.848, -0.53, 0.53, 0.848, 668.08, 6184.278)" fill="rgba(144,156,209,0.7)"/>
    <rect id="Rectangle_45" data-name="Rectangle 45" width="15" height="4" rx="2" transform="matrix(0.848, -0.53, 0.53, 0.848, 651.08, 6194.278)" fill="rgba(144,156,209,0.7)"/>
    <rect id="Rectangle_46" data-name="Rectangle 46" width="15" height="4" rx="2" transform="matrix(0.799, -0.602, 0.602, 0.799, 636.307, 6205.917)" fill="rgba(144,156,209,0.7)"/>
    <rect id="Rectangle_47" data-name="Rectangle 47" width="15" height="4" rx="2" transform="translate(622.588 6219.532) rotate(-42)" fill="rgba(144,156,209,0.7)"/>
    <rect id="Rectangle_48" data-name="Rectangle 48" width="15" height="4" rx="2" transform="translate(609.782 6231.889) rotate(-45)" fill="rgba(144,156,209,0.7)"/>
    <rect id="Rectangle_49" data-name="Rectangle 49" width="15" height="4" rx="2" transform="translate(599.738 6247.201) rotate(-57)" fill="rgba(144,156,209,0.7)"/>
    <rect id="Rectangle_50" data-name="Rectangle 50" width="15" height="4" rx="2" transform="matrix(0.358, -0.934, 0.934, 0.358, 591.945, 6265.285)" fill="rgba(144,156,209,0.7)"/>
    <rect id="Rectangle_51" data-name="Rectangle 51" width="15" height="4" rx="2" transform="matrix(0.122, -0.993, 0.993, 0.122, 588.601, 6284.201)" fill="rgba(144,156,209,0.7)"/>
    <rect id="Rectangle_52" data-name="Rectangle 52" width="15" height="4" rx="2" transform="translate(590.833 6304.733) rotate(-100)" fill="rgba(144,156,209,0.7)"/>
    <rect id="Rectangle_53" data-name="Rectangle 53" width="15" height="4" rx="2" transform="translate(602.29 6322.243) rotate(-126)" fill="rgba(144,156,209,0.7)"/>
    <g id="isometric" transform="translate(363 6234)">
      <g transform="matrix(1, 0, 0, 1, -19.43, -145.84)" filter="url(#Path_380)">
        <path id="Path_380-2" data-name="Path 380" d="M419.461,17.288a44.207,44.207,0,0,1,23.143,5.89L605.026,116.9v-2.971h35.706v26.955h-.052A18.848,18.848,0,0,1,631.3,156L252.974,374.246a69.247,69.247,0,0,1-69.222,0L10.7,274.427A20.941,20.941,0,0,1,.221,255.089V228.082H35.874V232.3L398.4,23.178A44.218,44.218,0,0,1,419.461,17.288Z" transform="translate(19.31 164.27)" fill="rgba(21,25,101,0.96)"/>
      </g>
      <path id="Path_381" data-name="Path 381" d="M603.047,1748.346l188.716,108.89a18.85,18.85,0,0,1,0,32.655L413.439,2108.143a69.257,69.257,0,0,1-69.211,0l-173.065-99.865a20.938,20.938,0,0,1,0-36.274l387.688-223.658a44.235,44.235,0,0,1,44.194.005Z" transform="translate(-160.687 -1742.434)" fill="#c8d0f0"/>
      <path id="Path_382" data-name="Path 382" d="M483.453,1743.834,683.26,1859.1,362.676,2044.068,162.939,1928.8Z" transform="translate(-102.847 -1706.468)" fill="#7ab9c8"/>
      <path id="Path_384" data-name="Path 384" d="M17.8,0c9.832,0,17.8,4.891,17.8,10.924s-7.97,10.924-17.8,10.924S0,16.957,0,10.924,7.97,0,17.8,0Z" transform="translate(112.644 285.397)" fill="#373a74"/>
      <ellipse id="Ellipse_28" data-name="Ellipse 28" cx="8.901" cy="5.395" rx="8.901" ry="5.395" transform="translate(522.896 85.8)" fill="#3a3d77"/>
      <path id="Path_383" data-name="Path 383" d="M212.732,1779.113c3.879,1.362,8.815.812,11.537-1.4,2.728-2.158,2.4-5.217-.768-7.15l-42.82-24.813a13.191,13.191,0,0,0-8.616-1.4c-3.08.54-5.485,1.969-6.307,3.845s.055,3.871,2.309,5.249" transform="translate(287.161 -1698.172)" fill="#3a3d77"/>
    </g>
    <path id="Path_385" data-name="Path 385" d="M2,0H13a2,2,0,0,1,0,4H2A2,2,0,0,1,2,0Z" transform="translate(620.358 6328.636) rotate(-167)" fill="rgba(144,156,209,0.7)"/>
    <rect id="Rectangle_55" data-name="Rectangle 55" width="15" height="4" rx="2" transform="translate(640.146 6327.338) rotate(175)" fill="rgba(144,156,209,0.7)"/>
    <rect id="Rectangle_56" data-name="Rectangle 56" width="15" height="4" rx="2" transform="matrix(-0.799, 0.602, -0.602, -0.799, 657.693, 6316.083)" fill="rgba(144,156,209,0.7)"/>
    <rect id="Rectangle_57" data-name="Rectangle 57" width="15" height="4" rx="2" transform="translate(666.055 6298.715) rotate(111)" fill="rgba(144,156,209,0.7)"/>
    <rect id="Rectangle_58" data-name="Rectangle 58" width="15" height="4" rx="2" transform="translate(664.437 6279.295) rotate(82)" fill="rgba(144,156,209,0.7)"/>
    <rect id="Rectangle_59" data-name="Rectangle 59" width="15" height="4" rx="2" transform="matrix(0.629, 0.777, -0.777, 0.629, 653.334, 6262.913)" fill="rgba(144,156,209,0.7)"/>
    <rect id="Rectangle_60" data-name="Rectangle 60" width="15" height="4" rx="2" transform="translate(634.405 6258.851) rotate(9)" fill="rgba(144,156,209,0.7)"/>
    <rect id="Rectangle_61" data-name="Rectangle 61" width="15" height="4" rx="2" transform="translate(618.588 6271.532) rotate(-42)" fill="rgba(144,156,209,0.7)"/>
    <rect id="Rectangle_62" data-name="Rectangle 62" width="15" height="4" rx="2" transform="translate(613.627 6289.727) rotate(-75)" fill="rgba(144,156,209,0.7)"/>
    <rect id="Rectangle_63" data-name="Rectangle 63" width="15" height="4" rx="2" transform="translate(619.186 6309.731) rotate(-110)" fill="rgba(144,156,209,0.7)"/>
    <rect id="Rectangle_64" data-name="Rectangle 64" width="15" height="4" rx="2" transform="matrix(-0.545, -0.839, 0.839, -0.545, 629.907, 6326.379)" fill="rgba(144,156,209,0.7)"/>
    <rect id="Rectangle_65" data-name="Rectangle 65" width="15" height="4" rx="2" transform="translate(643.152 6341.849) rotate(-133)" fill="rgba(144,156,209,0.7)"/>
    <rect id="Rectangle_66" data-name="Rectangle 66" width="15" height="4" rx="2" transform="translate(655.152 6355.849) rotate(-133)" fill="rgba(144,156,209,0.7)"/>
    <rect id="Rectangle_67" data-name="Rectangle 67" width="15" height="4" rx="2" transform="matrix(-0.766, -0.643, 0.643, -0.766, 670.96, 6369.353)" fill="rgba(144,156,209,0.7)"/>
    <rect id="Rectangle_68" data-name="Rectangle 68" width="15" height="4" rx="2" transform="translate(684.848 6382.429) rotate(-139)" fill="rgba(144,156,209,0.7)"/>
  </g>
</svg>
