<svg xmlns="http://www.w3.org/2000/svg" xmlns:xlink="http://www.w3.org/1999/xlink" width="649.074" height="684.007" viewBox="0 0 649.074 684.007">
  <defs>
    <linearGradient id="linear-gradient" x1="0.871" y1="-0.519" x2="-1.119" y2="1.187" gradientUnits="objectBoundingBox">
      <stop offset="0" stop-color="#07205a" stop-opacity="0.294"/>
      <stop offset="1" stop-color="#7987c3"/>
    </linearGradient>
  </defs>
  <g id="service2" transform="translate(-683.809 -3170.83)">
    <path id="second_curve" data-name="second curve" d="M1441.108,168.365c21.763,15.428,176.868,95.454,31.27,295.8-144.157,192.087-255.8,124.173-270.641,28.074-26-88.681-197.6,16.348-125.53-296.44S1419.346,152.937,1441.108,168.365Z" transform="translate(2325.16 3297.309) rotate(157)" fill="url(#linear-gradient)"/>
    <g id="Group_92" data-name="Group 92" transform="translate(35 81.101)">
      <path id="Path_310" data-name="Path 310" d="M194.921,8h-62A12.932,12.932,0,0,0,120,20.917V155.258a12.932,12.932,0,0,0,12.917,12.917h62a12.932,12.932,0,0,0,12.917-12.917V20.917A12.932,12.932,0,0,0,194.921,8Zm-13.485,5.167-1.55,7.75H147.953l-1.55-7.75Zm21.236,142.091a7.759,7.759,0,0,1-7.75,7.75h-62a7.759,7.759,0,0,1-7.75-7.75V20.917a7.759,7.759,0,0,1,7.75-7.75h8.216L143.3,24.008a2.583,2.583,0,0,0,2.533,2.077H182a2.584,2.584,0,0,0,2.533-2.077l2.168-10.84h8.216a7.759,7.759,0,0,1,7.75,7.75Z" transform="translate(830.761 3281.911)" fill="#7987c3"/>
      <path id="Path_311" data-name="Path 311" d="M170.084,456h-15.5a2.583,2.583,0,1,0,0,5.167h15.5a2.583,2.583,0,1,0,0-5.167Z" transform="translate(834.374 2980.271)" fill="#7987c3"/>
      <g id="apple_1_" data-name="apple (1)" transform="translate(1017.329 3423.195)">
        <g id="Group_76" data-name="Group 76">
          <path id="Path_321" data-name="Path 321" d="M54.2,0H13.982A14,14,0,0,0,0,13.982V54.2A14,14,0,0,0,13.982,68.181H54.2A14,14,0,0,0,68.181,54.2V13.982A14,14,0,0,0,54.2,0ZM36.046,13.488a9.919,9.919,0,0,1,7.278-4.033,9.9,9.9,0,0,1-2.4,7.408c-3.23,3.881-6.9,3.246-6.9,3.246S33.338,17.056,36.046,13.488Zm6.675,42.241c-2.708,0-4.812-1.825-7.665-1.825-2.907,0-5.792,1.893-7.671,1.893C22,55.8,15.2,44.144,15.2,34.777c0-9.216,5.756-14.05,11.155-14.05,3.51,0,6.234,2.024,8.058,2.024,1.567,0,4.474-2.153,8.258-2.153a10.343,10.343,0,0,1,9.076,4.635,10.063,10.063,0,0,0-5.012,8.78,10.319,10.319,0,0,0,6.243,9.431S48.616,55.729,42.721,55.729Z" fill="#7987c3"/>
        </g>
      </g>
      <g id="android_1_" data-name="android (1)" transform="translate(917.353 3407.038)">
        <g id="Group_78" data-name="Group 78" transform="translate(14.482 32.59)">
          <g id="Group_77" data-name="Group 77" transform="translate(0)">
            <path id="Path_322" data-name="Path 322" d="M176.7,192.034h-36.2a1.811,1.811,0,0,0-1.81,1.81v28.963a9.067,9.067,0,0,0,7.241,8.87v9.232a5.431,5.431,0,1,0,10.861,0v-9.051h3.62v9.051a5.431,5.431,0,1,0,10.861,0v-9.232a9.064,9.064,0,0,0,7.241-8.87V193.844A1.809,1.809,0,0,0,176.7,192.034Z" transform="translate(-138.683 -192.034)" fill="#7987c3"/>
          </g>
        </g>
        <g id="Group_80" data-name="Group 80" transform="translate(14.482 0)">
          <g id="Group_79" data-name="Group 79" transform="translate(0 0)">
            <path id="Path_323" data-name="Path 323" d="M168.071,9.647l3.052-7.121A1.809,1.809,0,1,0,167.8,1.1l-3.052,7.125a19.728,19.728,0,0,0-12.288,0L149.4,1.1a1.808,1.808,0,1,0-3.324,1.423l3.052,7.121a19.926,19.926,0,0,0-10.441,17.512,1.811,1.811,0,0,0,1.81,1.81h36.2a1.811,1.811,0,0,0,1.81-1.81A19.93,19.93,0,0,0,168.071,9.647ZM151.355,21.728a1.81,1.81,0,1,1,1.81-1.81A1.811,1.811,0,0,1,151.355,21.728Zm14.482,0a1.81,1.81,0,1,1,1.81-1.81A1.811,1.811,0,0,1,165.837,21.728Z" transform="translate(-138.684 0.001)" fill="#7987c3"/>
          </g>
        </g>
        <g id="Group_82" data-name="Group 82" transform="translate(57.927 32.59)">
          <g id="Group_81" data-name="Group 81">
            <path id="Path_324" data-name="Path 324" d="M400.115,192.034a5.437,5.437,0,0,0-5.431,5.431v18.1a5.431,5.431,0,0,0,10.861,0v-18.1A5.437,5.437,0,0,0,400.115,192.034Z" transform="translate(-394.684 -192.034)" fill="#7987c3"/>
          </g>
        </g>
        <g id="Group_84" data-name="Group 84" transform="translate(0 32.59)">
          <g id="Group_83" data-name="Group 83">
            <path id="Path_325" data-name="Path 325" d="M58.781,192.034a5.437,5.437,0,0,0-5.431,5.431v18.1a5.431,5.431,0,0,0,10.861,0v-18.1A5.437,5.437,0,0,0,58.781,192.034Z" transform="translate(-53.35 -192.034)" fill="#7987c3"/>
          </g>
        </g>
      </g>
    </g>
    <text id="Mobile_app_development" data-name="Mobile app development" transform="translate(917 3605)" fill="#8b99d1" font-size="23" font-family="Roboto-Medium, Roboto" font-weight="500"><tspan x="0" y="21">Mobile app development</tspan></text>
  </g>
</svg>
