<svg xmlns="http://www.w3.org/2000/svg" xmlns:xlink="http://www.w3.org/1999/xlink" width="573.77" height="516.506" viewBox="0 0 573.77 516.506">
  <defs>
    <linearGradient id="linear-gradient" x1="0.871" y1="-0.519" x2="-1.119" y2="1.187" gradientUnits="objectBoundingBox">
      <stop offset="0" stop-color="#07205a" stop-opacity="0.294"/>
      <stop offset="1" stop-color="#7987c3"/>
    </linearGradient>
  </defs>
  <g id="Group_114" data-name="Group 114" transform="translate(-175.12 -3255.501)">
    <path id="second_curve" data-name="second curve" d="M1431.838,165.386c21.235,15.054,172.581,93.141,30.512,288.63-140.663,187.431-249.6,121.163-264.081,27.394-25.367-86.531-192.808,15.952-122.487-289.254S1410.6,150.333,1431.838,165.386Z" transform="translate(634.975 2197.882) rotate(84)" fill="url(#linear-gradient)"/>
    <g id="coding" transform="translate(394.647 3418.616)">
      <g id="Group_61" data-name="Group 61" transform="translate(111.318 106.773)">
        <g id="Group_60" data-name="Group 60">
          <path id="Path_302" data-name="Path 302" d="M394.872,374.916a2.853,2.853,0,1,0,.836,2.018A2.876,2.876,0,0,0,394.872,374.916Z" transform="translate(-390 -374.08)" fill="#7987c3"/>
        </g>
      </g>
      <g id="Group_63" data-name="Group 63" transform="translate(0 0)">
        <g id="Group_62" data-name="Group 62">
          <path id="Path_303" data-name="Path 303" d="M134.723,0H11.417A11.43,11.43,0,0,0,0,11.418v89.649a11.43,11.43,0,0,0,11.417,11.417H56.23v14.328a16.577,16.577,0,0,0-14.937,16.475,2.854,2.854,0,0,0,2.854,2.854h57.847a2.854,2.854,0,0,0,2.854-2.854A16.574,16.574,0,0,0,89.34,126.768V112.484h13.32a2.854,2.854,0,0,0,0-5.709H11.417a5.715,5.715,0,0,1-5.709-5.709V11.418A5.715,5.715,0,0,1,11.417,5.71H134.723a5.715,5.715,0,0,1,5.709,5.709v89.649a5.715,5.715,0,0,1-5.709,5.709H124.067a2.854,2.854,0,1,0,0,5.709h10.656a11.43,11.43,0,0,0,11.417-11.417V11.418A11.43,11.43,0,0,0,134.723,0ZM61.938,112.484H83.631v14.248H61.938ZM88.293,132.44a10.866,10.866,0,0,1,10.466,7.992H47.382a10.866,10.866,0,0,1,10.465-7.992Z" transform="translate(0 -0.001)" fill="#7987c3"/>
        </g>
      </g>
      <g id="Group_65" data-name="Group 65" transform="translate(69.93 97.64)">
        <g id="Group_64" data-name="Group 64">
          <path id="Path_304" data-name="Path 304" d="M249.872,342.917a2.853,2.853,0,1,0,.836,2.018A2.876,2.876,0,0,0,249.872,342.917Z" transform="translate(-245 -342.081)" fill="#7987c3"/>
        </g>
      </g>
      <g id="Group_67" data-name="Group 67" transform="translate(34.838 33.466)">
        <g id="Group_66" data-name="Group 66">
          <path id="Path_305" data-name="Path 305" d="M128.946,136.105l13.985-13.985a2.854,2.854,0,1,0-4.037-4.037l-16,16a2.855,2.855,0,0,0,0,4.037l16,16a2.854,2.854,0,1,0,4.037-4.037Z" transform="translate(-122.055 -117.248)" fill="#7987c3"/>
        </g>
      </g>
      <g id="Group_69" data-name="Group 69" transform="translate(89.59 33.466)">
        <g id="Group_68" data-name="Group 68">
          <path id="Path_306" data-name="Path 306" d="M334.753,134.087l-16-16a2.854,2.854,0,0,0-4.037,4.037L328.7,136.106,314.713,150.09a2.854,2.854,0,0,0,4.037,4.037l16-16A2.855,2.855,0,0,0,334.753,134.087Z" transform="translate(-313.877 -117.248)" fill="#7987c3"/>
        </g>
      </g>
      <g id="Group_71" data-name="Group 71" transform="translate(65.942 34.59)">
        <g id="Group_70" data-name="Group 70">
          <path id="Path_307" data-name="Path 307" d="M243.167,121.284a2.854,2.854,0,0,0-3.5,2.018l-8.545,31.891a2.854,2.854,0,1,0,5.514,1.478l8.545-31.891A2.854,2.854,0,0,0,243.167,121.284Z" transform="translate(-231.028 -121.186)" fill="#7987c3"/>
        </g>
      </g>
      <g id="Group_73" data-name="Group 73" transform="translate(11.417 11.441)">
        <g id="Group_72" data-name="Group 72">
          <path id="Path_308" data-name="Path 308" d="M160.451,40.084H115.068a2.854,2.854,0,0,0,0,5.709H157.6V117.15H45.709V45.793H89.522a2.854,2.854,0,1,0,0-5.709H42.854A2.854,2.854,0,0,0,40,42.938V120a2.854,2.854,0,0,0,2.854,2.854h117.6A2.854,2.854,0,0,0,163.306,120V42.938A2.854,2.854,0,0,0,160.451,40.084Z" transform="translate(-40 -40.084)" fill="#7987c3"/>
        </g>
      </g>
      <g id="Group_75" data-name="Group 75" transform="translate(70.787 11.44)">
        <g id="Group_74" data-name="Group 74">
          <path id="Path_309" data-name="Path 309" d="M252.872,40.917a2.856,2.856,0,1,0,.836,2.018A2.876,2.876,0,0,0,252.872,40.917Z" transform="translate(-248 -40.081)" fill="#7987c3"/>
        </g>
      </g>
    </g>
    <text id="We_develop_web_solutions" data-name="We develop web solutions" transform="translate(320 3605)" fill="#8b99d1" font-size="23" font-family="Roboto-Medium, Roboto" font-weight="500"><tspan x="0" y="21">We develop web solutions</tspan></text>
  </g>
</svg>
