<svg xmlns="http://www.w3.org/2000/svg" xmlns:xlink="http://www.w3.org/1999/xlink" width="686.422" height="674.552" viewBox="0 0 686.422 674.552">
  <defs>
    <linearGradient id="linear-gradient" x1="0.871" y1="-0.519" x2="-1.119" y2="1.187" gradientUnits="objectBoundingBox">
      <stop offset="0" stop-color="#07205a" stop-opacity="0.294"/>
      <stop offset="1" stop-color="#7987c3"/>
    </linearGradient>
  </defs>
  <g id="service3" transform="translate(-1218.526 -3174.237)">
    <path id="second_curve" data-name="second curve" d="M1449.385,171.788s150.2,84.852,9.39,278.61c-130.948,176.441-247.389,120.091-261.742,27.151-25.143-85.765-191.1,15.81-121.4-286.693S1449.385,171.788,1449.385,171.788Z" transform="matrix(-0.588, -0.809, 0.809, -0.588, 2069.891, 4735.411)" fill="url(#linear-gradient)"/>
    <g id="web-programming" transform="translate(1498.512 3433.855)">
      <path id="Path_313" data-name="Path 313" d="M132.632,211.723a2.351,2.351,0,0,1-1.528-.564L115.83,198.153a2.361,2.361,0,0,1,0-3.595L131.1,181.552a2.36,2.36,0,1,1,3.06,3.593L121,196.355l13.163,11.209a2.361,2.361,0,0,1-1.532,4.158Zm0,0" transform="translate(-76.222 -119.959)" fill="#7987c3"/>
      <path id="Path_314" data-name="Path 314" d="M252.069,211.723a2.362,2.362,0,0,1-1.532-4.158L263.7,196.355l-13.163-11.209a2.36,2.36,0,0,1,3.06-3.593l15.274,13.006a2.361,2.361,0,0,1,0,3.595L253.6,211.159A2.351,2.351,0,0,1,252.069,211.723Zm0,0" transform="translate(-165.505 -119.959)" fill="#7987c3"/>
      <path id="Path_315" data-name="Path 315" d="M191.318,202.943a2.4,2.4,0,0,1-.49-.051A2.361,2.361,0,0,1,189,200.1l9.519-45.2a2.36,2.36,0,0,1,4.619.973l-9.519,45.2A2.361,2.361,0,0,1,191.318,202.943Zm0,0" transform="translate(-125.238 -101.424)" fill="#7987c3"/>
      <path id="Path_316" data-name="Path 316" d="M127.126,126.143H15.849A15.866,15.866,0,0,1,0,110.294V15.849A15.867,15.867,0,0,1,15.849,0H127.126a15.867,15.867,0,0,1,15.849,15.849v94.446A15.866,15.866,0,0,1,127.126,126.143ZM15.849,4.721A11.141,11.141,0,0,0,4.721,15.849v94.446a11.141,11.141,0,0,0,11.128,11.128H127.126a11.141,11.141,0,0,0,11.128-11.128V15.849A11.141,11.141,0,0,0,127.126,4.721Zm0,0" fill="#7987c3"/>
      <path id="Path_317" data-name="Path 317" d="M140.614,102.811H2.36a2.36,2.36,0,1,1,0-4.721H140.614a2.36,2.36,0,1,1,0,4.721Zm0,0" transform="translate(0 -65.014)" fill="#7987c3"/>
      <path id="Path_318" data-name="Path 318" d="M104.919,49.229a7.47,7.47,0,1,1,7.47-7.47A7.48,7.48,0,0,1,104.919,49.229Zm0-10.219a2.749,2.749,0,1,0,2.749,2.749A2.753,2.753,0,0,0,104.919,39.01Zm0,0" transform="translate(-64.589 -22.727)" fill="#7987c3"/>
      <path id="Path_319" data-name="Path 319" d="M36.857,49.014a7.47,7.47,0,1,1,7.47-7.47A7.478,7.478,0,0,1,36.857,49.014Zm0-10.219a2.749,2.749,0,1,0,2.749,2.749A2.753,2.753,0,0,0,36.857,38.8Zm0,0" transform="translate(-19.477 -22.584)" fill="#7987c3"/>
      <path id="Path_320" data-name="Path 320" d="M172.984,49.442a7.469,7.469,0,1,1,7.47-7.47A7.478,7.478,0,0,1,172.984,49.442Zm0-10.219a2.749,2.749,0,1,0,2.749,2.749A2.751,2.751,0,0,0,172.984,39.223Zm0,0" transform="translate(-109.703 -22.869)" fill="#7987c3"/>
    </g>
    <text id="Software_development_training" data-name="Software development training" transform="translate(1455 3605)" fill="#8b99d1" font-size="23" font-family="Roboto-Medium, Roboto" font-weight="500"><tspan x="0" y="21">Software development </tspan><tspan x="0" y="48">training</tspan></text>
  </g>
</svg>
