<svg xmlns="http://www.w3.org/2000/svg" width="57.92" height="57.92" viewBox="0 0 57.92 57.92">
  <g id="diamond_shape" data-name="diamond shape" transform="translate(-481.165 -935.534) rotate(-45)">
    <rect id="Rectangle_8" data-name="Rectangle 8" width="12.77" height="12.77" transform="translate(-321.287 1001.757) rotate(45)" fill="rgba(139,153,209,0.06)"/>
    <rect id="Rectangle_12" data-name="Rectangle 12" width="12.77" height="12.77" transform="translate(-310.645 1012.399) rotate(45)" fill="rgba(139,153,209,0.06)"/>
    <rect id="Rectangle_13" data-name="Rectangle 13" width="12.77" height="12.77" transform="translate(-300.003 1023.041) rotate(45)" fill="rgba(139,153,209,0.06)"/>
    <rect id="Rectangle_14" data-name="Rectangle 14" width="12.77" height="12.77" transform="translate(-289.362 1033.683) rotate(45)" fill="rgba(139,153,209,0.06)"/>
    <rect id="Rectangle_9" data-name="Rectangle 9" width="12.77" height="12.77" transform="translate(-331.929 1012.399) rotate(45)" fill="rgba(139,153,209,0.06)"/>
    <rect id="Rectangle_10" data-name="Rectangle 10" width="12.77" height="12.77" transform="translate(-342.571 1023.041) rotate(45)" fill="rgba(139,153,209,0.06)"/>
    <rect id="Rectangle_11" data-name="Rectangle 11" width="12.77" height="12.77" transform="translate(-353.213 1033.683) rotate(45)" fill="rgba(139,153,209,0.06)"/>
    <rect id="Rectangle_15" data-name="Rectangle 15" width="12.77" height="12.77" transform="translate(-342.571 1044.325) rotate(45)" fill="rgba(139,153,209,0.06)"/>
    <rect id="Rectangle_16" data-name="Rectangle 16" width="12.77" height="12.77" transform="translate(-331.929 1054.967) rotate(45)" fill="rgba(139,153,209,0.06)"/>
    <rect id="Rectangle_17" data-name="Rectangle 17" width="12.77" height="12.77" transform="translate(-321.287 1065.608) rotate(45)" fill="rgba(139,153,209,0.06)"/>
    <rect id="Rectangle_18" data-name="Rectangle 18" width="12.77" height="12.77" transform="translate(-310.645 1054.967) rotate(45)" fill="rgba(139,153,209,0.06)"/>
    <rect id="Rectangle_19" data-name="Rectangle 19" width="12.77" height="12.77" transform="translate(-300.003 1044.325) rotate(45)" fill="rgba(139,153,209,0.06)"/>
  </g>
</svg>
