<svg xmlns="http://www.w3.org/2000/svg" xmlns:xlink="http://www.w3.org/1999/xlink" width="518.77" height="52.069" viewBox="0 0 518.77 52.069">
  <defs>
    <linearGradient id="linear-gradient" x1="0.13" y1="0.12" x2="0.796" y2="0.782" gradientUnits="objectBoundingBox">
      <stop offset="0" stop-color="#387eb8"/>
      <stop offset="1" stop-color="#366994"/>
    </linearGradient>
    <linearGradient id="linear-gradient-2" x1="0.191" y1="0.206" x2="0.907" y2="0.884" gradientUnits="objectBoundingBox">
      <stop offset="0" stop-color="#ffe052"/>
      <stop offset="1" stop-color="#ffc331"/>
    </linearGradient>
  </defs>
  <g id="Group_17" data-name="Group 17" transform="translate(-992 -1787.37)">
    <g id="react" transform="translate(992 1787.576)">
      <path id="Path_229" data-name="Path 229" d="M.754,25.665c0,4.195,4.1,8.111,10.554,10.318-1.29,6.492-.231,11.725,3.3,13.764,3.634,2.1,9.048.645,14.186-3.847,5.009,4.31,10.071,6.007,13.6,3.962,3.631-2.1,4.735-7.689,3.409-14.384C52.537,33.254,56.3,29.915,56.3,25.665c0-4.1-4.1-7.642-10.474-9.835,1.427-6.971.218-12.077-3.464-14.2-3.55-2.047-8.671-.263-13.753,4.16-5.288-4.695-10.358-6.128-14.036-4-3.546,2.053-4.558,7.381-3.264,13.993C5.068,17.959.754,21.584.754,25.665Z" transform="translate(-0.754 -0.785)" fill="none"/>
      <path id="Path_230" data-name="Path 230" d="M55.8,28.74q-.788-.27-1.588-.5.133-.539.245-1.083c1.2-5.835.416-10.536-2.268-12.083-2.573-1.484-6.782.063-11.032,3.762q-.628.548-1.228,1.127-.4-.385-.817-.755c-4.455-3.955-8.92-5.622-11.6-4.07-2.571,1.488-3.332,5.908-2.25,11.437q.162.821.365,1.634c-.632.179-1.242.371-1.826.574-5.222,1.821-8.558,4.675-8.558,7.634,0,3.057,3.58,6.124,9.02,7.983q.662.225,1.334.417-.218.875-.388,1.761c-1.032,5.434-.226,9.748,2.338,11.227,2.648,1.527,7.093-.043,11.422-3.826q.513-.449,1.029-.949.65.627,1.333,1.217c4.192,3.608,8.333,5.064,10.895,3.581,2.646-1.532,3.506-6.167,2.389-11.806q-.128-.646-.3-1.319.468-.138.917-.286c5.655-1.874,9.334-4.9,9.334-8,0-2.971-3.443-5.844-8.771-7.678Z" transform="translate(-12.08 -11.517)" fill="#53c1de"/>
      <path id="Path_231" data-name="Path 231" d="M62.12,49.946c-.27.089-.546.176-.828.259a49.461,49.461,0,0,0-2.5-6.249,49.439,49.439,0,0,0,2.4-6.158c.5.146.994.3,1.466.463,4.565,1.571,7.349,3.895,7.349,5.685,0,1.907-3.007,4.383-7.89,6ZM60.094,53.96a17.845,17.845,0,0,1,.237,6.511,4.355,4.355,0,0,1-1.615,3.062c-1.555.9-4.879-.27-8.464-3.355q-.617-.53-1.24-1.131a49.52,49.52,0,0,0,4.135-5.25,49.193,49.193,0,0,0,6.681-1.03Q59.978,53.376,60.094,53.96ZM39.605,63.378a4.355,4.355,0,0,1-3.46.13c-1.556-.9-2.2-4.362-1.321-9.009q.157-.824.36-1.638a49.555,49.555,0,0,0,6.648.962,51.28,51.28,0,0,0,4.234,5.232q-.459.444-.94.865a17.847,17.847,0,0,1-5.522,3.457ZM32.49,49.934a17.852,17.852,0,0,1-5.753-3.056A4.355,4.355,0,0,1,24.9,43.945c0-1.8,2.678-4.087,7.145-5.644q.841-.292,1.7-.534a50.541,50.541,0,0,0,2.4,6.23,51.308,51.308,0,0,0-2.434,6.319q-.613-.176-1.218-.381ZM34.875,33.7c-.927-4.738-.312-8.312,1.238-9.209,1.65-.955,5.3.407,9.146,3.822.246.218.493.447.74.683a50.5,50.5,0,0,0-4.2,5.2,51.493,51.493,0,0,0-6.583,1.023q-.189-.756-.339-1.52Zm21.278,5.254q-.723-1.249-1.5-2.467c1.574.2,3.082.463,4.5.786a44.95,44.95,0,0,1-1.579,4.248q-.684-1.3-1.419-2.567ZM47.476,30.5a45.067,45.067,0,0,1,2.9,3.5q-2.913-.138-5.83,0c.958-1.264,1.94-2.438,2.927-3.5Zm-8.733,8.466q-.726,1.259-1.392,2.551c-.614-1.455-1.139-2.887-1.567-4.268,1.407-.315,2.908-.572,4.472-.768Q39.47,37.706,38.743,38.966ZM40.3,51.559a44.87,44.87,0,0,1-4.546-.731c.436-1.406.972-2.868,1.6-4.355q.669,1.293,1.4,2.553.744,1.285,1.549,2.533Zm7.234,5.979c-1-1.078-1.995-2.27-2.968-3.552q1.417.056,2.886.056,1.508,0,2.978-.066A44.814,44.814,0,0,1,47.534,57.539ZM57.592,46.4a44.756,44.756,0,0,1,1.657,4.339,44.723,44.723,0,0,1-4.6.784q.782-1.24,1.514-2.51.744-1.291,1.431-2.614Zm-3.256,1.561q-1.121,1.947-2.367,3.818c-1.464.1-2.976.158-4.517.158s-3.028-.048-4.466-.141q-1.277-1.866-2.411-3.824T38.471,44q.974-2.027,2.1-3.977h0q1.123-1.949,2.392-3.808c1.467-.111,2.971-.169,4.492-.169s3.033.059,4.5.17q1.255,1.855,2.377,3.795t2.127,3.958q-.988,2.034-2.12,3.993Zm4.347-23.532c1.652.953,2.294,4.794,1.256,9.832q-.1.492-.222.981a50.483,50.483,0,0,0-6.6-1.042,49.5,49.5,0,0,0-4.17-5.2q.554-.534,1.134-1.04C53.729,24.783,57.133,23.532,58.684,24.426Z" transform="translate(-19.625 -19.045)" fill="#121554"/>
      <path id="Path_232" data-name="Path 232" d="M112.449,94.665a4.405,4.405,0,1,1-4.4,4.4,4.4,4.4,0,0,1,4.4-4.4" transform="translate(-84.621 -74.17)" fill="#53c1de"/>
    </g>
    <g id="html5" transform="translate(1069.83 1787.576)">
      <path id="Path_224" data-name="Path 224" d="M225.04,247.784l-3.233-36.262h35.525L254.1,247.778l-14.548,4.033Z" transform="translate(-221.807 -201.668)" fill="#e44d26"/>
      <path id="Path_225" data-name="Path 225" d="M441.807,282.488l11.755-3.259,2.766-30.983H441.807Z" transform="translate(-424.044 -235.427)" fill="#f16529"/>
      <path id="Path_226" data-name="Path 226" d="M314.835,312.332H308.95l-.406-4.554h6.291V303.33H303.683l.107,1.193,1.093,12.256h9.952Zm0,11.55-.02.005-4.953-1.338L309.546,319h-4.464l.623,6.983,9.11,2.529.02-.006Z" transform="translate(-297.072 -286.063)" fill="#ebebeb"/>
      <path id="Path_227" data-name="Path 227" d="M262.745,89.47h2.26V91.7h2.067V89.47h2.26v6.762h-2.26V93.968h-2.067v2.264h-2.26Zm9.56,2.242h-1.99V89.47h6.241v2.242h-1.991v4.519H272.3V91.712Zm5.241-2.242H279.9l1.45,2.376L282.8,89.47h2.358v6.762h-2.251V92.88l-1.555,2.4h-.039l-1.556-2.4v3.352h-2.211V89.47Zm8.737,0h2.261V94h3.179v2.235h-5.439Z" transform="translate(-259.44 -89.47)" fill="rgba(255,255,255,0.9)"/>
      <path id="Path_228" data-name="Path 228" d="M441.617,312.332v4.447h5.477l-.516,5.768-4.96,1.339v4.627l9.117-2.527.067-.752,1.045-11.708.109-1.194H441.617Zm0-9v4.447H452.36l.089-1,.2-2.255.106-1.193Z" transform="translate(-423.87 -286.063)" fill="#fff"/>
    </g>
    <g id="flutter-logo" transform="translate(1253.43 1787.576)">
      <path id="Path_233" data-name="Path 233" d="M36.353,76.683,22.84,63.259l7.468-7.6L51.374,76.683Z" transform="translate(-11.079 -26.746)" fill="#02539a" fill-rule="evenodd"/>
      <g id="Group_14" data-name="Group 14" transform="translate(0 0)">
        <path id="Path_234" data-name="Path 234" d="M22.52,57.963,35.913,44.57H50.97L30.135,65.406Z" transform="translate(-10.926 -21.44)" fill="rgba(69,209,253,0.85)" fill-rule="evenodd"/>
        <path id="Path_235" data-name="Path 235" d="M.29,25.061l7.6,7.6L40.334.22H25.2Z" transform="translate(-0.29 -0.22)" fill="#45d1fd" fill-rule="evenodd"/>
      </g>
    </g>
    <g id="nodejs-icon" transform="translate(1185.564 1787.37)">
      <path id="Path_252" data-name="Path 252" d="M21.316,1.12a4.208,4.208,0,0,1,4.108,0q9.381,5.3,18.763,10.6a3.862,3.862,0,0,1,1.951,3.326V36.3a3.9,3.9,0,0,1-2.1,3.4q-9.35,5.271-18.7,10.547a4.089,4.089,0,0,1-4.153-.115q-2.8-1.625-5.61-3.244a3.3,3.3,0,0,1-1.082-.779c.238-.321.665-.361,1.011-.5a13.093,13.093,0,0,0,2.213-1.033.517.517,0,0,1,.576.034c1.6.916,3.182,1.859,4.785,2.767.342.2.688-.065.981-.228q9.175-5.186,18.357-10.359a.607.607,0,0,0,.333-.6q.006-10.52,0-21.041a.658.658,0,0,0-.392-.656Q33.049,9.25,23.736,4A.647.647,0,0,0,23,4Q13.688,9.246,4.375,14.5a.65.65,0,0,0-.394.653q0,10.52,0,21.043a.6.6,0,0,0,.338.59Q6.805,38.2,9.295,39.6a3.844,3.844,0,0,0,3.111.416,2.36,2.36,0,0,0,1.528-2.217c.009-6.972,0-13.946.006-20.917a.525.525,0,0,1,.572-.536c.8-.005,1.594-.011,2.39,0a.551.551,0,0,1,.52.638c0,7.017.009,14.033-.005,21.05a5.337,5.337,0,0,1-2.5,4.82,7.686,7.686,0,0,1-6.87-.189C6.228,41.753,4.489,40.679,2.7,39.7a3.9,3.9,0,0,1-2.1-3.4V15.044a3.87,3.87,0,0,1,2.018-3.369Q11.969,6.4,21.316,1.12Z" transform="translate(-0.603 -0.584)" fill="#8cc84b"/>
      <path id="Path_253" data-name="Path 253" d="M112.311,85.672c2.718-.175,5.628-.1,8.074,1.235a6.106,6.106,0,0,1,2.977,5.284.572.572,0,0,1-.62.421c-.789,0-1.577.011-2.366-.005a.61.61,0,0,1-.571-.591,3.6,3.6,0,0,0-1.723-2.489,10.214,10.214,0,0,0-4.727-.676,6.417,6.417,0,0,0-3.384.843,2.144,2.144,0,0,0-.713,2.4c.253.6.948.8,1.517.975,3.276.857,6.747.771,9.96,1.9a4.689,4.689,0,0,1,3.087,2.746,5.866,5.866,0,0,1-.994,5.6,7.843,7.843,0,0,1-4.21,2.269,20.228,20.228,0,0,1-6.355.27,10.015,10.015,0,0,1-5.59-2.1,5.867,5.867,0,0,1-1.889-4.628.53.53,0,0,1,.58-.467c.794-.006,1.588-.009,2.383,0a.557.557,0,0,1,.569.55,3.61,3.61,0,0,0,1.343,2.534c1.614,1.041,3.639.97,5.488,1,1.531-.068,3.25-.088,4.5-1.1a2.485,2.485,0,0,0,.676-2.374c-.193-.7-.927-1.028-1.557-1.242-3.234-1.023-6.744-.652-9.946-1.809a4.841,4.841,0,0,1-3.057-2.664,5.456,5.456,0,0,1,1.09-5.677,8.8,8.8,0,0,1,5.46-2.194Z" transform="translate(-86.162 -70.409)" fill="#8cc84b"/>
    </g>
    <g id="css-5" transform="translate(1127.704 1787.37)">
      <path id="Path_245" data-name="Path 245" d="M397.583,1.857h-2.949l3.067,3.33V6.77h-6.319V4.916h3.067l-3.067-3.33V0h6.2Zm-7.455,0h-2.953l3.071,3.33V6.77h-6.321V4.916h3.067l-3.067-3.33V0h6.2Zm-7.383.076h-3.182V4.839h3.182V6.772H377.3V0h5.446Z" transform="translate(-369.727)" fill="#fff"/>
      <path id="Path_246" data-name="Path 246" d="M3.236,527.685,0,491.4H35.549l-3.24,36.279-14.557,4.035Z" transform="translate(0 -481.536)" fill="#1572b6"/>
      <path id="Path_247" data-name="Path 247" d="M885.5,673.464l11.763-3.262,2.766-31H885.5Z" transform="translate(-867.726 -626.37)" fill="#33a9dc"/>
      <path id="Path_248" data-name="Path 248" d="M885.5,854.5h5.889l.405-4.556H885.5V845.5h11.16l-.106,1.194-1.094,12.264H885.5Z" transform="translate(-867.726 -828.529)" fill="#fff"/>
      <path id="Path_249" data-name="Path 249" d="M410.357,1631.288h-.02l-4.956-1.339-.317-3.549H400.6l.624,6.987,9.117,2.537h.026v-4.637Z" transform="translate(-392.559 -1593.754)" fill="#ebebeb"/>
      <path id="Path_250" data-name="Path 250" d="M891.6,1506.2l-.536,5.956L886.1,1513.5v4.637l9.123-2.529.066-.753.775-8.651H891.6Z" transform="translate(-868.314 -1475.967)" fill="#fff"/>
      <path id="Path_251" data-name="Path 251" d="M342.048,845.5v4.45H331.3l-.092-1-.2-2.256L330.9,845.5Zm-.016,9v4.45h-4.9l-.086-1-.2-2.256-.106-1.194h5.293Z" transform="translate(-324.258 -828.529)" fill="#ebebeb"/>
    </g>
    <path id="graphql" d="M27.51,5.943,38.174,12.1a4.625,4.625,0,1,1,4.439,7.673V32.093a4.624,4.624,0,1,1-4.547,7.572l-10.6,6.119a4.622,4.622,0,1,1-8.824.149L7.982,39.777a4.625,4.625,0,1,1-4.438-7.685V19.773A4.625,4.625,0,1,1,7.978,12.1L18.645,5.936a4.622,4.622,0,1,1,8.864.007ZM26.4,7.84l10.69,6.172a4.617,4.617,0,0,0,3.327,5.75V32.1c-.06.015-.12.031-.179.048L26.274,7.964q.063-.061.124-.123Zm-6.513.126L5.924,32.147q-.091-.026-.182-.049V19.763a4.617,4.617,0,0,0,3.325-5.757l10.687-6.17q.065.067.132.131Zm4.484,1.1L38.328,33.237a4.64,4.64,0,0,0-1.3,2.256H9.13a4.6,4.6,0,0,0-1.3-2.251L21.791,9.063a4.67,4.67,0,0,0,2.579,0ZM26.5,44.127,37.117,38q-.048-.15-.085-.3H9.124q-.022.09-.048.179l10.672,6.162a4.628,4.628,0,0,1,6.748.094Z" transform="translate(1315.961 1787.576)" fill="#e535ab" fill-rule="evenodd"/>
    <g id="typescript" transform="translate(1384.457 1787.576)">
      <path id="Path_254" data-name="Path 254" d="M0,25.931V0H51.863V51.863H0" transform="translate(0 0)" fill="#007acc"/>
      <path id="Path_255" data-name="Path 255" d="M87.7,184.448v2.113h6.742V205.75h4.784V186.561h6.742v-2.075a16.16,16.16,0,0,0-.052-2.139c0-.039-4.11-.052-9.1-.052l-9.076.039v2.126l-.039-.013Zm30.3-2.165a6.278,6.278,0,0,1,3.241,1.854,8.158,8.158,0,0,1,1.245,1.66c0,.078-2.243,1.595-3.6,2.438-.052.039-.259-.182-.467-.519a2.965,2.965,0,0,0-2.438-1.452c-1.556-.1-2.593.713-2.593,2.075a2.049,2.049,0,0,0,.233.985c.35.713,1,1.141,3.008,2.023,3.708,1.595,5.316,2.645,6.288,4.149a7.555,7.555,0,0,1,.609,6.314c-.83,2.165-2.852,3.63-5.744,4.11a16.175,16.175,0,0,1-3.955-.039,9.789,9.789,0,0,1-5.277-2.762,9.268,9.268,0,0,1-1.348-2l.493-.311,1.945-1.128,1.465-.856.337.454a7.056,7.056,0,0,0,1.945,1.893c1.686.869,3.942.752,5.057-.259a1.943,1.943,0,0,0,.687-1.556,2,2,0,0,0-.389-1.323c-.415-.57-1.245-1.037-3.579-2.074-2.684-1.141-3.825-1.867-4.888-2.982a7.365,7.365,0,0,1-1.426-2.593,9.929,9.929,0,0,1-.078-3.332,6.317,6.317,0,0,1,5.316-4.927,12.567,12.567,0,0,1,3.942.13l-.026.026Z" transform="translate(-76.329 -158.425)" fill="#fff"/>
    </g>
    <g id="python-5" transform="translate(1458.636 1787.576)">
      <path id="Path_243" data-name="Path 243" d="M26.024.072c-13.235,0-12.409,5.739-12.409,5.739l.015,5.946H26.26v1.785H8.614S.145,12.582.145,25.936,7.537,38.817,7.537,38.817h4.411v-6.2s-.238-7.392,7.274-7.392H31.749s7.038.114,7.038-6.8V6.992S39.856.072,26.024.072Zm-6.964,4a2.27,2.27,0,1,1-1.607.665,2.27,2.27,0,0,1,1.607-.665Z" transform="translate(-0.145 -0.072)" fill="url(#linear-gradient)"/>
      <path id="Path_244" data-name="Path 244" d="M78.926,103.068c13.235,0,12.409-5.739,12.409-5.739l-.015-5.946H78.69V89.6H96.336s8.469.96,8.469-12.394-7.392-12.881-7.392-12.881H93v6.2s.238,7.392-7.274,7.392H73.2s-7.038-.114-7.038,6.8V96.148s-1.069,6.92,12.763,6.92Zm6.964-4A2.27,2.27,0,1,1,87.5,98.4a2.27,2.27,0,0,1-1.607.665Z" transform="translate(-52.671 -51.205)" fill="url(#linear-gradient-2)"/>
    </g>
  </g>
</svg>
