<svg xmlns="http://www.w3.org/2000/svg" width="682.082" height="525.597" viewBox="0 0 682.082 525.597">
  <g id="technology_Network" data-name="technology Network" transform="translate(-162.918 -2108)">
    <path id="Path_293" data-name="Path 293" d="M55.793,0h0a55.793,55.793,0,0,1,0,111.585h0A55.793,55.793,0,0,1,55.793,0Z" transform="matrix(0.891, 0.454, -0.454, 0.891, 383.577, 2108)" fill="rgba(220,224,244,0.48)"/>
    <path id="Path_291" data-name="Path 291" d="M55.793,0h0a55.793,55.793,0,0,1,0,111.585h0A55.793,55.793,0,0,1,55.793,0Z" transform="matrix(0.891, 0.454, -0.454, 0.891, 497.577, 2295)" fill="rgba(220,224,244,0.48)"/>
    <path id="Path_327" data-name="Path 327" d="M37.5,0h0a37.5,37.5,0,0,1,0,75.005h0A37.5,37.5,0,0,1,37.5,0Z" transform="matrix(0.891, 0.454, -0.454, 0.891, 320.17, 2441)" fill="rgba(220,224,244,0.48)"/>
    <path id="Path_329" data-name="Path 329" d="M55.793,0h0a55.793,55.793,0,0,1,0,111.585h0A55.793,55.793,0,0,1,55.793,0Z" transform="matrix(0.891, 0.454, -0.454, 0.891, 213.577, 2225)" fill="rgba(220,224,244,0.48)"/>
    <path id="Path_328" data-name="Path 328" d="M55.793,0h0a55.793,55.793,0,0,1,0,111.585h0A55.793,55.793,0,0,1,55.793,0Z" transform="matrix(0.891, 0.454, -0.454, 0.891, 745.577, 2380)" fill="rgba(220,224,244,0.48)"/>
    <rect id="Rectangle_25" data-name="Rectangle 25" width="111.585" height="111.585" rx="55.793" transform="matrix(0.891, 0.454, -0.454, 0.891, 665.577, 2171)" fill="rgba(220,224,244,0.48)"/>
    <path id="agriculture" d="M42.767,45.792a15.579,15.579,0,0,0-11.591-7.5V33.177A27.2,27.2,0,0,1,34.424,19.95c9.029-.017,14.949-2.657,20.871-9.232A22.757,22.757,0,0,0,58.9,5.568a10.879,10.879,0,0,0-5.446-4.4c-2.766-1.142-8.5-2.457-15.826,1.57l-.037.021c-4.307,2.507-7.108,5.927-7.685,9.382a8.35,8.35,0,0,0,1.467,6.2,25.427,25.427,0,0,0-1.923,4.272,25.428,25.428,0,0,0-1.923-4.272,8.351,8.351,0,0,0,1.467-6.2c-.577-3.455-3.379-6.875-7.685-9.382l-.037-.021C13.9-1.314,8.122.015,5.331,1.167A11.021,11.021,0,0,0,0,5.567,19.758,19.758,0,0,0,3.484,10.71a27.079,27.079,0,0,0,9.383,7.109,28.543,28.543,0,0,0,11.61,2.131,27.2,27.2,0,0,1,3.248,13.227v5.118a15.578,15.578,0,0,0-11.591,7.5A12.137,12.137,0,0,0,0,57.176V58.9H58.9V57.176A12.137,12.137,0,0,0,42.767,45.792ZM33.311,12.709c.4-2.4,2.643-5,6-6.958,5.745-3.152,10.141-2.5,12.82-1.4a10.024,10.024,0,0,1,2.576,1.557A22.524,22.524,0,0,1,52.738,8.4c-4.68,5.2-9.185,7.547-15.782,8.011A24.52,24.52,0,0,1,46.08,10.1l-1.3-3.2a27.64,27.64,0,0,0-11.241,8.21,4.575,4.575,0,0,1-.231-2.4ZM6.041,8.393A19.483,19.483,0,0,1,4.114,5.906,9.385,9.385,0,0,1,6.656,4.354c2.221-.915,6.845-1.944,12.935,1.4,3.356,1.959,5.6,4.559,6,6.958a4.574,4.574,0,0,1-.231,2.4A27.639,27.639,0,0,0,14.118,6.9l-1.3,3.2a24.518,24.518,0,0,1,9.127,6.315C15.274,15.957,10.736,13.606,6.041,8.393ZM3.628,55.451a8.68,8.68,0,0,1,12.5-5.906l1.609.831.753-1.647a12.03,12.03,0,0,1,21.931,0l.752,1.647,1.609-.831a8.681,8.681,0,0,1,12.5,5.906Z" transform="translate(380.929 2152.983) rotate(1)" fill="rgba(220,224,244,0.48)"/>
    <g id="coding" transform="translate(491 2342.499)">
      <g id="Group_19" data-name="Group 19" transform="translate(46.845 44.934)">
        <g id="Group_18" data-name="Group 18">
          <path id="Path_262" data-name="Path 262" d="M392.05,374.432a1.2,1.2,0,1,0,.352.849A1.21,1.21,0,0,0,392.05,374.432Z" transform="translate(-390 -374.08)" fill="rgba(220,224,244,0.48)"/>
        </g>
      </g>
      <g id="Group_21" data-name="Group 21" transform="translate(0 0.001)">
        <g id="Group_20" data-name="Group 20">
          <path id="Path_263" data-name="Path 263" d="M56.695,0H4.8A4.81,4.81,0,0,0,0,4.806V42.532a4.81,4.81,0,0,0,4.8,4.8H23.663v6.029A6.976,6.976,0,0,0,17.377,60.3a1.2,1.2,0,0,0,1.2,1.2H42.921a1.2,1.2,0,0,0,1.2-1.2A6.975,6.975,0,0,0,37.6,53.348V47.337H43.2a1.2,1.2,0,1,0,0-2.4H4.8a2.4,2.4,0,0,1-2.4-2.4V4.806A2.4,2.4,0,0,1,4.8,2.4h51.89a2.4,2.4,0,0,1,2.4,2.4V42.532a2.4,2.4,0,0,1-2.4,2.4H52.21a1.2,1.2,0,1,0,0,2.4h4.484a4.81,4.81,0,0,0,4.8-4.8V4.806A4.81,4.81,0,0,0,56.695,0ZM26.065,47.337h9.129v6H26.065Zm11.091,8.4a4.573,4.573,0,0,1,4.4,3.363H19.939a4.573,4.573,0,0,1,4.4-3.363Z" transform="translate(0 -0.001)" fill="rgba(220,224,244,0.48)"/>
        </g>
      </g>
      <g id="Group_23" data-name="Group 23" transform="translate(29.428 41.09)">
        <g id="Group_22" data-name="Group 22">
          <path id="Path_264" data-name="Path 264" d="M247.05,342.433a1.2,1.2,0,1,0,.352.849A1.21,1.21,0,0,0,247.05,342.433Z" transform="translate(-245 -342.081)" fill="rgba(220,224,244,0.48)"/>
        </g>
      </g>
      <g id="Group_25" data-name="Group 25" transform="translate(14.661 14.084)">
        <g id="Group_24" data-name="Group 24">
          <path id="Path_265" data-name="Path 265" d="M124.955,125.184l5.885-5.885a1.2,1.2,0,1,0-1.7-1.7l-6.734,6.734a1.2,1.2,0,0,0,0,1.7l6.734,6.734a1.2,1.2,0,1,0,1.7-1.7Z" transform="translate(-122.055 -117.248)" fill="rgba(220,224,244,0.48)"/>
        </g>
      </g>
      <g id="Group_27" data-name="Group 27" transform="translate(37.702 14.084)">
        <g id="Group_26" data-name="Group 26">
          <path id="Path_266" data-name="Path 266" d="M322.662,124.334l-6.734-6.734a1.2,1.2,0,0,0-1.7,1.7l5.885,5.885-5.885,5.885a1.2,1.2,0,0,0,1.7,1.7l6.734-6.734A1.2,1.2,0,0,0,322.662,124.334Z" transform="translate(-313.877 -117.248)" fill="rgba(220,224,244,0.48)"/>
        </g>
      </g>
      <g id="Group_29" data-name="Group 29" transform="translate(27.75 14.557)">
        <g id="Group_28" data-name="Group 28">
          <path id="Path_267" data-name="Path 267" d="M236.136,121.227a1.2,1.2,0,0,0-1.471.849l-3.6,13.421a1.2,1.2,0,1,0,2.32.622l3.6-13.421A1.2,1.2,0,0,0,236.136,121.227Z" transform="translate(-231.028 -121.186)" fill="rgba(220,224,244,0.48)"/>
        </g>
      </g>
      <g id="Group_31" data-name="Group 31" transform="translate(4.805 4.816)">
        <g id="Group_30" data-name="Group 30">
          <path id="Path_268" data-name="Path 268" d="M90.689,40.084H71.59a1.2,1.2,0,1,0,0,2.4h17.9V72.515H42.4V42.486H60.84a1.2,1.2,0,1,0,0-2.4H41.2a1.2,1.2,0,0,0-1.2,1.2V73.716a1.2,1.2,0,0,0,1.2,1.2H90.689a1.2,1.2,0,0,0,1.2-1.2V41.285A1.2,1.2,0,0,0,90.689,40.084Z" transform="translate(-40 -40.084)" fill="rgba(220,224,244,0.48)"/>
        </g>
      </g>
      <g id="Group_33" data-name="Group 33" transform="translate(29.789 4.815)">
        <g id="Group_32" data-name="Group 32">
          <path id="Path_269" data-name="Path 269" d="M250.05,40.433a1.2,1.2,0,1,0,.352.849A1.21,1.21,0,0,0,250.05,40.433Z" transform="translate(-248 -40.081)" fill="rgba(220,224,244,0.48)"/>
        </g>
      </g>
    </g>
    <rect id="Rectangle_29" data-name="Rectangle 29" width="98.585" height="98.585" rx="49.293" transform="matrix(0.891, 0.454, -0.454, 0.891, 552.577, 2501)" fill="rgba(220,224,244,0.48)"/>
    <g id="factory" transform="translate(546 2494.865)">
      <path id="Path_270" data-name="Path 270" d="M60.14,193.1l-3.515-33.51a1.762,1.762,0,0,0-1.753-1.579H46.06a1.762,1.762,0,0,0-1.753,1.579L41.872,182.8H34.544V172.229a1.763,1.763,0,0,0-1.762-1.762h-2v-5.287a1.763,1.763,0,0,0-1.762-1.762H5.288a1.763,1.763,0,0,0-1.762,1.762v5.287H1.762A1.763,1.763,0,0,0,0,172.229v21.15a1.763,1.763,0,0,0,1.762,1.762H58.4a1.763,1.763,0,0,0,1.762-1.762,1.786,1.786,0,0,0-.022-.279ZM7.05,166.942H27.26v3.525H7.05Zm8.46,24.675H10.575v-3.525H15.51Zm8.459,0H19.035v-3.525h4.934v3.525Zm7.05,0H27.494v-5.287a1.763,1.763,0,0,0-1.762-1.762H8.813a1.763,1.763,0,0,0-1.762,1.762v5.287H3.525V173.992H31.019Zm9.928,0h-6.4v-5.287H41.5Zm3.544,0,3.155-30.08h5.638l3.155,30.08Z" transform="translate(0 -105.905)" fill="rgba(220,224,244,0.48)"/>
      <path id="Path_271" data-name="Path 271" d="M386.259,48.582a1.763,1.763,0,0,0,1.762-1.762v-7.05a1.762,1.762,0,0,0-3.525,0v7.05A1.763,1.763,0,0,0,386.259,48.582Z" transform="translate(-339.319)" fill="rgba(220,224,244,0.48)"/>
      <path id="Path_272" data-name="Path 272" d="M446.263,75.059a1.763,1.763,0,0,0,1.762-1.762V69.771a1.762,1.762,0,1,0-3.525,0V73.3A1.762,1.762,0,0,0,446.263,75.059Z" transform="translate(-392.273 -26.477)" fill="rgba(220,224,244,0.48)"/>
      <circle id="Ellipse_21" data-name="Ellipse 21" cx="2" cy="2" r="2" transform="translate(8 71.135)" fill="rgba(220,224,244,0.48)"/>
      <ellipse id="Ellipse_22" data-name="Ellipse 22" cx="1.5" cy="2" rx="1.5" ry="2" transform="translate(16 71.135)" fill="rgba(220,224,244,0.48)"/>
      <circle id="Ellipse_23" data-name="Ellipse 23" cx="2" cy="2" r="2" transform="translate(22 71.135)" fill="rgba(220,224,244,0.48)"/>
    </g>
    <g id="lamp" transform="translate(657 2211.21)">
      <path id="Path_273" data-name="Path 273" d="M13.306,9.476A2.057,2.057,0,0,1,11.25,7.42V2.056a2.056,2.056,0,1,1,4.112,0V7.42A2.057,2.057,0,0,1,13.306,9.476Z" transform="translate(19.589)" fill="rgba(220,224,244,0.48)"/>
      <path id="Path_274" data-name="Path 274" d="M19.876,11.2A2.057,2.057,0,0,1,18.424,7.69L22.217,3.9a2.057,2.057,0,0,1,2.908,2.908L21.332,10.6A2.062,2.062,0,0,1,19.876,11.2Z" transform="translate(31.031 5.736)" fill="rgba(220,224,244,0.48)"/>
      <path id="Path_275" data-name="Path 275" d="M27.964,15.362H22.6a2.056,2.056,0,0,1,0-4.112h5.365a2.056,2.056,0,0,1,0,4.112Z" transform="translate(35.77 19.589)" fill="rgba(220,224,244,0.48)"/>
      <path id="Path_276" data-name="Path 276" d="M23.67,25.728a2.04,2.04,0,0,1-1.453-.6l-3.794-3.794a2.057,2.057,0,1,1,2.908-2.908l3.794,3.794a2.057,2.057,0,0,1-1.456,3.512Z" transform="translate(31.031 31.029)" fill="rgba(220,224,244,0.48)"/>
      <path id="Path_277" data-name="Path 277" d="M5.35,25.728A2.057,2.057,0,0,1,3.9,22.216l3.794-3.794A2.057,2.057,0,1,1,10.6,21.331L6.806,25.125A2.051,2.051,0,0,1,5.35,25.728Z" transform="translate(5.738 31.029)" fill="rgba(220,224,244,0.48)"/>
      <path id="Path_278" data-name="Path 278" d="M7.42,15.362H2.056a2.056,2.056,0,1,1,0-4.112H7.42a2.056,2.056,0,1,1,0,4.112Z" transform="translate(0 19.589)" fill="rgba(220,224,244,0.48)"/>
      <path id="Path_279" data-name="Path 279" d="M9.144,11.2a2.04,2.04,0,0,1-1.453-.6L3.9,6.805A2.057,2.057,0,0,1,6.806,3.9L10.6,7.69A2.057,2.057,0,0,1,9.144,11.2Z" transform="translate(5.738 5.736)" fill="rgba(220,224,244,0.48)"/>
      <path id="Path_280" data-name="Path 280" d="M25.447,21v3.427a4.82,4.82,0,0,1-4.8,4.8H13.8c-2.3,0-4.8-1.754-4.8-5.592V21Z" transform="translate(15.671 36.566)" fill="rgba(220,224,244,0.48)"/>
      <path id="Path_281" data-name="Path 281" d="M36.28,9.274A19.19,19.19,0,1,0,12.65,39.51a8.277,8.277,0,0,1,3.125,5.236v.027a.466.466,0,0,1,.192-.027H32.414a.247.247,0,0,1,.137.027v-.027a9.144,9.144,0,0,1,3.509-5.482A19.2,19.2,0,0,0,36.28,9.274ZM34.47,25.557A2.071,2.071,0,0,1,32.414,23.5a7.534,7.534,0,0,0-7.538-7.538,2.056,2.056,0,0,1,0-4.112A11.676,11.676,0,0,1,36.526,23.5,2.071,2.071,0,0,1,34.47,25.557Z" transform="translate(8.704 8.709)" fill="rgba(220,224,244,0.48)"/>
      <path id="Path_282" data-name="Path 282" d="M8.93,19.5h.192a.466.466,0,0,0-.192.027Z" transform="translate(15.549 33.954)" fill="rgba(220,224,244,0.48)"/>
      <path id="Path_283" data-name="Path 283" d="M15.137,19.5v.027A.247.247,0,0,0,15,19.5Z" transform="translate(26.118 33.954)" fill="rgba(220,224,244,0.48)"/>
    </g>
    <g id="mortarboard" transform="translate(740 2430.287)">
      <g id="Group_35" data-name="Group 35" transform="translate(0 0.005)">
        <g id="Group_34" data-name="Group 34">
          <path id="Path_284" data-name="Path 284" d="M60.612,58.37,57.654,49.4a5.334,5.334,0,0,0-.51-9.847V19l2.571-1.28a1.778,1.778,0,0,0,.005-3.181L31.148.194a1.779,1.779,0,0,0-1.6,0L.98,14.539A1.778,1.778,0,0,0,.986,17.72l9.684,4.822V33.912a1.779,1.779,0,0,0,.6,1.335c.351.309,8.7,7.557,19.077,7.557s18.727-7.248,19.077-7.557a1.778,1.778,0,0,0,.6-1.335V22.542l3.557-1.771V39.553a5.334,5.334,0,0,0-.51,9.847L50.12,58.37a1.78,1.78,0,0,0,1.689,2.335h7.113A1.78,1.78,0,0,0,60.612,58.37Zm-14.137-25.3c-1.98,1.541-8.574,6.181-16.124,6.181S16.205,34.6,14.227,33.066V24.313l15.331,7.634a1.778,1.778,0,0,0,1.585,0l15.331-7.634v8.752Zm-16.124-4.7L5.755,16.122l24.6-12.349,24.6,12.349Zm23.917,28.78,1.1-3.33,1.1,3.33Zm1.1-10.789a1.778,1.778,0,1,1,1.778-1.778A1.78,1.78,0,0,1,55.366,46.36Z" transform="translate(0 -0.005)" fill="rgba(220,224,244,0.48)"/>
        </g>
      </g>
      <g id="Group_37" data-name="Group 37" transform="translate(25.016 10.793)">
        <g id="Group_36" data-name="Group 36">
          <path id="Path_285" data-name="Path 285" d="M216.333,91a5.335,5.335,0,1,0,5.335,5.335A5.341,5.341,0,0,0,216.333,91Zm0,7.113a1.778,1.778,0,1,1,1.778-1.778A1.78,1.78,0,0,1,216.333,98.117Z" transform="translate(-210.998 -91.004)" fill="rgba(220,224,244,0.48)"/>
        </g>
      </g>
    </g>
    <path id="portfolio" d="M59.651,7.2H43.32V5.4A5.406,5.406,0,0,0,37.92,0H23.52a5.406,5.406,0,0,0-5.4,5.4V7.2H1.8A1.8,1.8,0,0,0,0,9V48.6A5.406,5.406,0,0,0,5.4,54H56.04a5.406,5.406,0,0,0,5.4-5.4V9.031A1.748,1.748,0,0,0,59.651,7.2ZM21.72,5.4a1.8,1.8,0,0,1,1.8-1.8h14.4a1.8,1.8,0,0,1,1.8,1.8V7.2h-18Zm35.422,5.4-5.59,16.769A1.8,1.8,0,0,1,49.845,28.8H39.72V27a1.8,1.8,0,0,0-1.8-1.8H23.52a1.8,1.8,0,0,0-1.8,1.8v1.8H11.595a1.8,1.8,0,0,1-1.707-1.231L4.3,10.8ZM36.12,28.8v3.6H25.32l-3.6-3.6ZM57.84,48.6a1.8,1.8,0,0,1-1.8,1.8H5.4a1.8,1.8,0,0,1-1.8-1.8V20.092l2.872,8.616A5.392,5.392,0,0,0,11.595,32.4H21.72v1.8a1.8,1.8,0,0,0,1.8,1.8h14.4a1.8,1.8,0,0,0,1.8-1.8V32.4H49.845a5.392,5.392,0,0,0,5.122-3.692l2.872-8.616Zm0,0" transform="translate(207.275 2273)" fill="rgba(220,224,244,0.48)"/>
    <g id="stethoscope" transform="translate(318.438 2473.292)">
      <g id="Group_39" data-name="Group 39" transform="translate(0 1.752)">
        <g id="Group_38" data-name="Group 38" transform="translate(0)">
          <path id="Path_286" data-name="Path 286" d="M60.141,19.932H54.884v3.285H58.5V29.4a9.856,9.856,0,1,1-19.712,0V23.217h3.5V19.932H37.144A1.643,1.643,0,0,0,35.5,21.575V29.4a13.141,13.141,0,1,0,26.282,0v-7.83A1.643,1.643,0,0,0,60.141,19.932Z" transform="translate(-35.501 -19.932)" fill="rgba(220,224,244,0.48)"/>
        </g>
      </g>
      <g id="Group_41" data-name="Group 41" transform="translate(11.334 22.778)">
        <g id="Group_40" data-name="Group 40">
          <path id="Path_287" data-name="Path 287" d="M184.146,262.071v7.775a8.213,8.213,0,1,1-16.427,0V259.114h-3.285v10.732a11.5,11.5,0,0,0,23,0v-7.775h-3.285Z" transform="translate(-164.434 -259.114)" fill="rgba(220,224,244,0.48)"/>
        </g>
      </g>
      <g id="Group_43" data-name="Group 43" transform="translate(26.611 15.112)">
        <g id="Group_42" data-name="Group 42">
          <path id="Path_288" data-name="Path 288" d="M344.294,171.912a6.078,6.078,0,1,0,6.078,6.078A6.085,6.085,0,0,0,344.294,171.912Zm0,8.87a2.792,2.792,0,1,1,2.792-2.792A2.8,2.8,0,0,1,344.294,180.782Z" transform="translate(-338.216 -171.912)" fill="rgba(220,224,244,0.48)"/>
        </g>
      </g>
      <g id="Group_45" data-name="Group 45" transform="translate(5.092)">
        <g id="Group_44" data-name="Group 44" transform="translate(0)">
          <path id="Path_289" data-name="Path 289" d="M95.071,0a1.643,1.643,0,0,0-1.643,1.643v3.5a1.643,1.643,0,0,0,3.285,0v-3.5A1.643,1.643,0,0,0,95.071,0Z" transform="translate(-93.428)" fill="rgba(220,224,244,0.48)"/>
        </g>
      </g>
      <g id="Group_47" data-name="Group 47" transform="translate(17.795)">
        <g id="Group_46" data-name="Group 46" transform="translate(0)">
          <path id="Path_290" data-name="Path 290" d="M239.577,0a1.643,1.643,0,0,0-1.643,1.643v3.5a1.643,1.643,0,0,0,3.285,0v-3.5A1.643,1.643,0,0,0,239.577,0Z" transform="translate(-237.934)" fill="rgba(220,224,244,0.48)"/>
        </g>
      </g>
    </g>
    <g id="Group_50" data-name="Group 50" transform="translate(13 -4)">
      <ellipse id="Ellipse_24" data-name="Ellipse 24" cx="1.984" cy="1.984" rx="1.984" ry="1.984" transform="translate(521.529 2427.773) rotate(-13)" fill="rgba(220,224,244,0.48)"/>
      <ellipse id="Ellipse_24-2" data-name="Ellipse 24" cx="1.984" cy="1.984" rx="1.984" ry="1.984" transform="translate(524.972 2442.685) rotate(-13)" fill="rgba(220,224,244,0.48)"/>
      <ellipse id="Ellipse_24-3" data-name="Ellipse 24" cx="1.984" cy="1.984" rx="1.984" ry="1.984" transform="translate(528.415 2457.598) rotate(-13)" fill="rgba(220,224,244,0.48)"/>
      <ellipse id="Ellipse_24-4" data-name="Ellipse 24" cx="1.984" cy="1.984" rx="1.984" ry="1.984" transform="translate(531.858 2472.51) rotate(-13)" fill="rgba(220,224,244,0.48)"/>
      <ellipse id="Ellipse_24-5" data-name="Ellipse 24" cx="1.984" cy="1.984" rx="1.984" ry="1.984" transform="translate(535.301 2487.423) rotate(-13)" fill="rgba(220,224,244,0.48)"/>
      <ellipse id="Ellipse_24-6" data-name="Ellipse 24" cx="1.984" cy="1.984" rx="1.984" ry="1.984" transform="translate(538.743 2502.336) rotate(-13)" fill="rgba(220,224,244,0.48)"/>
      <path id="Path_296" data-name="Path 296" d="M1.984,0A1.984,1.984,0,1,1,0,1.984,1.984,1.984,0,0,1,1.984,0Z" transform="translate(542.186 2517.248) rotate(-13)" fill="rgba(220,224,244,0.48)"/>
    </g>
    <g id="Group_57" data-name="Group 57" transform="translate(-770.983 67.298) rotate(-17)">
      <ellipse id="Ellipse_24-7" data-name="Ellipse 24" cx="1.984" cy="1.984" rx="1.984" ry="1.984" transform="translate(521.529 2427.773) rotate(-13)" fill="rgba(220,224,244,0.48)"/>
      <ellipse id="Ellipse_24-8" data-name="Ellipse 24" cx="1.984" cy="1.984" rx="1.984" ry="1.984" transform="translate(524.972 2442.685) rotate(-13)" fill="rgba(220,224,244,0.48)"/>
      <ellipse id="Ellipse_24-9" data-name="Ellipse 24" cx="1.984" cy="1.984" rx="1.984" ry="1.984" transform="translate(528.415 2457.598) rotate(-13)" fill="rgba(220,224,244,0.48)"/>
      <ellipse id="Ellipse_24-10" data-name="Ellipse 24" cx="1.984" cy="1.984" rx="1.984" ry="1.984" transform="translate(531.858 2472.51) rotate(-13)" fill="rgba(220,224,244,0.48)"/>
      <ellipse id="Ellipse_24-11" data-name="Ellipse 24" cx="1.984" cy="1.984" rx="1.984" ry="1.984" transform="translate(535.301 2487.423) rotate(-13)" fill="rgba(220,224,244,0.48)"/>
      <ellipse id="Ellipse_24-12" data-name="Ellipse 24" cx="1.984" cy="1.984" rx="1.984" ry="1.984" transform="translate(538.743 2502.336) rotate(-13)" fill="rgba(220,224,244,0.48)"/>
      <path id="Path_296-2" data-name="Path 296" d="M1.984,0A1.984,1.984,0,1,1,0,1.984,1.984,1.984,0,0,1,1.984,0Z" transform="translate(542.186 2517.248) rotate(-13)" fill="rgba(220,224,244,0.48)"/>
    </g>
    <g id="Group_56" data-name="Group 56" transform="translate(2633.662 782.257) rotate(65)">
      <ellipse id="Ellipse_24-13" data-name="Ellipse 24" cx="1.984" cy="1.984" rx="1.984" ry="1.984" transform="translate(524.972 2442.685) rotate(-13)" fill="rgba(220,224,244,0.48)"/>
      <ellipse id="Ellipse_24-14" data-name="Ellipse 24" cx="1.984" cy="1.984" rx="1.984" ry="1.984" transform="translate(528.838 2456.692) rotate(-13)" fill="rgba(220,224,244,0.48)"/>
      <ellipse id="Ellipse_24-15" data-name="Ellipse 24" cx="1.984" cy="1.984" rx="1.984" ry="1.984" transform="translate(531.858 2472.51) rotate(-13)" fill="rgba(220,224,244,0.48)"/>
      <ellipse id="Ellipse_24-16" data-name="Ellipse 24" cx="1.984" cy="1.984" rx="1.984" ry="1.984" transform="translate(535.301 2487.423) rotate(-13)" fill="rgba(220,224,244,0.48)"/>
      <ellipse id="Ellipse_24-17" data-name="Ellipse 24" cx="1.984" cy="1.984" rx="1.984" ry="1.984" transform="translate(538.743 2502.336) rotate(-13)" fill="rgba(220,224,244,0.48)"/>
      <path id="Path_296-3" data-name="Path 296" d="M1.984,0A1.984,1.984,0,1,1,0,1.984,1.984,1.984,0,0,1,1.984,0Z" transform="translate(542.186 2517.248) rotate(-13)" fill="rgba(220,224,244,0.48)"/>
    </g>
    <g id="Group_53" data-name="Group 53" transform="translate(2575.314 1086.822) rotate(70)">
      <ellipse id="Ellipse_24-18" data-name="Ellipse 24" cx="1.984" cy="1.984" rx="1.984" ry="1.984" transform="translate(521.529 2427.773) rotate(-13)" fill="rgba(220,224,244,0.48)"/>
      <ellipse id="Ellipse_24-19" data-name="Ellipse 24" cx="1.984" cy="1.984" rx="1.984" ry="1.984" transform="translate(524.972 2442.685) rotate(-13)" fill="rgba(220,224,244,0.48)"/>
      <ellipse id="Ellipse_24-20" data-name="Ellipse 24" cx="1.984" cy="1.984" rx="1.984" ry="1.984" transform="translate(528.415 2457.598) rotate(-13)" fill="rgba(220,224,244,0.48)"/>
      <ellipse id="Ellipse_24-21" data-name="Ellipse 24" cx="1.984" cy="1.984" rx="1.984" ry="1.984" transform="translate(531.858 2472.51) rotate(-13)" fill="rgba(220,224,244,0.48)"/>
      <ellipse id="Ellipse_24-22" data-name="Ellipse 24" cx="1.984" cy="1.984" rx="1.984" ry="1.984" transform="translate(535.301 2487.423) rotate(-13)" fill="rgba(220,224,244,0.48)"/>
      <ellipse id="Ellipse_24-23" data-name="Ellipse 24" cx="1.984" cy="1.984" rx="1.984" ry="1.984" transform="translate(538.743 2502.336) rotate(-13)" fill="rgba(220,224,244,0.48)"/>
      <path id="Path_296-4" data-name="Path 296" d="M1.984,0A1.984,1.984,0,1,1,0,1.984,1.984,1.984,0,0,1,1.984,0Z" transform="translate(542.186 2517.248) rotate(-13)" fill="rgba(220,224,244,0.48)"/>
      <path id="Path_298" data-name="Path 298" d="M1.984,0A1.984,1.984,0,1,1,0,1.984,1.984,1.984,0,0,1,1.984,0Z" transform="translate(545.6 2531.26) rotate(-13)" fill="rgba(220,224,244,0.48)"/>
    </g>
    <g id="Group_54" data-name="Group 54" transform="translate(2883.29 2902.784) rotate(115)">
      <ellipse id="Ellipse_24-24" data-name="Ellipse 24" cx="1.984" cy="1.984" rx="1.984" ry="1.984" transform="translate(521.529 2427.773) rotate(-13)" fill="rgba(220,224,244,0.48)"/>
      <ellipse id="Ellipse_24-25" data-name="Ellipse 24" cx="1.984" cy="1.984" rx="1.984" ry="1.984" transform="translate(524.972 2442.685) rotate(-13)" fill="rgba(220,224,244,0.48)"/>
      <ellipse id="Ellipse_24-26" data-name="Ellipse 24" cx="1.984" cy="1.984" rx="1.984" ry="1.984" transform="translate(528.415 2457.598) rotate(-13)" fill="rgba(220,224,244,0.48)"/>
      <ellipse id="Ellipse_24-27" data-name="Ellipse 24" cx="1.984" cy="1.984" rx="1.984" ry="1.984" transform="translate(531.858 2472.51) rotate(-13)" fill="rgba(220,224,244,0.48)"/>
      <ellipse id="Ellipse_24-28" data-name="Ellipse 24" cx="1.984" cy="1.984" rx="1.984" ry="1.984" transform="translate(535.301 2487.423) rotate(-13)" fill="rgba(220,224,244,0.48)"/>
      <ellipse id="Ellipse_24-29" data-name="Ellipse 24" cx="1.984" cy="1.984" rx="1.984" ry="1.984" transform="translate(538.743 2502.336) rotate(-13)" fill="rgba(220,224,244,0.48)"/>
      <path id="Path_296-5" data-name="Path 296" d="M1.984,0A1.984,1.984,0,1,1,0,1.984,1.984,1.984,0,0,1,1.984,0Z" transform="translate(542.186 2517.248) rotate(-13)" fill="rgba(220,224,244,0.48)"/>
      <path id="Path_298-2" data-name="Path 298" d="M1.984,0A1.984,1.984,0,1,1,0,1.984,1.984,1.984,0,0,1,1.984,0Z" transform="translate(545.6 2531.26) rotate(-13)" fill="rgba(220,224,244,0.48)"/>
    </g>
    <g id="Group_55" data-name="Group 55" transform="translate(2764.29 2877.784) rotate(115)">
      <ellipse id="Ellipse_24-30" data-name="Ellipse 24" cx="1.984" cy="1.984" rx="1.984" ry="1.984" transform="translate(521.529 2427.773) rotate(-13)" fill="rgba(220,224,244,0.48)"/>
      <ellipse id="Ellipse_24-31" data-name="Ellipse 24" cx="1.984" cy="1.984" rx="1.984" ry="1.984" transform="translate(524.972 2442.685) rotate(-13)" fill="rgba(220,224,244,0.48)"/>
      <ellipse id="Ellipse_24-32" data-name="Ellipse 24" cx="1.984" cy="1.984" rx="1.984" ry="1.984" transform="translate(528.415 2457.598) rotate(-13)" fill="rgba(220,224,244,0.48)"/>
      <ellipse id="Ellipse_24-33" data-name="Ellipse 24" cx="1.984" cy="1.984" rx="1.984" ry="1.984" transform="translate(531.858 2472.51) rotate(-13)" fill="rgba(220,224,244,0.48)"/>
    </g>
    <g id="Group_51" data-name="Group 51" transform="translate(-1786.426 1630.662) rotate(-60)">
      <ellipse id="Ellipse_24-34" data-name="Ellipse 24" cx="1.984" cy="1.984" rx="1.984" ry="1.984" transform="translate(521.529 2427.773) rotate(-13)" fill="rgba(220,224,244,0.48)"/>
      <ellipse id="Ellipse_24-35" data-name="Ellipse 24" cx="1.984" cy="1.984" rx="1.984" ry="1.984" transform="translate(524.972 2442.685) rotate(-13)" fill="rgba(220,224,244,0.48)"/>
      <ellipse id="Ellipse_24-36" data-name="Ellipse 24" cx="1.984" cy="1.984" rx="1.984" ry="1.984" transform="translate(528.415 2457.598) rotate(-13)" fill="rgba(220,224,244,0.48)"/>
      <ellipse id="Ellipse_24-37" data-name="Ellipse 24" cx="1.984" cy="1.984" rx="1.984" ry="1.984" transform="translate(531.858 2472.51) rotate(-13)" fill="rgba(220,224,244,0.48)"/>
      <ellipse id="Ellipse_24-38" data-name="Ellipse 24" cx="1.984" cy="1.984" rx="1.984" ry="1.984" transform="translate(535.301 2487.423) rotate(-13)" fill="rgba(220,224,244,0.48)"/>
      <ellipse id="Ellipse_24-39" data-name="Ellipse 24" cx="1.984" cy="1.984" rx="1.984" ry="1.984" transform="translate(538.743 2502.336) rotate(-13)" fill="rgba(220,224,244,0.48)"/>
      <path id="Path_296-6" data-name="Path 296" d="M1.984,0A1.984,1.984,0,1,1,0,1.984,1.984,1.984,0,0,1,1.984,0Z" transform="translate(542.186 2517.248) rotate(-13)" fill="rgba(220,224,244,0.48)"/>
    </g>
    <g id="Group_52" data-name="Group 52" transform="translate(-1698.426 1657.662) rotate(-60)">
      <ellipse id="Ellipse_24-40" data-name="Ellipse 24" cx="1.984" cy="1.984" rx="1.984" ry="1.984" transform="translate(524.972 2442.685) rotate(-13)" fill="rgba(220,224,244,0.48)"/>
      <ellipse id="Ellipse_24-41" data-name="Ellipse 24" cx="1.984" cy="1.984" rx="1.984" ry="1.984" transform="translate(528.415 2457.598) rotate(-13)" fill="rgba(220,224,244,0.48)"/>
      <ellipse id="Ellipse_24-42" data-name="Ellipse 24" cx="1.984" cy="1.984" rx="1.984" ry="1.984" transform="translate(531.858 2472.51) rotate(-13)" fill="rgba(220,224,244,0.48)"/>
      <path id="Path_297" data-name="Path 297" d="M0,1.984Z" transform="translate(538.743 2502.336) rotate(-13)" fill="rgba(220,224,244,0.48)"/>
    </g>
  </g>
</svg>
