<svg xmlns="http://www.w3.org/2000/svg" width="29" height="29" viewBox="0 0 29 29">
  <g id="iconfinder_twitter_circle_294709" transform="translate(0 0.316)">
    <path id="Path_402" data-name="Path 402" d="M14.5,0A14.5,14.5,0,1,1,0,14.5,14.5,14.5,0,0,1,14.5,0Z" transform="translate(0 -0.317)" fill="#8184af"/>
    <g id="Group_107" data-name="Group 107" transform="translate(6.514 7.649)">
      <g id="Group_106" data-name="Group 106">
        <path id="Path_401" data-name="Path 401" d="M26.377,14.354a4.79,4.79,0,0,1-1.793.538,3.33,3.33,0,0,0,1.374-1.852,6.913,6.913,0,0,1-2.032.837A3.05,3.05,0,0,0,21.656,12.8a3.284,3.284,0,0,0-3.167,3.406,3.407,3.407,0,0,0,.06.777,8.747,8.747,0,0,1-6.514-3.526,3.242,3.242,0,0,0-.418,1.733A3.4,3.4,0,0,0,12.992,18a2.877,2.877,0,0,1-1.434-.418v.06a3.424,3.424,0,0,0,2.51,3.346,3.527,3.527,0,0,1-.837.12,2.033,2.033,0,0,1-.6-.06,3.106,3.106,0,0,0,2.928,2.331,6.1,6.1,0,0,1-3.884,1.434,3.676,3.676,0,0,1-.777-.06,8.49,8.49,0,0,0,4.84,1.554c5.8,0,8.964-5.139,8.964-9.621v-.418A7.139,7.139,0,0,0,26.377,14.354Z" transform="translate(-10.9 -12.8)" fill="#141860"/>
      </g>
    </g>
  </g>
</svg>
